# MagicaVoxel @ ephtracy

# material
mtllib Street End Two.mtl
usemtl palette

# normals
vn -1 0 0
vn 1 0 0
vn 0 0 1
vn 0 0 -1
vn 0 -1 0
vn 0 1 0

# texcoords
vt 0.0878906 0.5
vt 0.970703 0.5
vt 0.994141 0.5

# verts
v -63 0 63
v -63 0 -63
v -63 1 63
v -63 1 -63
v -20 1 -23
v -20 1 -24
v -20 1 -62
v -20 1 -63
v -20 3 -24
v -20 3 -62
v -20 4 -23
v -20 4 -63
v -19 4 -24
v -19 4 -63
v -19 5 -24
v -19 5 -63
v -16 5 -52
v -16 5 -53
v -16 6 -52
v -16 6 -53
v -13 4 -32
v -13 4 -33
v -13 6 -32
v -13 6 -33
v -11 4 -61
v -11 4 -62
v -11 5 -61
v -11 5 -62
v -9 4 -44
v -9 4 -45
v -9 6 -44
v -9 6 -45
v -3 4 -42
v -3 4 -43
v -3 5 -42
v -3 5 -43
v -1 4 -31
v -1 4 -32
v -1 6 -31
v -1 6 -32
v 2 4 -56
v 2 4 -57
v 2 6 -56
v 2 6 -57
v 5 4 -44
v 5 4 -45
v 5 5 -44
v 5 5 -45
v 10 4 -29
v 10 4 -30
v 10 4 -59
v 10 4 -60
v 10 5 -29
v 10 5 -30
v 10 5 -59
v 10 5 -60
v 15 4 -27
v 15 4 -63
v 15 5 -27
v 15 5 -63
v -16 4 -27
v -16 4 -52
v -16 4 -53
v -16 4 -63
v -16 5 -27
v -16 5 -52
v -16 5 -53
v -16 5 -63
v -15 4 -52
v -15 4 -53
v -15 6 -52
v -15 6 -53
v -12 4 -32
v -12 4 -33
v -12 6 -32
v -12 6 -33
v -10 4 -61
v -10 4 -62
v -10 5 -61
v -10 5 -62
v -8 4 -44
v -8 4 -45
v -8 6 -44
v -8 6 -45
v -2 4 -42
v -2 4 -43
v -2 5 -42
v -2 5 -43
v 0 4 -31
v 0 4 -32
v 0 6 -31
v 0 6 -32
v 3 4 -56
v 3 4 -57
v 3 6 -56
v 3 6 -57
v 6 4 -44
v 6 4 -45
v 6 5 -44
v 6 5 -45
v 11 4 -29
v 11 4 -30
v 11 4 -59
v 11 4 -60
v 11 5 -29
v 11 5 -30
v 11 5 -59
v 11 5 -60
v 18 4 -24
v 18 4 -63
v 18 5 -24
v 18 5 -63
v 19 1 -23
v 19 1 -63
v 19 4 -23
v 19 4 -63
v 63 0 63
v 63 0 -63
v 63 1 63
v 63 1 -63
v -63 0 63
v -63 1 63
v 63 0 63
v 63 1 63
v -20 1 -23
v -20 4 -23
v 19 1 -23
v 19 4 -23
v -19 4 -24
v -19 5 -24
v 18 4 -24
v 18 5 -24
v 10 4 -29
v 10 5 -29
v 11 4 -29
v 11 5 -29
v -1 4 -31
v -1 6 -31
v 0 4 -31
v 0 6 -31
v -13 4 -32
v -13 6 -32
v -12 4 -32
v -12 6 -32
v -3 4 -42
v -3 5 -42
v -2 4 -42
v -2 5 -42
v -9 4 -44
v -9 6 -44
v -8 4 -44
v -8 6 -44
v 5 4 -44
v 5 5 -44
v 6 4 -44
v 6 5 -44
v -16 4 -52
v -16 5 -52
v -16 6 -52
v -15 4 -52
v -15 6 -52
v 2 4 -56
v 2 6 -56
v 3 4 -56
v 3 6 -56
v 10 4 -59
v 10 5 -59
v 11 4 -59
v 11 5 -59
v -11 4 -61
v -11 5 -61
v -10 4 -61
v -10 5 -61
v -16 4 -27
v -16 5 -27
v 15 4 -27
v 15 5 -27
v 10 4 -30
v 10 5 -30
v 11 4 -30
v 11 5 -30
v -1 4 -32
v -1 6 -32
v 0 4 -32
v 0 6 -32
v -13 4 -33
v -13 6 -33
v -12 4 -33
v -12 6 -33
v -3 4 -43
v -3 5 -43
v -2 4 -43
v -2 5 -43
v -9 4 -45
v -9 6 -45
v -8 4 -45
v -8 6 -45
v 5 4 -45
v 5 5 -45
v 6 4 -45
v 6 5 -45
v -16 4 -53
v -16 5 -53
v -16 6 -53
v -15 4 -53
v -15 6 -53
v 2 4 -57
v 2 6 -57
v 3 4 -57
v 3 6 -57
v 10 4 -60
v 10 5 -60
v 11 4 -60
v 11 5 -60
v -11 4 -62
v -11 5 -62
v -10 4 -62
v -10 5 -62
v -63 0 -63
v -63 1 -63
v -20 1 -63
v -20 4 -63
v -19 4 -63
v -19 5 -63
v -16 3 -63
v -16 4 -63
v -16 5 -63
v 15 3 -63
v 15 4 -63
v 15 5 -63
v 18 4 -63
v 18 5 -63
v 19 1 -63
v 19 4 -63
v 63 0 -63
v 63 1 -63
v -63 0 63
v 63 0 63
v -63 0 -63
v 63 0 -63
v -63 1 63
v 63 1 63
v -20 1 -23
v 19 1 -23
v -20 1 -24
v -20 1 -62
v -63 1 -63
v -20 1 -63
v 19 1 -63
v 63 1 -63
v -20 4 -23
v 19 4 -23
v -19 4 -24
v 18 4 -24
v -16 4 -27
v 15 4 -27
v 10 4 -29
v 11 4 -29
v 10 4 -30
v 11 4 -30
v -1 4 -31
v 0 4 -31
v -13 4 -32
v -12 4 -32
v -1 4 -32
v 0 4 -32
v -13 4 -33
v -12 4 -33
v -3 4 -42
v -2 4 -42
v -3 4 -43
v -2 4 -43
v -9 4 -44
v -8 4 -44
v 5 4 -44
v 6 4 -44
v -9 4 -45
v -8 4 -45
v 5 4 -45
v 6 4 -45
v -16 4 -52
v -15 4 -52
v -16 4 -53
v -15 4 -53
v 2 4 -56
v 3 4 -56
v 2 4 -57
v 3 4 -57
v 10 4 -59
v 11 4 -59
v 10 4 -60
v 11 4 -60
v -11 4 -61
v -10 4 -61
v -11 4 -62
v -10 4 -62
v -20 4 -63
v -19 4 -63
v -16 4 -63
v 15 4 -63
v 18 4 -63
v 19 4 -63
v -19 5 -24
v 18 5 -24
v -16 5 -27
v 15 5 -27
v 10 5 -29
v 11 5 -29
v 10 5 -30
v 11 5 -30
v -3 5 -42
v -2 5 -42
v -3 5 -43
v -2 5 -43
v 5 5 -44
v 6 5 -44
v 5 5 -45
v 6 5 -45
v -16 5 -52
v -16 5 -53
v 10 5 -59
v 11 5 -59
v 10 5 -60
v 11 5 -60
v -11 5 -61
v -10 5 -61
v -11 5 -62
v -10 5 -62
v -19 5 -63
v -16 5 -63
v 15 5 -63
v 18 5 -63
v -1 6 -31
v 0 6 -31
v -13 6 -32
v -12 6 -32
v -1 6 -32
v 0 6 -32
v -13 6 -33
v -12 6 -33
v -9 6 -44
v -8 6 -44
v -9 6 -45
v -8 6 -45
v -16 6 -52
v -15 6 -52
v -16 6 -53
v -15 6 -53
v 2 6 -56
v 3 6 -56
v 2 6 -57
v 3 6 -57

# faces
f 3/1/1 2/1/1 1/1/1
f 4/1/1 2/1/1 3/1/1
f 9/1/1 6/1/1 5/1/1
f 9/2/1 7/2/1 6/2/1
f 10/1/1 8/1/1 7/1/1
f 10/2/1 7/2/1 9/2/1
f 11/1/1 9/1/1 5/1/1
f 11/1/1 10/1/1 9/1/1
f 12/1/1 8/1/1 10/1/1
f 12/1/1 10/1/1 11/1/1
f 15/1/1 14/1/1 13/1/1
f 16/1/1 14/1/1 15/1/1
f 19/3/1 18/3/1 17/3/1
f 20/3/1 18/3/1 19/3/1
f 23/3/1 22/3/1 21/3/1
f 24/3/1 22/3/1 23/3/1
f 27/3/1 26/3/1 25/3/1
f 28/3/1 26/3/1 27/3/1
f 31/3/1 30/3/1 29/3/1
f 32/3/1 30/3/1 31/3/1
f 35/3/1 34/3/1 33/3/1
f 36/3/1 34/3/1 35/3/1
f 39/3/1 38/3/1 37/3/1
f 40/3/1 38/3/1 39/3/1
f 43/3/1 42/3/1 41/3/1
f 44/3/1 42/3/1 43/3/1
f 47/3/1 46/3/1 45/3/1
f 48/3/1 46/3/1 47/3/1
f 53/3/1 50/3/1 49/3/1
f 54/3/1 50/3/1 53/3/1
f 55/3/1 52/3/1 51/3/1
f 56/3/1 52/3/1 55/3/1
f 59/1/1 58/1/1 57/1/1
f 60/1/1 58/1/1 59/1/1
f 61/1/2 62/1/2 65/1/2
f 65/1/2 62/1/2 66/1/2
f 63/1/2 64/1/2 67/1/2
f 67/1/2 64/1/2 68/1/2
f 69/3/2 70/3/2 71/3/2
f 71/3/2 70/3/2 72/3/2
f 73/3/2 74/3/2 75/3/2
f 75/3/2 74/3/2 76/3/2
f 77/3/2 78/3/2 79/3/2
f 79/3/2 78/3/2 80/3/2
f 81/3/2 82/3/2 83/3/2
f 83/3/2 82/3/2 84/3/2
f 85/3/2 86/3/2 87/3/2
f 87/3/2 86/3/2 88/3/2
f 89/3/2 90/3/2 91/3/2
f 91/3/2 90/3/2 92/3/2
f 93/3/2 94/3/2 95/3/2
f 95/3/2 94/3/2 96/3/2
f 97/3/2 98/3/2 99/3/2
f 99/3/2 98/3/2 100/3/2
f 101/3/2 102/3/2 105/3/2
f 105/3/2 102/3/2 106/3/2
f 103/3/2 104/3/2 107/3/2
f 107/3/2 104/3/2 108/3/2
f 109/1/2 110/1/2 111/1/2
f 111/1/2 110/1/2 112/1/2
f 113/1/2 114/1/2 115/1/2
f 115/1/2 114/1/2 116/1/2
f 117/1/2 118/1/2 119/1/2
f 119/1/2 118/1/2 120/1/2
f 123/1/3 122/1/3 121/1/3
f 124/1/3 122/1/3 123/1/3
f 127/1/3 126/1/3 125/1/3
f 128/1/3 126/1/3 127/1/3
f 131/1/3 130/1/3 129/1/3
f 132/1/3 130/1/3 131/1/3
f 135/3/3 134/3/3 133/3/3
f 136/3/3 134/3/3 135/3/3
f 139/3/3 138/3/3 137/3/3
f 140/3/3 138/3/3 139/3/3
f 143/3/3 142/3/3 141/3/3
f 144/3/3 142/3/3 143/3/3
f 147/3/3 146/3/3 145/3/3
f 148/3/3 146/3/3 147/3/3
f 151/3/3 150/3/3 149/3/3
f 152/3/3 150/3/3 151/3/3
f 155/3/3 154/3/3 153/3/3
f 156/3/3 154/3/3 155/3/3
f 160/3/3 158/3/3 157/3/3
f 160/3/3 159/3/3 158/3/3
f 161/3/3 159/3/3 160/3/3
f 164/3/3 163/3/3 162/3/3
f 165/3/3 163/3/3 164/3/3
f 168/3/3 167/3/3 166/3/3
f 169/3/3 167/3/3 168/3/3
f 172/3/3 171/3/3 170/3/3
f 173/3/3 171/3/3 172/3/3
f 174/1/4 175/1/4 176/1/4
f 176/1/4 175/1/4 177/1/4
f 178/3/4 179/3/4 180/3/4
f 180/3/4 179/3/4 181/3/4
f 182/3/4 183/3/4 184/3/4
f 184/3/4 183/3/4 185/3/4
f 186/3/4 187/3/4 188/3/4
f 188/3/4 187/3/4 189/3/4
f 190/3/4 191/3/4 192/3/4
f 192/3/4 191/3/4 193/3/4
f 194/3/4 195/3/4 196/3/4
f 196/3/4 195/3/4 197/3/4
f 198/3/4 199/3/4 200/3/4
f 200/3/4 199/3/4 201/3/4
f 202/3/4 203/3/4 205/3/4
f 203/3/4 204/3/4 205/3/4
f 205/3/4 204/3/4 206/3/4
f 207/3/4 208/3/4 209/3/4
f 209/3/4 208/3/4 210/3/4
f 211/3/4 212/3/4 213/3/4
f 213/3/4 212/3/4 214/3/4
f 215/3/4 216/3/4 217/3/4
f 217/3/4 216/3/4 218/3/4
f 219/1/4 220/1/4 221/1/4
f 221/1/4 222/1/4 223/1/4
f 221/1/4 223/1/4 225/1/4
f 223/1/4 224/1/4 225/1/4
f 225/1/4 224/1/4 226/1/4
f 226/1/4 224/1/4 227/1/4
f 221/1/4 225/1/4 228/1/4
f 225/3/4 226/3/4 228/3/4
f 228/3/4 226/3/4 229/3/4
f 228/1/4 229/1/4 231/1/4
f 229/1/4 230/1/4 231/1/4
f 231/1/4 230/1/4 232/1/4
f 219/1/4 221/1/4 233/1/4
f 221/1/4 228/1/4 233/1/4
f 228/1/4 231/1/4 233/1/4
f 233/1/4 231/1/4 234/1/4
f 219/1/4 233/1/4 235/1/4
f 235/1/4 233/1/4 236/1/4
f 239/1/5 238/1/5 237/1/5
f 240/1/5 238/1/5 239/1/5
f 241/1/6 242/1/6 243/1/6
f 243/1/6 242/1/6 244/1/6
f 241/1/6 243/1/6 245/1/6
f 241/1/6 245/1/6 246/1/6
f 241/1/6 246/1/6 247/1/6
f 247/1/6 246/1/6 248/1/6
f 244/1/6 242/1/6 249/1/6
f 249/1/6 242/1/6 250/1/6
f 251/1/6 252/1/6 253/1/6
f 253/1/6 252/1/6 254/1/6
f 255/3/6 256/3/6 257/3/6
f 257/3/6 256/3/6 258/3/6
f 255/3/6 257/3/6 259/3/6
f 258/3/6 256/3/6 260/3/6
f 255/3/6 259/3/6 261/3/6
f 259/3/6 260/3/6 261/3/6
f 261/3/6 260/3/6 262/3/6
f 255/3/6 261/3/6 263/3/6
f 263/3/6 261/3/6 264/3/6
f 264/3/6 261/3/6 265/3/6
f 262/3/6 260/3/6 266/3/6
f 255/3/6 263/3/6 267/3/6
f 264/3/6 265/3/6 268/3/6
f 265/3/6 266/3/6 268/3/6
f 268/3/6 266/3/6 269/3/6
f 267/3/6 268/3/6 269/3/6
f 269/3/6 266/3/6 270/3/6
f 267/3/6 269/3/6 271/3/6
f 270/3/6 266/3/6 272/3/6
f 267/3/6 271/3/6 273/3/6
f 271/3/6 272/3/6 273/3/6
f 273/3/6 272/3/6 274/3/6
f 266/3/6 260/3/6 275/3/6
f 274/3/6 272/3/6 275/3/6
f 272/3/6 266/3/6 275/3/6
f 275/3/6 260/3/6 276/3/6
f 267/3/6 273/3/6 277/3/6
f 274/3/6 275/3/6 278/3/6
f 278/3/6 275/3/6 279/3/6
f 276/3/6 260/3/6 280/3/6
f 255/3/6 267/3/6 281/3/6
f 279/3/6 280/3/6 281/3/6
f 278/3/6 279/3/6 281/3/6
f 267/3/6 277/3/6 281/3/6
f 277/3/6 278/3/6 281/3/6
f 281/3/6 280/3/6 282/3/6
f 282/3/6 280/3/6 284/3/6
f 284/3/6 280/3/6 285/3/6
f 283/3/6 284/3/6 285/3/6
f 285/3/6 280/3/6 286/3/6
f 283/3/6 285/3/6 287/3/6
f 286/3/6 280/3/6 288/3/6
f 280/3/6 260/3/6 289/3/6
f 287/3/6 288/3/6 289/3/6
f 288/3/6 280/3/6 289/3/6
f 260/3/6 256/3/6 290/3/6
f 289/3/6 260/3/6 290/3/6
f 287/3/6 289/3/6 291/3/6
f 290/3/6 256/3/6 292/3/6
f 287/3/6 291/3/6 293/3/6
f 291/3/6 292/3/6 293/3/6
f 283/3/6 287/3/6 293/3/6
f 293/3/6 292/3/6 294/3/6
f 283/3/6 293/3/6 295/3/6
f 294/3/6 292/3/6 296/3/6
f 251/1/6 253/1/6 297/1/6
f 297/1/6 253/1/6 298/1/6
f 295/3/6 296/3/6 299/3/6
f 283/3/6 295/3/6 299/3/6
f 292/3/6 256/3/6 300/3/6
f 299/3/6 296/3/6 300/3/6
f 296/3/6 292/3/6 300/3/6
f 254/1/6 252/1/6 301/1/6
f 301/1/6 252/1/6 302/1/6
f 303/1/6 304/1/6 305/1/6
f 305/1/6 304/1/6 306/1/6
f 307/3/6 308/3/6 309/3/6
f 309/3/6 308/3/6 310/3/6
f 311/3/6 312/3/6 313/3/6
f 313/3/6 312/3/6 314/3/6
f 315/3/6 316/3/6 317/3/6
f 317/3/6 316/3/6 318/3/6
f 303/1/6 305/1/6 319/1/6
f 303/1/6 319/1/6 320/1/6
f 321/3/6 322/3/6 323/3/6
f 323/3/6 322/3/6 324/3/6
f 325/3/6 326/3/6 327/3/6
f 327/3/6 326/3/6 328/3/6
f 303/1/6 320/1/6 329/1/6
f 329/1/6 320/1/6 330/1/6
f 306/1/6 304/1/6 331/1/6
f 331/1/6 304/1/6 332/1/6
f 333/3/6 334/3/6 337/3/6
f 337/3/6 334/3/6 338/3/6
f 335/3/6 336/3/6 339/3/6
f 339/3/6 336/3/6 340/3/6
f 341/3/6 342/3/6 343/3/6
f 343/3/6 342/3/6 344/3/6
f 345/3/6 346/3/6 347/3/6
f 347/3/6 346/3/6 348/3/6
f 349/3/6 350/3/6 351/3/6
f 351/3/6 350/3/6 352/3/6
