# MagicaVoxel @ ephtracy

# material
mtllib Candle.mtl
usemtl palette

# normals
vn -1 0 0
vn 1 0 0
vn 0 0 1
vn 0 0 -1
vn 0 -1 0
vn 0 1 0

# texcoords
vt 0.00976563 0.5
vt 0.986328 0.5
vt 0.994141 0.5

# verts
v -8 0 -8
v -8 0 -10
v -8 1 -8
v -8 1 -10
v -7 0 -6
v -7 0 -8
v -7 0 -10
v -7 0 -12
v -7 1 -6
v -7 1 -7
v -7 1 -8
v -7 1 -9
v -7 1 -10
v -7 1 -12
v -7 2 -7
v -7 2 -9
v -6 0 -12
v -6 0 -13
v -6 1 -9
v -6 1 -12
v -6 1 -13
v -6 2 -8
v -6 2 -9
v -6 2 -11
v -6 2 -12
v -6 8 -8
v -6 8 -11
v -5 0 -6
v -5 0 -7
v -5 1 -6
v -5 1 -7
v -5 8 -9
v -5 8 -10
v -5 9 -9
v -5 9 -10
v -5 10 -9
v -5 10 -10
v -6 0 -6
v -6 0 -7
v -6 1 -6
v -6 1 -7
v -5 1 -7
v -5 1 -8
v -5 2 -7
v -5 2 -8
v -4 0 -6
v -4 0 -7
v -4 0 -12
v -4 0 -13
v -4 1 -6
v -4 1 -7
v -4 1 -11
v -4 1 -12
v -4 1 -13
v -4 2 -11
v -4 2 -12
v -4 8 -9
v -4 8 -10
v -4 9 -9
v -4 9 -10
v -4 10 -9
v -4 10 -10
v -3 0 -7
v -3 0 -8
v -3 1 -7
v -3 1 -8
v -3 1 -9
v -3 2 -9
v -3 2 -11
v -3 8 -8
v -3 8 -11
v -2 0 -8
v -2 0 -9
v -2 0 -11
v -2 0 -12
v -2 1 -8
v -2 1 -9
v -2 1 -11
v -2 1 -12
v -2 2 -9
v -2 2 -11
v -1 0 -9
v -1 0 -11
v -1 1 -9
v -1 1 -11
v -7 0 -6
v -7 1 -6
v -6 0 -6
v -6 1 -6
v -5 0 -6
v -5 1 -6
v -4 0 -6
v -4 1 -6
v -7 1 -7
v -7 2 -7
v -6 0 -7
v -6 1 -7
v -5 0 -7
v -5 1 -7
v -5 2 -7
v -4 0 -7
v -4 1 -7
v -3 0 -7
v -3 1 -7
v -8 0 -8
v -8 1 -8
v -7 0 -8
v -7 1 -8
v -6 2 -8
v -6 8 -8
v -5 1 -8
v -5 2 -8
v -3 0 -8
v -3 1 -8
v -3 8 -8
v -2 0 -8
v -2 1 -8
v -5 8 -9
v -5 9 -9
v -5 10 -9
v -4 8 -9
v -4 9 -9
v -4 10 -9
v -3 1 -9
v -3 2 -9
v -2 0 -9
v -2 1 -9
v -2 2 -9
v -1 0 -9
v -1 1 -9
v -7 1 -9
v -7 2 -9
v -6 1 -9
v -6 2 -9
v -8 0 -10
v -8 1 -10
v -7 0 -10
v -7 1 -10
v -5 8 -10
v -5 9 -10
v -5 10 -10
v -4 8 -10
v -4 9 -10
v -4 10 -10
v -6 2 -11
v -6 8 -11
v -4 1 -11
v -4 2 -11
v -3 2 -11
v -3 8 -11
v -2 0 -11
v -2 1 -11
v -2 2 -11
v -1 0 -11
v -1 1 -11
v -7 0 -12
v -7 1 -12
v -6 0 -12
v -6 1 -12
v -6 2 -12
v -4 0 -12
v -4 1 -12
v -4 2 -12
v -2 0 -12
v -2 1 -12
v -6 0 -13
v -6 1 -13
v -4 0 -13
v -4 1 -13
v -7 0 -6
v -6 0 -6
v -5 0 -6
v -4 0 -6
v -6 0 -7
v -5 0 -7
v -4 0 -7
v -3 0 -7
v -8 0 -8
v -7 0 -8
v -3 0 -8
v -2 0 -8
v -2 0 -9
v -1 0 -9
v -8 0 -10
v -7 0 -10
v -2 0 -11
v -1 0 -11
v -7 0 -12
v -6 0 -12
v -4 0 -12
v -2 0 -12
v -6 0 -13
v -4 0 -13
v -7 1 -6
v -6 1 -6
v -5 1 -6
v -4 1 -6
v -7 1 -7
v -6 1 -7
v -5 1 -7
v -4 1 -7
v -3 1 -7
v -8 1 -8
v -7 1 -8
v -5 1 -8
v -3 1 -8
v -2 1 -8
v -7 1 -9
v -6 1 -9
v -3 1 -9
v -2 1 -9
v -1 1 -9
v -8 1 -10
v -7 1 -10
v -4 1 -11
v -2 1 -11
v -1 1 -11
v -7 1 -12
v -6 1 -12
v -4 1 -12
v -2 1 -12
v -6 1 -13
v -4 1 -13
v -7 2 -7
v -5 2 -7
v -6 2 -8
v -5 2 -8
v -7 2 -9
v -6 2 -9
v -3 2 -9
v -2 2 -9
v -6 2 -11
v -4 2 -11
v -3 2 -11
v -2 2 -11
v -6 2 -12
v -4 2 -12
v -6 8 -8
v -3 8 -8
v -5 8 -9
v -4 8 -9
v -5 8 -10
v -4 8 -10
v -6 8 -11
v -3 8 -11
v -5 10 -9
v -4 10 -9
v -5 10 -10
v -4 10 -10

# faces
f 3/1/1 2/1/1 1/1/1
f 4/1/1 2/1/1 3/1/1
f 9/1/1 6/1/1 5/1/1
f 10/1/1 6/1/1 9/1/1
f 11/1/1 6/1/1 10/1/1
f 13/1/1 8/1/1 7/1/1
f 14/1/1 8/1/1 13/1/1
f 15/1/1 12/1/1 11/1/1
f 15/1/1 11/1/1 10/1/1
f 16/1/1 12/1/1 15/1/1
f 20/1/1 18/1/1 17/1/1
f 21/1/1 18/1/1 20/1/1
f 23/1/1 20/1/1 19/1/1
f 24/1/1 20/1/1 23/1/1
f 25/1/1 20/1/1 24/1/1
f 26/1/1 23/1/1 22/1/1
f 26/1/1 24/1/1 23/1/1
f 27/1/1 24/1/1 26/1/1
f 30/1/1 29/1/1 28/1/1
f 31/1/1 29/1/1 30/1/1
f 34/3/1 33/3/1 32/3/1
f 35/3/1 33/3/1 34/3/1
f 36/2/1 35/2/1 34/2/1
f 37/2/1 35/2/1 36/2/1
f 38/1/2 39/1/2 40/1/2
f 40/1/2 39/1/2 41/1/2
f 42/1/2 43/1/2 44/1/2
f 44/1/2 43/1/2 45/1/2
f 46/1/2 47/1/2 50/1/2
f 50/1/2 47/1/2 51/1/2
f 48/1/2 49/1/2 53/1/2
f 53/1/2 49/1/2 54/1/2
f 52/1/2 53/1/2 55/1/2
f 55/1/2 53/1/2 56/1/2
f 57/3/2 58/3/2 59/3/2
f 59/3/2 58/3/2 60/3/2
f 59/2/2 60/2/2 61/2/2
f 61/2/2 60/2/2 62/2/2
f 63/1/2 64/1/2 65/1/2
f 65/1/2 64/1/2 66/1/2
f 66/1/2 67/1/2 68/1/2
f 66/1/2 68/1/2 70/1/2
f 68/1/2 69/1/2 70/1/2
f 70/1/2 69/1/2 71/1/2
f 72/1/2 73/1/2 76/1/2
f 76/1/2 73/1/2 77/1/2
f 74/1/2 75/1/2 78/1/2
f 78/1/2 75/1/2 79/1/2
f 77/1/2 78/1/2 80/1/2
f 80/1/2 78/1/2 81/1/2
f 82/1/2 83/1/2 84/1/2
f 84/1/2 83/1/2 85/1/2
f 88/1/3 87/1/3 86/1/3
f 89/1/3 87/1/3 88/1/3
f 92/1/3 91/1/3 90/1/3
f 93/1/3 91/1/3 92/1/3
f 97/1/3 95/1/3 94/1/3
f 98/1/3 97/1/3 96/1/3
f 99/1/3 95/1/3 97/1/3
f 99/1/3 97/1/3 98/1/3
f 100/1/3 95/1/3 99/1/3
f 103/1/3 102/1/3 101/1/3
f 104/1/3 102/1/3 103/1/3
f 107/1/3 106/1/3 105/1/3
f 108/1/3 106/1/3 107/1/3
f 112/1/3 110/1/3 109/1/3
f 114/1/3 112/1/3 111/1/3
f 115/1/3 110/1/3 112/1/3
f 115/1/3 112/1/3 114/1/3
f 116/1/3 114/1/3 113/1/3
f 117/1/3 114/1/3 116/1/3
f 121/3/3 119/3/3 118/3/3
f 122/2/3 120/2/3 119/2/3
f 122/3/3 119/3/3 121/3/3
f 123/2/3 120/2/3 122/2/3
f 127/1/3 125/1/3 124/1/3
f 128/1/3 125/1/3 127/1/3
f 129/1/3 127/1/3 126/1/3
f 130/1/3 127/1/3 129/1/3
f 131/1/4 132/1/4 133/1/4
f 133/1/4 132/1/4 134/1/4
f 135/1/4 136/1/4 137/1/4
f 137/1/4 136/1/4 138/1/4
f 139/3/4 140/3/4 142/3/4
f 140/2/4 141/2/4 143/2/4
f 142/3/4 140/3/4 143/3/4
f 143/2/4 141/2/4 144/2/4
f 145/1/4 146/1/4 148/1/4
f 148/1/4 146/1/4 149/1/4
f 147/1/4 148/1/4 149/1/4
f 149/1/4 146/1/4 150/1/4
f 147/1/4 149/1/4 152/1/4
f 152/1/4 149/1/4 153/1/4
f 151/1/4 152/1/4 154/1/4
f 154/1/4 152/1/4 155/1/4
f 156/1/4 157/1/4 158/1/4
f 158/1/4 157/1/4 159/1/4
f 159/1/4 160/1/4 162/1/4
f 162/1/4 160/1/4 163/1/4
f 161/1/4 162/1/4 164/1/4
f 164/1/4 162/1/4 165/1/4
f 166/1/4 167/1/4 168/1/4
f 168/1/4 167/1/4 169/1/4
f 174/1/5 171/1/5 170/1/5
f 175/1/5 173/1/5 172/1/5
f 176/1/5 173/1/5 175/1/5
f 179/1/5 174/1/5 170/1/5
f 179/1/5 177/1/5 176/1/5
f 179/1/5 176/1/5 175/1/5
f 179/1/5 175/1/5 174/1/5
f 180/1/5 177/1/5 179/1/5
f 182/1/5 179/1/5 178/1/5
f 182/1/5 181/1/5 180/1/5
f 182/1/5 180/1/5 179/1/5
f 184/1/5 182/1/5 178/1/5
f 184/1/5 183/1/5 182/1/5
f 185/1/5 183/1/5 184/1/5
f 186/1/5 183/1/5 185/1/5
f 187/1/5 183/1/5 186/1/5
f 188/1/5 186/1/5 185/1/5
f 189/1/5 186/1/5 188/1/5
f 190/1/5 186/1/5 189/1/5
f 191/1/5 186/1/5 190/1/5
f 192/1/5 190/1/5 189/1/5
f 193/1/5 190/1/5 192/1/5
f 194/1/6 195/1/6 198/1/6
f 198/1/6 195/1/6 199/1/6
f 196/1/6 197/1/6 200/1/6
f 200/1/6 197/1/6 201/1/6
f 201/1/6 202/1/6 205/1/6
f 200/1/6 201/1/6 205/1/6
f 205/1/6 202/1/6 206/1/6
f 203/1/6 204/1/6 208/1/6
f 206/1/6 207/1/6 210/1/6
f 210/1/6 207/1/6 211/1/6
f 208/1/6 209/1/6 213/1/6
f 203/1/6 208/1/6 213/1/6
f 213/1/6 209/1/6 214/1/6
f 211/1/6 212/1/6 216/1/6
f 216/1/6 212/1/6 217/1/6
f 214/1/6 209/1/6 218/1/6
f 218/1/6 209/1/6 219/1/6
f 215/1/6 216/1/6 220/1/6
f 220/1/6 216/1/6 221/1/6
f 219/1/6 220/1/6 222/1/6
f 222/1/6 220/1/6 223/1/6
f 224/1/6 225/1/6 226/1/6
f 226/1/6 225/1/6 227/1/6
f 224/1/6 226/1/6 228/1/6
f 228/1/6 226/1/6 229/1/6
f 230/1/6 231/1/6 234/1/6
f 234/1/6 231/1/6 235/1/6
f 232/1/6 233/1/6 236/1/6
f 236/1/6 233/1/6 237/1/6
f 238/1/6 239/1/6 240/1/6
f 240/1/6 239/1/6 241/1/6
f 238/1/6 240/1/6 242/1/6
f 241/1/6 239/1/6 243/1/6
f 238/1/6 242/1/6 244/1/6
f 242/1/6 243/1/6 244/1/6
f 243/1/6 239/1/6 245/1/6
f 244/1/6 243/1/6 245/1/6
f 246/2/6 247/2/6 248/2/6
f 248/2/6 247/2/6 249/2/6
