# MagicaVoxel @ ephtracy

# material
mtllib Middle Street.mtl
usemtl palette

# normals
vn -1 0 0
vn 1 0 0
vn 0 0 1
vn 0 0 -1
vn 0 -1 0
vn 0 1 0

# texcoords
vt 0.0878906 0.5
vt 0.970703 0.5
vt 0.994141 0.5

# verts
v -63 0 63
v -63 0 -63
v -63 1 63
v -63 1 -63
v -20 1 63
v -20 1 -63
v -20 4 63
v -20 4 -63
v -19 4 63
v -19 4 -63
v -19 5 63
v -19 5 -63
v -16 5 45
v -16 5 44
v -16 5 4
v -16 5 3
v -16 6 45
v -16 6 44
v -16 6 4
v -16 6 3
v -14 4 -42
v -14 4 -43
v -14 5 -42
v -14 5 -43
v -12 4 -56
v -12 4 -57
v -12 7 -56
v -12 7 -57
v -9 4 -18
v -9 4 -19
v -9 7 -18
v -9 7 -19
v -8 4 17
v -8 4 16
v -8 4 -19
v -8 4 -20
v -8 5 17
v -8 5 16
v -8 5 -19
v -8 5 -20
v -7 4 -15
v -7 4 -16
v -7 5 -15
v -7 5 -16
v -6 4 56
v -6 4 55
v -6 7 56
v -6 7 55
v -5 4 -34
v -5 4 -35
v -5 5 -34
v -5 5 -35
v -3 4 56
v -3 4 55
v -3 4 43
v -3 4 42
v -3 5 56
v -3 5 55
v -3 7 43
v -3 7 42
v -2 4 62
v -2 4 61
v -2 5 62
v -2 5 61
v 0 4 11
v 0 4 10
v 0 5 11
v 0 5 10
v 3 4 41
v 3 4 40
v 3 4 -58
v 3 4 -59
v 3 5 41
v 3 5 40
v 3 5 -58
v 3 5 -59
v 4 4 -17
v 4 4 -18
v 4 5 -17
v 4 5 -18
v 5 4 22
v 5 4 21
v 5 4 -40
v 5 4 -41
v 5 5 22
v 5 5 21
v 5 5 -40
v 5 5 -41
v 6 4 53
v 6 4 52
v 6 5 53
v 6 5 52
v 6 5 22
v 6 5 21
v 6 6 22
v 6 6 21
v 7 4 -28
v 7 4 -29
v 7 5 -28
v 7 5 -29
v 8 4 18
v 8 4 17
v 8 5 18
v 8 5 17
v 12 4 -3
v 12 4 -4
v 12 4 -56
v 12 4 -57
v 12 5 -3
v 12 5 -4
v 12 5 -56
v 12 5 -57
v 13 4 55
v 13 4 54
v 13 4 29
v 13 4 28
v 13 5 55
v 13 5 54
v 13 5 29
v 13 5 28
v 15 4 63
v 15 4 -63
v 15 5 63
v 15 5 -63
v -16 4 63
v -16 4 45
v -16 4 44
v -16 4 4
v -16 4 3
v -16 4 -63
v -16 5 63
v -16 5 45
v -16 5 44
v -16 5 4
v -16 5 3
v -16 5 -63
v -15 4 45
v -15 4 44
v -15 4 4
v -15 4 3
v -15 6 45
v -15 6 44
v -15 6 4
v -15 6 3
v -13 4 -42
v -13 4 -43
v -13 5 -42
v -13 5 -43
v -11 4 -56
v -11 4 -57
v -11 7 -56
v -11 7 -57
v -8 4 -18
v -8 4 -19
v -8 5 -19
v -8 7 -18
v -8 7 -19
v -7 4 17
v -7 4 16
v -7 4 -19
v -7 4 -20
v -7 5 17
v -7 5 16
v -7 5 -19
v -7 5 -20
v -6 4 -15
v -6 4 -16
v -6 5 -15
v -6 5 -16
v -5 4 56
v -5 4 55
v -5 7 56
v -5 7 55
v -4 4 -34
v -4 4 -35
v -4 5 -34
v -4 5 -35
v -2 4 56
v -2 4 55
v -2 4 43
v -2 4 42
v -2 5 56
v -2 5 55
v -2 7 43
v -2 7 42
v -1 4 62
v -1 4 61
v -1 5 62
v -1 5 61
v 1 4 11
v 1 4 10
v 1 5 11
v 1 5 10
v 4 4 41
v 4 4 40
v 4 4 -58
v 4 4 -59
v 4 5 41
v 4 5 40
v 4 5 -58
v 4 5 -59
v 5 4 -17
v 5 4 -18
v 5 5 -17
v 5 5 -18
v 6 4 -40
v 6 4 -41
v 6 5 -40
v 6 5 -41
v 7 4 53
v 7 4 52
v 7 4 22
v 7 4 21
v 7 5 53
v 7 5 52
v 7 6 22
v 7 6 21
v 8 4 -28
v 8 4 -29
v 8 5 -28
v 8 5 -29
v 9 4 18
v 9 4 17
v 9 5 18
v 9 5 17
v 13 4 -3
v 13 4 -4
v 13 4 -56
v 13 4 -57
v 13 5 -3
v 13 5 -4
v 13 5 -56
v 13 5 -57
v 14 4 55
v 14 4 54
v 14 4 29
v 14 4 28
v 14 5 55
v 14 5 54
v 14 5 29
v 14 5 28
v 18 4 63
v 18 4 -63
v 18 5 63
v 18 5 -63
v 19 1 63
v 19 1 -63
v 19 4 63
v 19 4 -63
v 63 0 63
v 63 0 -63
v 63 1 63
v 63 1 -63
v -63 0 63
v -63 1 63
v -20 1 63
v -20 4 63
v -19 4 63
v -19 5 63
v -16 3 63
v -16 4 63
v -16 5 63
v 15 3 63
v 15 4 63
v 15 5 63
v 18 4 63
v 18 5 63
v 19 1 63
v 19 4 63
v 63 0 63
v 63 1 63
v -2 4 62
v -2 5 62
v -1 4 62
v -1 5 62
v -6 4 56
v -6 7 56
v -5 4 56
v -5 7 56
v -3 4 56
v -3 5 56
v -2 4 56
v -2 5 56
v 13 4 55
v 13 5 55
v 14 4 55
v 14 5 55
v 6 4 53
v 6 5 53
v 7 4 53
v 7 5 53
v -16 4 45
v -16 5 45
v -16 6 45
v -15 4 45
v -15 6 45
v -3 4 43
v -3 7 43
v -2 4 43
v -2 7 43
v 3 4 41
v 3 5 41
v 4 4 41
v 4 5 41
v 13 4 29
v 13 5 29
v 14 4 29
v 14 5 29
v 5 4 22
v 5 5 22
v 6 5 22
v 6 6 22
v 7 4 22
v 7 6 22
v 8 4 18
v 8 5 18
v 9 4 18
v 9 5 18
v -8 4 17
v -8 5 17
v -7 4 17
v -7 5 17
v 0 4 11
v 0 5 11
v 1 4 11
v 1 5 11
v -16 4 4
v -16 5 4
v -16 6 4
v -15 4 4
v -15 6 4
v 12 4 -3
v 12 5 -3
v 13 4 -3
v 13 5 -3
v -7 4 -15
v -7 5 -15
v -6 4 -15
v -6 5 -15
v 4 4 -17
v 4 5 -17
v 5 4 -17
v 5 5 -17
v -9 4 -18
v -9 7 -18
v -8 4 -18
v -8 7 -18
v -8 4 -19
v -8 5 -19
v -7 4 -19
v -7 5 -19
v 7 4 -28
v 7 5 -28
v 8 4 -28
v 8 5 -28
v -5 4 -34
v -5 5 -34
v -4 4 -34
v -4 5 -34
v 5 4 -40
v 5 5 -40
v 6 4 -40
v 6 5 -40
v -14 4 -42
v -14 5 -42
v -13 4 -42
v -13 5 -42
v -12 4 -56
v -12 7 -56
v -11 4 -56
v -11 7 -56
v 12 4 -56
v 12 5 -56
v 13 4 -56
v 13 5 -56
v 3 4 -58
v 3 5 -58
v 4 4 -58
v 4 5 -58
v -2 4 61
v -2 5 61
v -1 4 61
v -1 5 61
v -6 4 55
v -6 7 55
v -5 4 55
v -5 7 55
v -3 4 55
v -3 5 55
v -2 4 55
v -2 5 55
v 13 4 54
v 13 5 54
v 14 4 54
v 14 5 54
v 6 4 52
v 6 5 52
v 7 4 52
v 7 5 52
v -16 4 44
v -16 5 44
v -16 6 44
v -15 4 44
v -15 6 44
v -3 4 42
v -3 7 42
v -2 4 42
v -2 7 42
v 3 4 40
v 3 5 40
v 4 4 40
v 4 5 40
v 13 4 28
v 13 5 28
v 14 4 28
v 14 5 28
v 5 4 21
v 5 5 21
v 6 5 21
v 6 6 21
v 7 4 21
v 7 6 21
v 8 4 17
v 8 5 17
v 9 4 17
v 9 5 17
v -8 4 16
v -8 5 16
v -7 4 16
v -7 5 16
v 0 4 10
v 0 5 10
v 1 4 10
v 1 5 10
v -16 4 3
v -16 5 3
v -16 6 3
v -15 4 3
v -15 6 3
v 12 4 -4
v 12 5 -4
v 13 4 -4
v 13 5 -4
v -7 4 -16
v -7 5 -16
v -6 4 -16
v -6 5 -16
v 4 4 -18
v 4 5 -18
v 5 4 -18
v 5 5 -18
v -9 4 -19
v -9 7 -19
v -8 4 -19
v -8 5 -19
v -8 7 -19
v -8 4 -20
v -8 5 -20
v -7 4 -20
v -7 5 -20
v 7 4 -29
v 7 5 -29
v 8 4 -29
v 8 5 -29
v -5 4 -35
v -5 5 -35
v -4 4 -35
v -4 5 -35
v 5 4 -41
v 5 5 -41
v 6 4 -41
v 6 5 -41
v -14 4 -43
v -14 5 -43
v -13 4 -43
v -13 5 -43
v -12 4 -57
v -12 7 -57
v -11 4 -57
v -11 7 -57
v 12 4 -57
v 12 5 -57
v 13 4 -57
v 13 5 -57
v 3 4 -59
v 3 5 -59
v 4 4 -59
v 4 5 -59
v -63 0 -63
v -63 1 -63
v -20 1 -63
v -20 4 -63
v -19 4 -63
v -19 5 -63
v -16 3 -63
v -16 4 -63
v -16 5 -63
v 15 3 -63
v 15 4 -63
v 15 5 -63
v 18 4 -63
v 18 5 -63
v 19 1 -63
v 19 4 -63
v 63 0 -63
v 63 1 -63
v -63 0 63
v 63 0 63
v -20 0 62
v 19 0 62
v -20 0 -62
v 19 0 -62
v -63 0 -63
v 63 0 -63
v -63 1 63
v -20 1 63
v 19 1 63
v 63 1 63
v -63 1 -63
v -20 1 -63
v 19 1 -63
v 63 1 -63
v -20 4 63
v -19 4 63
v -16 4 63
v 15 4 63
v 18 4 63
v 19 4 63
v -2 4 62
v -1 4 62
v -2 4 61
v -1 4 61
v -6 4 56
v -5 4 56
v -3 4 56
v -2 4 56
v -6 4 55
v -5 4 55
v -3 4 55
v -2 4 55
v 13 4 55
v 14 4 55
v 13 4 54
v 14 4 54
v 6 4 53
v 7 4 53
v 6 4 52
v 7 4 52
v -16 4 45
v -15 4 45
v -16 4 44
v -15 4 44
v -3 4 43
v -2 4 43
v -3 4 42
v -2 4 42
v 3 4 41
v 4 4 41
v 3 4 40
v 4 4 40
v 13 4 29
v 14 4 29
v 13 4 28
v 14 4 28
v 5 4 22
v 7 4 22
v 5 4 21
v 7 4 21
v 8 4 18
v 9 4 18
v -8 4 17
v -7 4 17
v 8 4 17
v 9 4 17
v -8 4 16
v -7 4 16
v 0 4 11
v 1 4 11
v 0 4 10
v 1 4 10
v -16 4 4
v -15 4 4
v -16 4 3
v -15 4 3
v 12 4 -3
v 13 4 -3
v 12 4 -4
v 13 4 -4
v -7 4 -15
v -6 4 -15
v -7 4 -16
v -6 4 -16
v 4 4 -17
v 5 4 -17
v -9 4 -18
v -8 4 -18
v 4 4 -18
v 5 4 -18
v -9 4 -19
v -8 4 -19
v -7 4 -19
v -8 4 -20
v -7 4 -20
v 7 4 -28
v 8 4 -28
v 7 4 -29
v 8 4 -29
v -5 4 -34
v -4 4 -34
v -5 4 -35
v -4 4 -35
v 5 4 -40
v 6 4 -40
v 5 4 -41
v 6 4 -41
v -14 4 -42
v -13 4 -42
v -14 4 -43
v -13 4 -43
v -12 4 -56
v -11 4 -56
v 12 4 -56
v 13 4 -56
v -12 4 -57
v -11 4 -57
v 12 4 -57
v 13 4 -57
v 3 4 -58
v 4 4 -58
v 3 4 -59
v 4 4 -59
v -20 4 -63
v -19 4 -63
v -16 4 -63
v 15 4 -63
v 18 4 -63
v 19 4 -63
v -19 5 63
v -16 5 63
v 15 5 63
v 18 5 63
v -2 5 62
v -1 5 62
v -2 5 61
v -1 5 61
v -3 5 56
v -2 5 56
v -3 5 55
v -2 5 55
v 13 5 55
v 14 5 55
v 13 5 54
v 14 5 54
v 6 5 53
v 7 5 53
v 6 5 52
v 7 5 52
v -16 5 45
v -16 5 44
v 3 5 41
v 4 5 41
v 3 5 40
v 4 5 40
v 13 5 29
v 14 5 29
v 13 5 28
v 14 5 28
v 5 5 22
v 6 5 22
v 5 5 21
v 6 5 21
v 8 5 18
v 9 5 18
v -8 5 17
v -7 5 17
v 8 5 17
v 9 5 17
v -8 5 16
v -7 5 16
v 0 5 11
v 1 5 11
v 0 5 10
v 1 5 10
v -16 5 4
v -16 5 3
v 12 5 -3
v 13 5 -3
v 12 5 -4
v 13 5 -4
v -7 5 -15
v -6 5 -15
v -7 5 -16
v -6 5 -16
v 4 5 -17
v 5 5 -17
v 4 5 -18
v 5 5 -18
v -8 5 -19
v -7 5 -19
v -8 5 -20
v -7 5 -20
v 7 5 -28
v 8 5 -28
v 7 5 -29
v 8 5 -29
v -5 5 -34
v -4 5 -34
v -5 5 -35
v -4 5 -35
v 5 5 -40
v 6 5 -40
v 5 5 -41
v 6 5 -41
v -14 5 -42
v -13 5 -42
v -14 5 -43
v -13 5 -43
v 12 5 -56
v 13 5 -56
v 12 5 -57
v 13 5 -57
v 3 5 -58
v 4 5 -58
v 3 5 -59
v 4 5 -59
v -19 5 -63
v -16 5 -63
v 15 5 -63
v 18 5 -63
v -16 6 45
v -15 6 45
v -16 6 44
v -15 6 44
v 6 6 22
v 7 6 22
v 6 6 21
v 7 6 21
v -16 6 4
v -15 6 4
v -16 6 3
v -15 6 3
v -6 7 56
v -5 7 56
v -6 7 55
v -5 7 55
v -3 7 43
v -2 7 43
v -3 7 42
v -2 7 42
v -9 7 -18
v -8 7 -18
v -9 7 -19
v -8 7 -19
v -12 7 -56
v -11 7 -56
v -12 7 -57
v -11 7 -57

# faces
f 3/1/1 2/1/1 1/1/1
f 4/1/1 2/1/1 3/1/1
f 7/1/1 6/1/1 5/1/1
f 8/1/1 6/1/1 7/1/1
f 11/1/1 10/1/1 9/1/1
f 12/1/1 10/1/1 11/1/1
f 17/3/1 14/3/1 13/3/1
f 18/3/1 14/3/1 17/3/1
f 19/3/1 16/3/1 15/3/1
f 20/3/1 16/3/1 19/3/1
f 23/3/1 22/3/1 21/3/1
f 24/3/1 22/3/1 23/3/1
f 27/3/1 26/3/1 25/3/1
f 28/3/1 26/3/1 27/3/1
f 31/3/1 30/3/1 29/3/1
f 32/3/1 30/3/1 31/3/1
f 37/3/1 34/3/1 33/3/1
f 38/3/1 34/3/1 37/3/1
f 39/3/1 36/3/1 35/3/1
f 40/3/1 36/3/1 39/3/1
f 43/3/1 42/3/1 41/3/1
f 44/3/1 42/3/1 43/3/1
f 47/3/1 46/3/1 45/3/1
f 48/3/1 46/3/1 47/3/1
f 51/3/1 50/3/1 49/3/1
f 52/3/1 50/3/1 51/3/1
f 57/3/1 54/3/1 53/3/1
f 58/3/1 54/3/1 57/3/1
f 59/3/1 56/3/1 55/3/1
f 60/3/1 56/3/1 59/3/1
f 63/3/1 62/3/1 61/3/1
f 64/3/1 62/3/1 63/3/1
f 67/3/1 66/3/1 65/3/1
f 68/3/1 66/3/1 67/3/1
f 73/3/1 70/3/1 69/3/1
f 74/3/1 70/3/1 73/3/1
f 75/3/1 72/3/1 71/3/1
f 76/3/1 72/3/1 75/3/1
f 79/3/1 78/3/1 77/3/1
f 80/3/1 78/3/1 79/3/1
f 85/3/1 82/3/1 81/3/1
f 86/3/1 82/3/1 85/3/1
f 87/3/1 84/3/1 83/3/1
f 88/3/1 84/3/1 87/3/1
f 91/3/1 90/3/1 89/3/1
f 92/3/1 90/3/1 91/3/1
f 95/3/1 94/3/1 93/3/1
f 96/3/1 94/3/1 95/3/1
f 99/3/1 98/3/1 97/3/1
f 100/3/1 98/3/1 99/3/1
f 103/3/1 102/3/1 101/3/1
f 104/3/1 102/3/1 103/3/1
f 109/3/1 106/3/1 105/3/1
f 110/3/1 106/3/1 109/3/1
f 111/3/1 108/3/1 107/3/1
f 112/3/1 108/3/1 111/3/1
f 117/3/1 114/3/1 113/3/1
f 118/3/1 114/3/1 117/3/1
f 119/3/1 116/3/1 115/3/1
f 120/3/1 116/3/1 119/3/1
f 123/1/1 122/1/1 121/1/1
f 124/1/1 122/1/1 123/1/1
f 125/1/2 126/1/2 131/1/2
f 131/1/2 126/1/2 132/1/2
f 127/1/2 128/1/2 133/1/2
f 133/1/2 128/1/2 134/1/2
f 129/1/2 130/1/2 135/1/2
f 135/1/2 130/1/2 136/1/2
f 137/3/2 138/3/2 141/3/2
f 141/3/2 138/3/2 142/3/2
f 139/3/2 140/3/2 143/3/2
f 143/3/2 140/3/2 144/3/2
f 145/3/2 146/3/2 147/3/2
f 147/3/2 146/3/2 148/3/2
f 149/3/2 150/3/2 151/3/2
f 151/3/2 150/3/2 152/3/2
f 153/3/2 154/3/2 155/3/2
f 153/3/2 155/3/2 156/3/2
f 156/3/2 155/3/2 157/3/2
f 158/3/2 159/3/2 162/3/2
f 162/3/2 159/3/2 163/3/2
f 160/3/2 161/3/2 164/3/2
f 164/3/2 161/3/2 165/3/2
f 166/3/2 167/3/2 168/3/2
f 168/3/2 167/3/2 169/3/2
f 170/3/2 171/3/2 172/3/2
f 172/3/2 171/3/2 173/3/2
f 174/3/2 175/3/2 176/3/2
f 176/3/2 175/3/2 177/3/2
f 178/3/2 179/3/2 182/3/2
f 182/3/2 179/3/2 183/3/2
f 180/3/2 181/3/2 184/3/2
f 184/3/2 181/3/2 185/3/2
f 186/3/2 187/3/2 188/3/2
f 188/3/2 187/3/2 189/3/2
f 190/3/2 191/3/2 192/3/2
f 192/3/2 191/3/2 193/3/2
f 194/3/2 195/3/2 198/3/2
f 198/3/2 195/3/2 199/3/2
f 196/3/2 197/3/2 200/3/2
f 200/3/2 197/3/2 201/3/2
f 202/3/2 203/3/2 204/3/2
f 204/3/2 203/3/2 205/3/2
f 206/3/2 207/3/2 208/3/2
f 208/3/2 207/3/2 209/3/2
f 210/3/2 211/3/2 214/3/2
f 214/3/2 211/3/2 215/3/2
f 212/3/2 213/3/2 216/3/2
f 216/3/2 213/3/2 217/3/2
f 218/3/2 219/3/2 220/3/2
f 220/3/2 219/3/2 221/3/2
f 222/3/2 223/3/2 224/3/2
f 224/3/2 223/3/2 225/3/2
f 226/3/2 227/3/2 230/3/2
f 230/3/2 227/3/2 231/3/2
f 228/3/2 229/3/2 232/3/2
f 232/3/2 229/3/2 233/3/2
f 234/3/2 235/3/2 238/3/2
f 238/3/2 235/3/2 239/3/2
f 236/3/2 237/3/2 240/3/2
f 240/3/2 237/3/2 241/3/2
f 242/1/2 243/1/2 244/1/2
f 244/1/2 243/1/2 245/1/2
f 246/1/2 247/1/2 248/1/2
f 248/1/2 247/1/2 249/1/2
f 250/1/2 251/1/2 252/1/2
f 252/1/2 251/1/2 253/1/2
f 256/1/3 255/1/3 254/1/3
f 258/1/3 257/1/3 256/1/3
f 260/1/3 258/1/3 256/1/3
f 260/1/3 259/1/3 258/1/3
f 261/1/3 259/1/3 260/1/3
f 262/1/3 259/1/3 261/1/3
f 263/1/3 260/1/3 256/1/3
f 263/3/3 261/3/3 260/3/3
f 264/3/3 261/3/3 263/3/3
f 266/1/3 264/1/3 263/1/3
f 266/1/3 265/1/3 264/1/3
f 267/1/3 265/1/3 266/1/3
f 268/1/3 256/1/3 254/1/3
f 268/1/3 263/1/3 256/1/3
f 268/1/3 266/1/3 263/1/3
f 269/1/3 266/1/3 268/1/3
f 270/1/3 268/1/3 254/1/3
f 271/1/3 268/1/3 270/1/3
f 274/3/3 273/3/3 272/3/3
f 275/3/3 273/3/3 274/3/3
f 278/3/3 277/3/3 276/3/3
f 279/3/3 277/3/3 278/3/3
f 282/3/3 281/3/3 280/3/3
f 283/3/3 281/3/3 282/3/3
f 286/3/3 285/3/3 284/3/3
f 287/3/3 285/3/3 286/3/3
f 290/3/3 289/3/3 288/3/3
f 291/3/3 289/3/3 290/3/3
f 295/3/3 293/3/3 292/3/3
f 295/3/3 294/3/3 293/3/3
f 296/3/3 294/3/3 295/3/3
f 299/3/3 298/3/3 297/3/3
f 300/3/3 298/3/3 299/3/3
f 303/3/3 302/3/3 301/3/3
f 304/3/3 302/3/3 303/3/3
f 307/3/3 306/3/3 305/3/3
f 308/3/3 306/3/3 307/3/3
f 311/3/3 310/3/3 309/3/3
f 313/3/3 311/3/3 309/3/3
f 313/3/3 312/3/3 311/3/3
f 314/3/3 312/3/3 313/3/3
f 317/3/3 316/3/3 315/3/3
f 318/3/3 316/3/3 317/3/3
f 321/3/3 320/3/3 319/3/3
f 322/3/3 320/3/3 321/3/3
f 325/3/3 324/3/3 323/3/3
f 326/3/3 324/3/3 325/3/3
f 330/3/3 328/3/3 327/3/3
f 330/3/3 329/3/3 328/3/3
f 331/3/3 329/3/3 330/3/3
f 334/3/3 333/3/3 332/3/3
f 335/3/3 333/3/3 334/3/3
f 338/3/3 337/3/3 336/3/3
f 339/3/3 337/3/3 338/3/3
f 342/3/3 341/3/3 340/3/3
f 343/3/3 341/3/3 342/3/3
f 346/3/3 345/3/3 344/3/3
f 347/3/3 345/3/3 346/3/3
f 350/3/3 349/3/3 348/3/3
f 351/3/3 349/3/3 350/3/3
f 354/3/3 353/3/3 352/3/3
f 355/3/3 353/3/3 354/3/3
f 358/3/3 357/3/3 356/3/3
f 359/3/3 357/3/3 358/3/3
f 362/3/3 361/3/3 360/3/3
f 363/3/3 361/3/3 362/3/3
f 366/3/3 365/3/3 364/3/3
f 367/3/3 365/3/3 366/3/3
f 370/3/3 369/3/3 368/3/3
f 371/3/3 369/3/3 370/3/3
f 374/3/3 373/3/3 372/3/3
f 375/3/3 373/3/3 374/3/3
f 378/3/3 377/3/3 376/3/3
f 379/3/3 377/3/3 378/3/3
f 380/3/4 381/3/4 382/3/4
f 382/3/4 381/3/4 383/3/4
f 384/3/4 385/3/4 386/3/4
f 386/3/4 385/3/4 387/3/4
f 388/3/4 389/3/4 390/3/4
f 390/3/4 389/3/4 391/3/4
f 392/3/4 393/3/4 394/3/4
f 394/3/4 393/3/4 395/3/4
f 396/3/4 397/3/4 398/3/4
f 398/3/4 397/3/4 399/3/4
f 400/3/4 401/3/4 403/3/4
f 401/3/4 402/3/4 403/3/4
f 403/3/4 402/3/4 404/3/4
f 405/3/4 406/3/4 407/3/4
f 407/3/4 406/3/4 408/3/4
f 409/3/4 410/3/4 411/3/4
f 411/3/4 410/3/4 412/3/4
f 413/3/4 414/3/4 415/3/4
f 415/3/4 414/3/4 416/3/4
f 417/3/4 418/3/4 419/3/4
f 417/3/4 419/3/4 421/3/4
f 419/3/4 420/3/4 421/3/4
f 421/3/4 420/3/4 422/3/4
f 423/3/4 424/3/4 425/3/4
f 425/3/4 424/3/4 426/3/4
f 427/3/4 428/3/4 429/3/4
f 429/3/4 428/3/4 430/3/4
f 431/3/4 432/3/4 433/3/4
f 433/3/4 432/3/4 434/3/4
f 435/3/4 436/3/4 438/3/4
f 436/3/4 437/3/4 438/3/4
f 438/3/4 437/3/4 439/3/4
f 440/3/4 441/3/4 442/3/4
f 442/3/4 441/3/4 443/3/4
f 444/3/4 445/3/4 446/3/4
f 446/3/4 445/3/4 447/3/4
f 448/3/4 449/3/4 450/3/4
f 450/3/4 449/3/4 451/3/4
f 452/3/4 453/3/4 454/3/4
f 454/3/4 453/3/4 455/3/4
f 455/3/4 453/3/4 456/3/4
f 457/3/4 458/3/4 459/3/4
f 459/3/4 458/3/4 460/3/4
f 461/3/4 462/3/4 463/3/4
f 463/3/4 462/3/4 464/3/4
f 465/3/4 466/3/4 467/3/4
f 467/3/4 466/3/4 468/3/4
f 469/3/4 470/3/4 471/3/4
f 471/3/4 470/3/4 472/3/4
f 473/3/4 474/3/4 475/3/4
f 475/3/4 474/3/4 476/3/4
f 477/3/4 478/3/4 479/3/4
f 479/3/4 478/3/4 480/3/4
f 481/3/4 482/3/4 483/3/4
f 483/3/4 482/3/4 484/3/4
f 485/3/4 486/3/4 487/3/4
f 487/3/4 486/3/4 488/3/4
f 489/1/4 490/1/4 491/1/4
f 491/1/4 492/1/4 493/1/4
f 491/1/4 493/1/4 495/1/4
f 493/1/4 494/1/4 495/1/4
f 495/1/4 494/1/4 496/1/4
f 496/1/4 494/1/4 497/1/4
f 491/1/4 495/1/4 498/1/4
f 495/3/4 496/3/4 498/3/4
f 498/3/4 496/3/4 499/3/4
f 498/1/4 499/1/4 501/1/4
f 499/1/4 500/1/4 501/1/4
f 501/1/4 500/1/4 502/1/4
f 489/1/4 491/1/4 503/1/4
f 491/1/4 498/1/4 503/1/4
f 498/1/4 501/1/4 503/1/4
f 503/1/4 501/1/4 504/1/4
f 489/1/4 503/1/4 505/1/4
f 505/1/4 503/1/4 506/1/4
f 509/1/5 508/1/5 507/1/5
f 510/1/5 508/1/5 509/1/5
f 511/1/5 509/1/5 507/1/5
f 511/2/5 510/2/5 509/2/5
f 512/1/5 508/1/5 510/1/5
f 512/2/5 510/2/5 511/2/5
f 513/1/5 511/1/5 507/1/5
f 513/1/5 512/1/5 511/1/5
f 514/1/5 508/1/5 512/1/5
f 514/1/5 512/1/5 513/1/5
f 515/1/6 516/1/6 519/1/6
f 519/1/6 516/1/6 520/1/6
f 517/1/6 518/1/6 521/1/6
f 521/1/6 518/1/6 522/1/6
f 525/3/6 526/3/6 529/3/6
f 529/3/6 526/3/6 530/3/6
f 525/3/6 529/3/6 531/3/6
f 530/3/6 526/3/6 532/3/6
f 525/3/6 531/3/6 533/3/6
f 531/3/6 532/3/6 533/3/6
f 533/3/6 532/3/6 534/3/6
f 534/3/6 532/3/6 535/3/6
f 535/3/6 532/3/6 536/3/6
f 525/3/6 533/3/6 537/3/6
f 534/3/6 535/3/6 538/3/6
f 538/3/6 535/3/6 539/3/6
f 536/3/6 532/3/6 540/3/6
f 532/3/6 526/3/6 541/3/6
f 540/3/6 532/3/6 541/3/6
f 541/3/6 526/3/6 542/3/6
f 539/3/6 540/3/6 543/3/6
f 538/3/6 539/3/6 543/3/6
f 540/3/6 541/3/6 543/3/6
f 537/3/6 538/3/6 543/3/6
f 542/3/6 526/3/6 544/3/6
f 537/3/6 543/3/6 545/3/6
f 543/3/6 544/3/6 545/3/6
f 545/3/6 544/3/6 546/3/6
f 537/3/6 545/3/6 547/3/6
f 546/3/6 544/3/6 548/3/6
f 525/3/6 537/3/6 549/3/6
f 547/3/6 548/3/6 549/3/6
f 537/3/6 547/3/6 549/3/6
f 549/3/6 548/3/6 550/3/6
f 550/3/6 548/3/6 552/3/6
f 552/3/6 548/3/6 553/3/6
f 551/3/6 552/3/6 553/3/6
f 553/3/6 548/3/6 554/3/6
f 551/3/6 553/3/6 555/3/6
f 554/3/6 548/3/6 556/3/6
f 556/3/6 548/3/6 557/3/6
f 555/3/6 556/3/6 557/3/6
f 557/3/6 548/3/6 558/3/6
f 555/3/6 557/3/6 559/3/6
f 558/3/6 548/3/6 560/3/6
f 548/3/6 544/3/6 561/3/6
f 559/3/6 560/3/6 561/3/6
f 560/3/6 548/3/6 561/3/6
f 544/3/6 526/3/6 562/3/6
f 561/3/6 544/3/6 562/3/6
f 559/3/6 561/3/6 563/3/6
f 562/3/6 526/3/6 564/3/6
f 559/3/6 563/3/6 565/3/6
f 563/3/6 564/3/6 565/3/6
f 565/3/6 564/3/6 566/3/6
f 559/3/6 565/3/6 567/3/6
f 566/3/6 564/3/6 568/3/6
f 568/3/6 564/3/6 569/3/6
f 567/3/6 568/3/6 569/3/6
f 569/3/6 564/3/6 570/3/6
f 551/3/6 555/3/6 571/3/6
f 555/3/6 559/3/6 571/3/6
f 567/3/6 569/3/6 571/3/6
f 559/3/6 567/3/6 571/3/6
f 571/3/6 569/3/6 572/3/6
f 572/3/6 569/3/6 573/3/6
f 570/3/6 564/3/6 574/3/6
f 551/3/6 571/3/6 575/3/6
f 572/3/6 573/3/6 576/3/6
f 573/3/6 574/3/6 576/3/6
f 576/3/6 574/3/6 577/3/6
f 575/3/6 576/3/6 577/3/6
f 577/3/6 574/3/6 578/3/6
f 575/3/6 577/3/6 579/3/6
f 578/3/6 574/3/6 580/3/6
f 551/3/6 575/3/6 581/3/6
f 579/3/6 580/3/6 581/3/6
f 575/3/6 579/3/6 581/3/6
f 581/3/6 580/3/6 582/3/6
f 582/3/6 580/3/6 584/3/6
f 580/3/6 574/3/6 585/3/6
f 583/3/6 584/3/6 585/3/6
f 584/3/6 580/3/6 585/3/6
f 574/3/6 564/3/6 585/3/6
f 585/3/6 564/3/6 586/3/6
f 583/3/6 585/3/6 587/3/6
f 586/3/6 564/3/6 588/3/6
f 583/3/6 587/3/6 589/3/6
f 587/3/6 588/3/6 589/3/6
f 589/3/6 588/3/6 590/3/6
f 583/3/6 589/3/6 591/3/6
f 590/3/6 588/3/6 592/3/6
f 592/3/6 588/3/6 593/3/6
f 591/3/6 592/3/6 593/3/6
f 593/3/6 588/3/6 594/3/6
f 583/3/6 591/3/6 595/3/6
f 591/3/6 593/3/6 595/3/6
f 595/3/6 593/3/6 596/3/6
f 596/3/6 593/3/6 597/3/6
f 594/3/6 588/3/6 598/3/6
f 583/3/6 595/3/6 599/3/6
f 596/3/6 597/3/6 600/3/6
f 597/3/6 598/3/6 600/3/6
f 600/3/6 598/3/6 601/3/6
f 599/3/6 600/3/6 602/3/6
f 601/3/6 598/3/6 603/3/6
f 598/3/6 588/3/6 604/3/6
f 602/3/6 603/3/6 604/3/6
f 603/3/6 598/3/6 604/3/6
f 604/3/6 588/3/6 605/3/6
f 602/3/6 604/3/6 606/3/6
f 605/3/6 588/3/6 607/3/6
f 602/3/6 606/3/6 608/3/6
f 606/3/6 607/3/6 608/3/6
f 608/3/6 607/3/6 609/3/6
f 602/3/6 608/3/6 610/3/6
f 609/3/6 607/3/6 611/3/6
f 611/3/6 607/3/6 612/3/6
f 610/3/6 611/3/6 612/3/6
f 612/3/6 607/3/6 613/3/6
f 610/3/6 612/3/6 614/3/6
f 613/3/6 607/3/6 615/3/6
f 583/3/6 599/3/6 616/3/6
f 614/3/6 615/3/6 616/3/6
f 599/3/6 602/3/6 616/3/6
f 602/3/6 610/3/6 616/3/6
f 610/3/6 614/3/6 616/3/6
f 616/3/6 615/3/6 617/3/6
f 583/3/6 616/3/6 618/3/6
f 617/3/6 615/3/6 619/3/6
f 619/3/6 615/3/6 620/3/6
f 618/3/6 619/3/6 620/3/6
f 620/3/6 615/3/6 621/3/6
f 615/3/6 607/3/6 622/3/6
f 621/3/6 615/3/6 622/3/6
f 607/3/6 588/3/6 622/3/6
f 588/3/6 564/3/6 623/3/6
f 622/3/6 588/3/6 623/3/6
f 618/3/6 620/3/6 624/3/6
f 621/3/6 622/3/6 625/3/6
f 625/3/6 622/3/6 626/3/6
f 623/3/6 564/3/6 627/3/6
f 625/3/6 626/3/6 628/3/6
f 626/3/6 627/3/6 628/3/6
f 624/3/6 625/3/6 628/3/6
f 628/3/6 627/3/6 629/3/6
f 624/3/6 628/3/6 630/3/6
f 629/3/6 627/3/6 631/3/6
f 523/1/6 524/1/6 632/1/6
f 632/1/6 524/1/6 633/1/6
f 630/3/6 631/3/6 634/3/6
f 618/3/6 624/3/6 634/3/6
f 583/3/6 618/3/6 634/3/6
f 624/3/6 630/3/6 634/3/6
f 564/3/6 526/3/6 635/3/6
f 634/3/6 631/3/6 635/3/6
f 627/3/6 564/3/6 635/3/6
f 631/3/6 627/3/6 635/3/6
f 527/1/6 528/1/6 636/1/6
f 636/1/6 528/1/6 637/1/6
f 642/3/6 643/3/6 644/3/6
f 644/3/6 643/3/6 645/3/6
f 646/3/6 647/3/6 648/3/6
f 648/3/6 647/3/6 649/3/6
f 650/3/6 651/3/6 652/3/6
f 652/3/6 651/3/6 653/3/6
f 654/3/6 655/3/6 656/3/6
f 656/3/6 655/3/6 657/3/6
f 638/1/6 639/1/6 658/1/6
f 638/1/6 658/1/6 659/1/6
f 660/3/6 661/3/6 662/3/6
f 662/3/6 661/3/6 663/3/6
f 664/3/6 665/3/6 666/3/6
f 666/3/6 665/3/6 667/3/6
f 668/3/6 669/3/6 670/3/6
f 670/3/6 669/3/6 671/3/6
f 672/3/6 673/3/6 676/3/6
f 676/3/6 673/3/6 677/3/6
f 674/3/6 675/3/6 678/3/6
f 678/3/6 675/3/6 679/3/6
f 680/3/6 681/3/6 682/3/6
f 682/3/6 681/3/6 683/3/6
f 638/1/6 659/1/6 684/1/6
f 638/1/6 684/1/6 685/1/6
f 686/3/6 687/3/6 688/3/6
f 688/3/6 687/3/6 689/3/6
f 690/3/6 691/3/6 692/3/6
f 692/3/6 691/3/6 693/3/6
f 694/3/6 695/3/6 696/3/6
f 696/3/6 695/3/6 697/3/6
f 698/3/6 699/3/6 700/3/6
f 700/3/6 699/3/6 701/3/6
f 702/3/6 703/3/6 704/3/6
f 704/3/6 703/3/6 705/3/6
f 706/3/6 707/3/6 708/3/6
f 708/3/6 707/3/6 709/3/6
f 710/3/6 711/3/6 712/3/6
f 712/3/6 711/3/6 713/3/6
f 714/3/6 715/3/6 716/3/6
f 716/3/6 715/3/6 717/3/6
f 718/3/6 719/3/6 720/3/6
f 720/3/6 719/3/6 721/3/6
f 722/3/6 723/3/6 724/3/6
f 724/3/6 723/3/6 725/3/6
f 638/1/6 685/1/6 726/1/6
f 726/1/6 685/1/6 727/1/6
f 640/1/6 641/1/6 728/1/6
f 728/1/6 641/1/6 729/1/6
f 730/3/6 731/3/6 732/3/6
f 732/3/6 731/3/6 733/3/6
f 734/3/6 735/3/6 736/3/6
f 736/3/6 735/3/6 737/3/6
f 738/3/6 739/3/6 740/3/6
f 740/3/6 739/3/6 741/3/6
f 742/3/6 743/3/6 744/3/6
f 744/3/6 743/3/6 745/3/6
f 746/3/6 747/3/6 748/3/6
f 748/3/6 747/3/6 749/3/6
f 750/3/6 751/3/6 752/3/6
f 752/3/6 751/3/6 753/3/6
f 754/3/6 755/3/6 756/3/6
f 756/3/6 755/3/6 757/3/6
