# This file uses centimeters as units for non-parametric coordinates.

mtllib Health Drop.mtl
g default
v -3.500000 -1.500000 1.000000
v -3.500000 -1.500000 -1.000000
v -3.500000 1.500000 1.000000
v -3.500000 1.500000 -1.000000
v -1.500000 -3.500000 1.000000
v -1.500000 -3.500000 -1.000000
v -1.500000 -1.500000 1.000000
v -1.500000 -1.500000 -1.000000
v -1.500000 1.500000 1.000000
v -1.500000 1.500000 -1.000000
v -1.500000 3.500000 1.000000
v -1.500000 3.500000 -1.000000
v 1.500000 -3.500000 1.000000
v 1.500000 -3.500000 -1.000000
v 1.500000 -1.500000 1.000000
v 1.500000 -1.500000 -1.000000
v 1.500000 1.500000 1.000000
v 1.500000 1.500000 -1.000000
v 1.500000 3.500000 1.000000
v 1.500000 3.500000 -1.000000
v 3.500000 -1.500000 1.000000
v 3.500000 -1.500000 -1.000000
v 3.500000 1.500000 1.000000
v 3.500000 1.500000 -1.000000
v -3.500000 -1.500000 1.000000
v -3.500000 1.500000 1.000000
v -1.500000 -3.500000 1.000000
v -1.500000 -1.500000 1.000000
v -1.500000 1.500000 1.000000
v -1.500000 3.500000 1.000000
v 1.500000 -3.500000 1.000000
v 1.500000 -1.500000 1.000000
v 1.500000 1.500000 1.000000
v 1.500000 3.500000 1.000000
v 3.500000 -1.500000 1.000000
v 3.500000 1.500000 1.000000
v -3.500000 -1.500000 -1.000000
v -3.500000 1.500000 -1.000000
v -1.500000 -3.500000 -1.000000
v -1.500000 -1.500000 -1.000000
v -1.500000 1.500000 -1.000000
v -1.500000 3.500000 -1.000000
v 1.500000 -3.500000 -1.000000
v 1.500000 -1.500000 -1.000000
v 1.500000 1.500000 -1.000000
v 1.500000 3.500000 -1.000000
v 3.500000 -1.500000 -1.000000
v 3.500000 1.500000 -1.000000
v -1.500000 -3.500000 1.000000
v 1.500000 -3.500000 1.000000
v -1.500000 -3.500000 -1.000000
v 1.500000 -3.500000 -1.000000
v -3.500000 -1.500000 1.000000
v -1.500000 -1.500000 1.000000
v 1.500000 -1.500000 1.000000
v 3.500000 -1.500000 1.000000
v -3.500000 -1.500000 -1.000000
v -1.500000 -1.500000 -1.000000
v 1.500000 -1.500000 -1.000000
v 3.500000 -1.500000 -1.000000
v -3.500000 1.500000 1.000000
v -1.500000 1.500000 1.000000
v 1.500000 1.500000 1.000000
v 3.500000 1.500000 1.000000
v -3.500000 1.500000 -1.000000
v -1.500000 1.500000 -1.000000
v 1.500000 1.500000 -1.000000
v 3.500000 1.500000 -1.000000
v -1.500000 3.500000 1.000000
v 1.500000 3.500000 1.000000
v -1.500000 3.500000 -1.000000
v 1.500000 3.500000 -1.000000
vt 0.845703 0.500000
vt 0.845703 0.500000
vt 0.845703 0.500000
vt 0.845703 0.500000
vt 0.845703 0.500000
vt 0.845703 0.500000
vt 0.845703 0.500000
vt 0.845703 0.500000
vt 0.845703 0.500000
vt 0.845703 0.500000
vt 0.845703 0.500000
vt 0.845703 0.500000
vt 0.845703 0.500000
vt 0.845703 0.500000
vt 0.845703 0.500000
vt 0.845703 0.500000
vt 0.845703 0.500000
vt 0.845703 0.500000
vt 0.845703 0.500000
vt 0.845703 0.500000
vt 0.845703 0.500000
vt 0.845703 0.500000
vt 0.845703 0.500000
vt 0.845703 0.500000
vt 0.845703 0.500000
vt 0.845703 0.500000
vt 0.845703 0.500000
vt 0.845703 0.500000
vt 0.845703 0.500000
vt 0.845703 0.500000
vt 0.845703 0.500000
vt 0.845703 0.500000
vt 0.845703 0.500000
vt 0.845703 0.500000
vt 0.845703 0.500000
vt 0.845703 0.500000
vt 0.845703 0.500000
vt 0.845703 0.500000
vt 0.845703 0.500000
vt 0.845703 0.500000
vt 0.845703 0.500000
vt 0.845703 0.500000
vt 0.845703 0.500000
vt 0.845703 0.500000
vt 0.845703 0.500000
vt 0.845703 0.500000
vt 0.845703 0.500000
vt 0.845703 0.500000
vt 0.845703 0.500000
vt 0.845703 0.500000
vt 0.845703 0.500000
vt 0.845703 0.500000
vt 0.845703 0.500000
vt 0.845703 0.500000
vt 0.845703 0.500000
vt 0.845703 0.500000
vt 0.845703 0.500000
vt 0.845703 0.500000
vt 0.845703 0.500000
vt 0.845703 0.500000
vt 0.845703 0.500000
vt 0.845703 0.500000
vt 0.845703 0.500000
vt 0.845703 0.500000
vt 0.845703 0.500000
vt 0.845703 0.500000
vt 0.845703 0.500000
vt 0.845703 0.500000
vt 0.845703 0.500000
vt 0.845703 0.500000
vt 0.845703 0.500000
vt 0.845703 0.500000
vt 0.845703 0.500000
vt 0.845703 0.500000
vt 0.845703 0.500000
vt 0.845703 0.500000
vt 0.845703 0.500000
vt 0.845703 0.500000
vt 0.845703 0.500000
vt 0.845703 0.500000
vt 0.845703 0.500000
vt 0.845703 0.500000
vt 0.845703 0.500000
vt 0.845703 0.500000
vt 0.845703 0.500000
vt 0.845703 0.500000
vt 0.845703 0.500000
vt 0.845703 0.500000
vt 0.845703 0.500000
vt 0.845703 0.500000
vt 0.845703 0.500000
vt 0.845703 0.500000
vt 0.845703 0.500000
vt 0.845703 0.500000
vt 0.845703 0.500000
vt 0.845703 0.500000
vt 0.845703 0.500000
vt 0.845703 0.500000
vt 0.845703 0.500000
vt 0.845703 0.500000
vt 0.845703 0.500000
vt 0.845703 0.500000
vt 0.845703 0.500000
vt 0.845703 0.500000
vt 0.845703 0.500000
vt 0.845703 0.500000
vt 0.845703 0.500000
vt 0.845703 0.500000
vt 0.845703 0.500000
vt 0.845703 0.500000
vt 0.845703 0.500000
vt 0.845703 0.500000
vt 0.845703 0.500000
vt 0.845703 0.500000
vt 0.845703 0.500000
vt 0.845703 0.500000
vt 0.845703 0.500000
vt 0.845703 0.500000
vt 0.845703 0.500000
vt 0.845703 0.500000
vt 0.845703 0.500000
vt 0.845703 0.500000
vt 0.845703 0.500000
vt 0.845703 0.500000
vt 0.845703 0.500000
vt 0.845703 0.500000
vt 0.845703 0.500000
vt 0.845703 0.500000
vt 0.845703 0.500000
vt 0.845703 0.500000
vt 0.845703 0.500000
vn -1.000000 0.000000 0.000000
vn -1.000000 0.000000 0.000000
vn -1.000000 0.000000 0.000000
vn -1.000000 0.000000 0.000000
vn -1.000000 0.000000 0.000000
vn -1.000000 0.000000 0.000000
vn -1.000000 0.000000 0.000000
vn -1.000000 0.000000 0.000000
vn -1.000000 0.000000 0.000000
vn -1.000000 0.000000 0.000000
vn -1.000000 0.000000 0.000000
vn -1.000000 0.000000 0.000000
vn -1.000000 0.000000 0.000000
vn -1.000000 0.000000 0.000000
vn -1.000000 0.000000 0.000000
vn -1.000000 0.000000 0.000000
vn -1.000000 0.000000 0.000000
vn -1.000000 0.000000 0.000000
vn 1.000000 0.000000 0.000000
vn 1.000000 0.000000 0.000000
vn 1.000000 0.000000 0.000000
vn 1.000000 0.000000 0.000000
vn 1.000000 0.000000 0.000000
vn 1.000000 0.000000 0.000000
vn 1.000000 0.000000 0.000000
vn 1.000000 0.000000 0.000000
vn 1.000000 0.000000 0.000000
vn 1.000000 0.000000 0.000000
vn 1.000000 0.000000 0.000000
vn 1.000000 0.000000 0.000000
vn 1.000000 0.000000 0.000000
vn 1.000000 0.000000 0.000000
vn 1.000000 0.000000 0.000000
vn 1.000000 0.000000 0.000000
vn 1.000000 0.000000 0.000000
vn 1.000000 0.000000 0.000000
vn 0.000000 0.000000 1.000000
vn 0.000000 0.000000 1.000000
vn 0.000000 0.000000 1.000000
vn 0.000000 0.000000 1.000000
vn 0.000000 0.000000 1.000000
vn 0.000000 0.000000 1.000000
vn 0.000000 0.000000 1.000000
vn 0.000000 0.000000 1.000000
vn 0.000000 0.000000 1.000000
vn 0.000000 0.000000 1.000000
vn 0.000000 0.000000 1.000000
vn 0.000000 0.000000 1.000000
vn 0.000000 0.000000 1.000000
vn 0.000000 0.000000 1.000000
vn 0.000000 0.000000 1.000000
vn 0.000000 0.000000 1.000000
vn 0.000000 0.000000 1.000000
vn 0.000000 0.000000 1.000000
vn 0.000000 0.000000 1.000000
vn 0.000000 0.000000 1.000000
vn 0.000000 0.000000 1.000000
vn 0.000000 0.000000 1.000000
vn 0.000000 0.000000 1.000000
vn 0.000000 0.000000 1.000000
vn 0.000000 0.000000 1.000000
vn 0.000000 0.000000 1.000000
vn 0.000000 0.000000 1.000000
vn 0.000000 0.000000 1.000000
vn 0.000000 0.000000 1.000000
vn 0.000000 0.000000 1.000000
vn 0.000000 0.000000 -1.000000
vn 0.000000 0.000000 -1.000000
vn 0.000000 0.000000 -1.000000
vn 0.000000 0.000000 -1.000000
vn 0.000000 0.000000 -1.000000
vn 0.000000 0.000000 -1.000000
vn 0.000000 0.000000 -1.000000
vn 0.000000 0.000000 -1.000000
vn 0.000000 0.000000 -1.000000
vn 0.000000 0.000000 -1.000000
vn 0.000000 0.000000 -1.000000
vn 0.000000 0.000000 -1.000000
vn 0.000000 0.000000 -1.000000
vn 0.000000 0.000000 -1.000000
vn 0.000000 0.000000 -1.000000
vn 0.000000 0.000000 -1.000000
vn 0.000000 0.000000 -1.000000
vn 0.000000 0.000000 -1.000000
vn 0.000000 0.000000 -1.000000
vn 0.000000 0.000000 -1.000000
vn 0.000000 0.000000 -1.000000
vn 0.000000 0.000000 -1.000000
vn 0.000000 0.000000 -1.000000
vn 0.000000 0.000000 -1.000000
vn 0.000000 0.000000 -1.000000
vn 0.000000 0.000000 -1.000000
vn 0.000000 0.000000 -1.000000
vn 0.000000 0.000000 -1.000000
vn 0.000000 0.000000 -1.000000
vn 0.000000 0.000000 -1.000000
vn 0.000000 -1.000000 0.000000
vn 0.000000 -1.000000 0.000000
vn 0.000000 -1.000000 0.000000
vn 0.000000 -1.000000 0.000000
vn 0.000000 -1.000000 0.000000
vn 0.000000 -1.000000 0.000000
vn 0.000000 -1.000000 0.000000
vn 0.000000 -1.000000 0.000000
vn 0.000000 -1.000000 0.000000
vn 0.000000 -1.000000 0.000000
vn 0.000000 -1.000000 0.000000
vn 0.000000 -1.000000 0.000000
vn 0.000000 -1.000000 0.000000
vn 0.000000 -1.000000 0.000000
vn 0.000000 -1.000000 0.000000
vn 0.000000 -1.000000 0.000000
vn 0.000000 -1.000000 0.000000
vn 0.000000 -1.000000 0.000000
vn 0.000000 1.000000 0.000000
vn 0.000000 1.000000 0.000000
vn 0.000000 1.000000 0.000000
vn 0.000000 1.000000 0.000000
vn 0.000000 1.000000 0.000000
vn 0.000000 1.000000 0.000000
vn 0.000000 1.000000 0.000000
vn 0.000000 1.000000 0.000000
vn 0.000000 1.000000 0.000000
vn 0.000000 1.000000 0.000000
vn 0.000000 1.000000 0.000000
vn 0.000000 1.000000 0.000000
vn 0.000000 1.000000 0.000000
vn 0.000000 1.000000 0.000000
vn 0.000000 1.000000 0.000000
vn 0.000000 1.000000 0.000000
vn 0.000000 1.000000 0.000000
vn 0.000000 1.000000 0.000000
s off
g Health_Drop:Mesh
usemtl initialShadingGroup
f 3/1/1 2/2/2 1/3/3
f 4/4/4 2/5/5 3/1/6
f 7/6/7 6/7/8 5/8/9
f 8/9/10 6/10/11 7/11/12
f 11/12/13 10/13/14 9/14/15
f 12/15/16 10/16/17 11/17/18
f 13/18/19 14/19/20 15/20/21
f 15/21/22 14/22/23 16/23/24
f 17/24/25 18/25/26 19/26/27
f 19/27/28 18/28/29 20/29/30
f 21/30/31 22/31/32 23/32/33
f 23/33/34 22/34/35 24/35/36
f 28/36/37 26/37/38 25/38/39
f 29/39/40 26/40/41 28/41/42
f 31/42/43 28/43/44 27/44/45
f 31/45/46 30/46/47 29/47/48
f 31/48/49 29/49/50 28/50/51
f 32/51/52 30/52/53 31/53/54
f 33/54/55 30/55/56 32/56/57
f 34/57/58 30/58/59 33/59/60
f 35/60/61 33/61/62 32/62/63
f 36/63/64 33/64/65 35/65/66
f 37/66/67 38/67/68 40/68/69
f 40/69/70 38/70/71 41/71/72
f 39/72/73 40/73/74 43/74/75
f 41/75/76 42/76/77 43/77/78
f 40/78/79 41/79/80 43/80/81
f 43/81/82 42/82/83 44/83/84
f 44/84/85 42/85/86 45/86/87
f 45/87/88 42/88/89 46/89/90
f 44/90/91 45/91/92 47/92/93
f 47/93/94 45/94/95 48/95/96
f 51/96/97 50/97/98 49/98/99
f 52/99/100 50/100/101 51/101/102
f 57/102/103 54/103/104 53/104/105
f 58/105/106 54/106/107 57/107/108
f 59/108/109 56/109/110 55/110/111
f 60/111/112 56/112/113 59/113/114
f 61/114/115 62/115/116 65/116/117
f 65/117/118 62/118/119 66/119/120
f 63/120/121 64/121/122 67/122/123
f 67/123/124 64/124/125 68/125/126
f 69/126/127 70/127/128 71/128/129
f 71/129/130 70/130/131 72/131/132
