# MagicaVoxel @ ephtracy

# material
mtllib Street End.mtl
usemtl palette

# normals
vn -1 0 0
vn 1 0 0
vn 0 0 1
vn 0 0 -1
vn 0 -1 0
vn 0 1 0

# texcoords
vt 0.0878906 0.5
vt 0.970703 0.5
vt 0.994141 0.5

# verts
v -63 0 63
v -63 0 -63
v -63 1 63
v -63 1 -63
v -19 1 -23
v -19 1 -63
v -19 4 -23
v -19 4 -63
v -18 4 -24
v -18 4 -63
v -18 5 -24
v -18 5 -63
v -13 4 -44
v -13 4 -45
v -13 6 -44
v -13 6 -45
v -8 4 -36
v -8 4 -37
v -8 4 -54
v -8 4 -55
v -8 6 -36
v -8 6 -37
v -8 6 -54
v -8 6 -55
v -1 4 -48
v -1 4 -49
v -1 5 -48
v -1 5 -49
v 0 4 -30
v 0 4 -31
v 0 5 -30
v 0 5 -31
v 0 5 -48
v 0 5 -49
v 0 6 -48
v 0 6 -49
v 6 4 -39
v 6 4 -40
v 6 4 -61
v 6 4 -62
v 6 5 -39
v 6 5 -40
v 6 5 -61
v 6 5 -62
v 8 4 -50
v 8 4 -51
v 8 5 -50
v 8 5 -51
v 14 4 -31
v 14 4 -32
v 14 6 -31
v 14 6 -32
v 16 4 -27
v 16 4 -63
v 16 5 -27
v 16 5 -63
v -15 4 -27
v -15 4 -63
v -15 5 -27
v -15 5 -63
v -12 4 -44
v -12 4 -45
v -12 6 -44
v -12 6 -45
v -7 4 -36
v -7 4 -37
v -7 4 -54
v -7 4 -55
v -7 6 -36
v -7 6 -37
v -7 6 -54
v -7 6 -55
v 1 4 -30
v 1 4 -31
v 1 4 -48
v 1 4 -49
v 1 5 -30
v 1 5 -31
v 1 6 -48
v 1 6 -49
v 7 4 -39
v 7 4 -40
v 7 4 -61
v 7 4 -62
v 7 5 -39
v 7 5 -40
v 7 5 -61
v 7 5 -62
v 9 4 -50
v 9 4 -51
v 9 5 -50
v 9 5 -51
v 15 4 -31
v 15 4 -32
v 15 6 -31
v 15 6 -32
v 19 4 -24
v 19 4 -63
v 19 5 -24
v 19 5 -63
v 20 1 -23
v 20 1 -63
v 20 4 -23
v 20 4 -63
v 63 0 63
v 63 0 -63
v 63 1 63
v 63 1 -63
v -63 0 63
v -63 1 63
v 63 0 63
v 63 1 63
v -19 1 -23
v -19 4 -23
v 20 1 -23
v 20 4 -23
v -18 4 -24
v -18 5 -24
v 19 4 -24
v 19 5 -24
v 0 4 -30
v 0 5 -30
v 1 4 -30
v 1 5 -30
v 14 4 -31
v 14 6 -31
v 15 4 -31
v 15 6 -31
v -8 4 -36
v -8 6 -36
v -7 4 -36
v -7 6 -36
v 6 4 -39
v 6 5 -39
v 7 4 -39
v 7 5 -39
v -13 4 -44
v -13 6 -44
v -12 4 -44
v -12 6 -44
v -1 4 -48
v -1 5 -48
v 0 5 -48
v 0 6 -48
v 1 4 -48
v 1 6 -48
v 8 4 -50
v 8 5 -50
v 9 4 -50
v 9 5 -50
v -8 4 -54
v -8 6 -54
v -7 4 -54
v -7 6 -54
v 6 4 -61
v 6 5 -61
v 7 4 -61
v 7 5 -61
v -15 4 -27
v -15 5 -27
v 16 4 -27
v 16 5 -27
v 0 4 -31
v 0 5 -31
v 1 4 -31
v 1 5 -31
v 14 4 -32
v 14 6 -32
v 15 4 -32
v 15 6 -32
v -8 4 -37
v -8 6 -37
v -7 4 -37
v -7 6 -37
v 6 4 -40
v 6 5 -40
v 7 4 -40
v 7 5 -40
v -13 4 -45
v -13 6 -45
v -12 4 -45
v -12 6 -45
v -1 4 -49
v -1 5 -49
v 0 5 -49
v 0 6 -49
v 1 4 -49
v 1 6 -49
v 8 4 -51
v 8 5 -51
v 9 4 -51
v 9 5 -51
v -8 4 -55
v -8 6 -55
v -7 4 -55
v -7 6 -55
v 6 4 -62
v 6 5 -62
v 7 4 -62
v 7 5 -62
v -63 0 -63
v -63 1 -63
v -19 0 -63
v -19 1 -63
v -19 4 -63
v -18 1 -63
v -18 4 -63
v -18 5 -63
v -15 3 -63
v -15 4 -63
v -15 5 -63
v 16 3 -63
v 16 4 -63
v 16 5 -63
v 19 1 -63
v 19 4 -63
v 19 5 -63
v 20 0 -63
v 20 1 -63
v 20 4 -63
v 63 0 -63
v 63 1 -63
v -63 0 63
v 63 0 63
v -19 0 -23
v 20 0 -23
v -63 0 -63
v -19 0 -63
v 20 0 -63
v 63 0 -63
v -63 1 63
v 63 1 63
v -19 1 -23
v 20 1 -23
v -63 1 -63
v -19 1 -63
v 20 1 -63
v 63 1 -63
v -19 4 -23
v 20 4 -23
v -18 4 -24
v 19 4 -24
v -15 4 -27
v 16 4 -27
v 0 4 -30
v 1 4 -30
v 0 4 -31
v 1 4 -31
v 14 4 -31
v 15 4 -31
v 14 4 -32
v 15 4 -32
v -8 4 -36
v -7 4 -36
v -8 4 -37
v -7 4 -37
v 6 4 -39
v 7 4 -39
v 6 4 -40
v 7 4 -40
v -13 4 -44
v -12 4 -44
v -13 4 -45
v -12 4 -45
v -1 4 -48
v 1 4 -48
v -1 4 -49
v 1 4 -49
v 8 4 -50
v 9 4 -50
v 8 4 -51
v 9 4 -51
v -8 4 -54
v -7 4 -54
v -8 4 -55
v -7 4 -55
v 6 4 -61
v 7 4 -61
v 6 4 -62
v 7 4 -62
v -19 4 -63
v -18 4 -63
v -15 4 -63
v 16 4 -63
v 19 4 -63
v 20 4 -63
v -18 5 -24
v 19 5 -24
v -15 5 -27
v 16 5 -27
v 0 5 -30
v 1 5 -30
v 0 5 -31
v 1 5 -31
v 6 5 -39
v 7 5 -39
v 6 5 -40
v 7 5 -40
v -1 5 -48
v 0 5 -48
v -1 5 -49
v 0 5 -49
v 8 5 -50
v 9 5 -50
v 8 5 -51
v 9 5 -51
v 6 5 -61
v 7 5 -61
v 6 5 -62
v 7 5 -62
v -18 5 -63
v -15 5 -63
v 16 5 -63
v 19 5 -63
v 14 6 -31
v 15 6 -31
v 14 6 -32
v 15 6 -32
v -8 6 -36
v -7 6 -36
v -8 6 -37
v -7 6 -37
v -13 6 -44
v -12 6 -44
v -13 6 -45
v -12 6 -45
v 0 6 -48
v 1 6 -48
v 0 6 -49
v 1 6 -49
v -8 6 -54
v -7 6 -54
v -8 6 -55
v -7 6 -55

# faces
f 3/1/1 2/1/1 1/1/1
f 4/1/1 2/1/1 3/1/1
f 7/1/1 6/1/1 5/1/1
f 8/1/1 6/1/1 7/1/1
f 11/1/1 10/1/1 9/1/1
f 12/1/1 10/1/1 11/1/1
f 15/3/1 14/3/1 13/3/1
f 16/3/1 14/3/1 15/3/1
f 21/3/1 18/3/1 17/3/1
f 22/3/1 18/3/1 21/3/1
f 23/3/1 20/3/1 19/3/1
f 24/3/1 20/3/1 23/3/1
f 27/3/1 26/3/1 25/3/1
f 28/3/1 26/3/1 27/3/1
f 31/3/1 30/3/1 29/3/1
f 32/3/1 30/3/1 31/3/1
f 35/3/1 34/3/1 33/3/1
f 36/3/1 34/3/1 35/3/1
f 41/3/1 38/3/1 37/3/1
f 42/3/1 38/3/1 41/3/1
f 43/3/1 40/3/1 39/3/1
f 44/3/1 40/3/1 43/3/1
f 47/3/1 46/3/1 45/3/1
f 48/3/1 46/3/1 47/3/1
f 51/3/1 50/3/1 49/3/1
f 52/3/1 50/3/1 51/3/1
f 55/1/1 54/1/1 53/1/1
f 56/1/1 54/1/1 55/1/1
f 57/1/2 58/1/2 59/1/2
f 59/1/2 58/1/2 60/1/2
f 61/3/2 62/3/2 63/3/2
f 63/3/2 62/3/2 64/3/2
f 65/3/2 66/3/2 69/3/2
f 69/3/2 66/3/2 70/3/2
f 67/3/2 68/3/2 71/3/2
f 71/3/2 68/3/2 72/3/2
f 73/3/2 74/3/2 77/3/2
f 77/3/2 74/3/2 78/3/2
f 75/3/2 76/3/2 79/3/2
f 79/3/2 76/3/2 80/3/2
f 81/3/2 82/3/2 85/3/2
f 85/3/2 82/3/2 86/3/2
f 83/3/2 84/3/2 87/3/2
f 87/3/2 84/3/2 88/3/2
f 89/3/2 90/3/2 91/3/2
f 91/3/2 90/3/2 92/3/2
f 93/3/2 94/3/2 95/3/2
f 95/3/2 94/3/2 96/3/2
f 97/1/2 98/1/2 99/1/2
f 99/1/2 98/1/2 100/1/2
f 101/1/2 102/1/2 103/1/2
f 103/1/2 102/1/2 104/1/2
f 105/1/2 106/1/2 107/1/2
f 107/1/2 106/1/2 108/1/2
f 111/1/3 110/1/3 109/1/3
f 112/1/3 110/1/3 111/1/3
f 115/1/3 114/1/3 113/1/3
f 116/1/3 114/1/3 115/1/3
f 119/1/3 118/1/3 117/1/3
f 120/1/3 118/1/3 119/1/3
f 123/3/3 122/3/3 121/3/3
f 124/3/3 122/3/3 123/3/3
f 127/3/3 126/3/3 125/3/3
f 128/3/3 126/3/3 127/3/3
f 131/3/3 130/3/3 129/3/3
f 132/3/3 130/3/3 131/3/3
f 135/3/3 134/3/3 133/3/3
f 136/3/3 134/3/3 135/3/3
f 139/3/3 138/3/3 137/3/3
f 140/3/3 138/3/3 139/3/3
f 143/3/3 142/3/3 141/3/3
f 145/3/3 143/3/3 141/3/3
f 145/3/3 144/3/3 143/3/3
f 146/3/3 144/3/3 145/3/3
f 149/3/3 148/3/3 147/3/3
f 150/3/3 148/3/3 149/3/3
f 153/3/3 152/3/3 151/3/3
f 154/3/3 152/3/3 153/3/3
f 157/3/3 156/3/3 155/3/3
f 158/3/3 156/3/3 157/3/3
f 159/1/4 160/1/4 161/1/4
f 161/1/4 160/1/4 162/1/4
f 163/3/4 164/3/4 165/3/4
f 165/3/4 164/3/4 166/3/4
f 167/3/4 168/3/4 169/3/4
f 169/3/4 168/3/4 170/3/4
f 171/3/4 172/3/4 173/3/4
f 173/3/4 172/3/4 174/3/4
f 175/3/4 176/3/4 177/3/4
f 177/3/4 176/3/4 178/3/4
f 179/3/4 180/3/4 181/3/4
f 181/3/4 180/3/4 182/3/4
f 183/3/4 184/3/4 185/3/4
f 183/3/4 185/3/4 187/3/4
f 185/3/4 186/3/4 187/3/4
f 187/3/4 186/3/4 188/3/4
f 189/3/4 190/3/4 191/3/4
f 191/3/4 190/3/4 192/3/4
f 193/3/4 194/3/4 195/3/4
f 195/3/4 194/3/4 196/3/4
f 197/3/4 198/3/4 199/3/4
f 199/3/4 198/3/4 200/3/4
f 201/1/4 202/1/4 203/1/4
f 203/1/4 202/1/4 204/1/4
f 203/2/4 204/2/4 206/2/4
f 204/1/4 205/1/4 206/1/4
f 206/1/4 205/1/4 207/1/4
f 206/2/4 207/2/4 209/2/4
f 207/1/4 208/1/4 210/1/4
f 209/2/4 207/2/4 210/2/4
f 210/1/4 208/1/4 211/1/4
f 206/2/4 209/2/4 212/2/4
f 209/3/4 210/3/4 212/3/4
f 212/3/4 210/3/4 213/3/4
f 203/2/4 206/2/4 215/2/4
f 206/2/4 212/2/4 215/2/4
f 212/2/4 213/2/4 215/2/4
f 213/1/4 214/1/4 216/1/4
f 215/2/4 213/2/4 216/2/4
f 216/1/4 214/1/4 217/1/4
f 203/2/4 215/2/4 218/2/4
f 215/1/4 216/1/4 219/1/4
f 218/2/4 215/2/4 219/2/4
f 219/1/4 216/1/4 220/1/4
f 218/1/4 219/1/4 221/1/4
f 221/1/4 219/1/4 222/1/4
f 225/1/5 224/1/5 223/1/5
f 226/1/5 224/1/5 225/1/5
f 227/1/5 225/1/5 223/1/5
f 228/2/5 226/2/5 225/2/5
f 228/1/5 225/1/5 227/1/5
f 229/1/5 224/1/5 226/1/5
f 229/2/5 226/2/5 228/2/5
f 230/1/5 224/1/5 229/1/5
f 231/1/6 232/1/6 233/1/6
f 233/1/6 232/1/6 234/1/6
f 231/1/6 233/1/6 235/1/6
f 235/1/6 233/1/6 236/1/6
f 234/1/6 232/1/6 237/1/6
f 237/1/6 232/1/6 238/1/6
f 239/1/6 240/1/6 241/1/6
f 241/1/6 240/1/6 242/1/6
f 243/3/6 244/3/6 245/3/6
f 245/3/6 244/3/6 246/3/6
f 243/3/6 245/3/6 247/3/6
f 246/3/6 244/3/6 248/3/6
f 248/3/6 244/3/6 249/3/6
f 249/3/6 244/3/6 250/3/6
f 247/3/6 248/3/6 251/3/6
f 248/3/6 249/3/6 251/3/6
f 250/3/6 244/3/6 252/3/6
f 243/3/6 247/3/6 253/3/6
f 251/3/6 252/3/6 253/3/6
f 247/3/6 251/3/6 253/3/6
f 253/3/6 252/3/6 254/3/6
f 243/3/6 253/3/6 255/3/6
f 254/3/6 252/3/6 256/3/6
f 256/3/6 252/3/6 257/3/6
f 255/3/6 256/3/6 257/3/6
f 257/3/6 252/3/6 258/3/6
f 255/3/6 257/3/6 259/3/6
f 258/3/6 252/3/6 260/3/6
f 243/3/6 255/3/6 261/3/6
f 259/3/6 260/3/6 261/3/6
f 255/3/6 259/3/6 261/3/6
f 261/3/6 260/3/6 262/3/6
f 243/3/6 261/3/6 263/3/6
f 262/3/6 260/3/6 264/3/6
f 264/3/6 260/3/6 265/3/6
f 263/3/6 264/3/6 265/3/6
f 265/3/6 260/3/6 266/3/6
f 263/3/6 265/3/6 267/3/6
f 266/3/6 260/3/6 268/3/6
f 260/3/6 252/3/6 269/3/6
f 267/3/6 268/3/6 269/3/6
f 268/3/6 260/3/6 269/3/6
f 269/3/6 252/3/6 270/3/6
f 267/3/6 269/3/6 271/3/6
f 270/3/6 252/3/6 272/3/6
f 263/3/6 267/3/6 273/3/6
f 271/3/6 272/3/6 273/3/6
f 267/3/6 271/3/6 273/3/6
f 273/3/6 272/3/6 274/3/6
f 263/3/6 273/3/6 275/3/6
f 274/3/6 272/3/6 276/3/6
f 276/3/6 272/3/6 277/3/6
f 275/3/6 276/3/6 277/3/6
f 277/3/6 272/3/6 278/3/6
f 275/3/6 277/3/6 279/3/6
f 278/3/6 272/3/6 280/3/6
f 239/1/6 241/1/6 281/1/6
f 281/1/6 241/1/6 282/1/6
f 279/3/6 280/3/6 283/3/6
f 243/3/6 263/3/6 283/3/6
f 263/3/6 275/3/6 283/3/6
f 275/3/6 279/3/6 283/3/6
f 252/3/6 244/3/6 284/3/6
f 283/3/6 280/3/6 284/3/6
f 272/3/6 252/3/6 284/3/6
f 280/3/6 272/3/6 284/3/6
f 242/1/6 240/1/6 285/1/6
f 285/1/6 240/1/6 286/1/6
f 287/1/6 288/1/6 289/1/6
f 289/1/6 288/1/6 290/1/6
f 291/3/6 292/3/6 293/3/6
f 293/3/6 292/3/6 294/3/6
f 295/3/6 296/3/6 297/3/6
f 297/3/6 296/3/6 298/3/6
f 299/3/6 300/3/6 301/3/6
f 301/3/6 300/3/6 302/3/6
f 303/3/6 304/3/6 305/3/6
f 305/3/6 304/3/6 306/3/6
f 307/3/6 308/3/6 309/3/6
f 309/3/6 308/3/6 310/3/6
f 287/1/6 289/1/6 311/1/6
f 311/1/6 289/1/6 312/1/6
f 290/1/6 288/1/6 313/1/6
f 313/1/6 288/1/6 314/1/6
f 315/3/6 316/3/6 317/3/6
f 317/3/6 316/3/6 318/3/6
f 319/3/6 320/3/6 321/3/6
f 321/3/6 320/3/6 322/3/6
f 323/3/6 324/3/6 325/3/6
f 325/3/6 324/3/6 326/3/6
f 327/3/6 328/3/6 329/3/6
f 329/3/6 328/3/6 330/3/6
f 331/3/6 332/3/6 333/3/6
f 333/3/6 332/3/6 334/3/6
