# MagicaVoxel @ ephtracy

# material
mtllib Gun.mtl
usemtl palette

# normals
vn -1 0 0
vn 1 0 0
vn 0 0 1
vn 0 0 -1
vn 0 -1 0
vn 0 1 0

# texcoords
vt 0.974609 0.5
vt 0.978516 0.5
vt 0.982422 0.5
vt 0.986328 0.5
vt 0.990234 0.5

# verts
v -2 0 1
v -2 0 -1
v -2 2 1
v -2 2 -1
v -1 2 1
v -1 2 -1
v -1 4 1
v -1 4 -1
v -1 6 1
v -1 6 -1
v -1 9 1
v -1 9 -1
v -1 10 1
v -1 10 -1
v 0 8 1
v 0 8 -1
v 0 9 1
v 0 9 -1
v 1 4 2
v 1 4 1
v 1 4 -1
v 1 4 -2
v 1 5 3
v 1 5 2
v 1 5 -2
v 1 5 -3
v 1 6 3
v 1 6 2
v 1 6 1
v 1 6 -1
v 1 6 -2
v 1 6 -3
v 1 7 2
v 1 7 1
v 1 7 -1
v 1 7 -2
v 1 8 1
v 1 8 -1
v 3 7 3
v 3 7 2
v 3 7 1
v 3 7 -1
v 3 7 -2
v 3 7 -3
v 3 8 3
v 3 8 2
v 3 8 1
v 3 8 -1
v 3 8 -2
v 3 8 -3
v 3 9 2
v 3 9 1
v 3 9 -1
v 3 9 -2
v 4 5 1
v 4 5 -1
v 4 6 3
v 4 6 2
v 4 6 1
v 4 6 -1
v 4 6 -2
v 4 6 -3
v 4 7 3
v 4 7 2
v 4 7 -2
v 4 7 -3
v 4 8 3
v 4 8 2
v 4 8 -2
v 4 8 -3
v 4 9 3
v 4 9 2
v 4 9 1
v 4 9 -1
v 4 9 -2
v 4 9 -3
v 4 10 2
v 4 10 1
v 4 10 -1
v 4 10 -2
v 5 6 1
v 5 6 -1
v 5 10 1
v 5 10 -1
v 6 7 3
v 6 7 2
v 6 7 -2
v 6 7 -3
v 6 8 3
v 6 8 2
v 6 8 -2
v 6 8 -3
v 7 4 1
v 7 4 -1
v 7 5 2
v 7 5 1
v 7 5 -1
v 7 5 -2
v 7 6 2
v 7 6 1
v 7 6 -1
v 7 6 -2
v 8 9 1
v 8 9 -1
v 8 10 1
v 8 10 -1
v 1 8 1
v 1 8 -1
v 1 10 1
v 1 10 -1
v 2 0 1
v 2 0 -1
v 2 2 1
v 2 2 -1
v 3 2 1
v 3 2 -1
v 3 4 2
v 3 4 1
v 3 4 -1
v 3 4 -2
v 3 5 3
v 3 5 2
v 3 5 1
v 3 5 -1
v 3 5 -2
v 3 5 -3
v 3 6 3
v 3 6 2
v 3 6 1
v 3 6 -1
v 3 6 -2
v 3 6 -3
v 3 8 1
v 3 8 -1
v 4 7 3
v 4 7 2
v 4 7 -2
v 4 7 -3
v 4 8 3
v 4 8 2
v 4 8 -2
v 4 8 -3
v 5 4 1
v 5 4 -1
v 5 5 1
v 5 5 -1
v 6 8 3
v 6 8 2
v 6 8 -2
v 6 8 -3
v 6 9 3
v 6 9 2
v 6 9 1
v 6 9 -1
v 6 9 -2
v 6 9 -3
v 6 10 1
v 6 10 -1
v 7 9 2
v 7 9 1
v 7 9 -1
v 7 9 -2
v 7 10 2
v 7 10 1
v 7 10 -1
v 7 10 -2
v 8 6 1
v 8 6 -1
v 8 8 1
v 8 8 -1
v 12 5 1
v 12 5 -1
v 12 6 2
v 12 6 1
v 12 6 -1
v 12 6 -2
v 12 8 2
v 12 8 1
v 12 8 -1
v 12 8 -2
v 12 9 1
v 12 9 -1
v 13 4 1
v 13 4 -1
v 13 5 2
v 13 5 1
v 13 5 -1
v 13 5 -2
v 13 6 3
v 13 6 2
v 13 6 1
v 13 6 -1
v 13 6 -2
v 13 6 -3
v 13 8 3
v 13 8 2
v 13 8 1
v 13 8 -1
v 13 8 -2
v 13 8 -3
v 13 9 2
v 13 9 1
v 13 9 -1
v 13 9 -2
v 13 10 1
v 13 10 -1
v 1 5 3
v 1 6 3
v 3 5 3
v 3 6 3
v 3 7 3
v 3 8 3
v 4 6 3
v 4 7 3
v 4 8 3
v 4 9 3
v 5 6 3
v 5 7 3
v 5 8 3
v 5 9 3
v 6 7 3
v 6 8 3
v 6 9 3
v 7 6 3
v 7 8 3
v 9 6 3
v 9 8 3
v 13 6 3
v 13 8 3
v 1 4 2
v 1 5 2
v 1 6 2
v 1 7 2
v 3 4 2
v 3 5 2
v 3 6 2
v 3 7 2
v 3 8 2
v 3 9 2
v 4 6 2
v 4 7 2
v 4 8 2
v 4 9 2
v 4 10 2
v 5 7 2
v 5 8 2
v 5 9 2
v 5 10 2
v 6 7 2
v 6 8 2
v 6 9 2
v 7 5 2
v 7 6 2
v 7 8 2
v 7 9 2
v 7 10 2
v 8 8 2
v 8 9 2
v 9 6 2
v 9 8 2
v 13 5 2
v 13 6 2
v 13 8 2
v 13 9 2
v -2 0 1
v -2 2 1
v -1 0 1
v -1 2 1
v -1 4 1
v -1 6 1
v -1 9 1
v -1 10 1
v 0 8 1
v 0 9 1
v 1 2 1
v 1 4 1
v 1 6 1
v 1 7 1
v 1 8 1
v 1 10 1
v 2 0 1
v 2 2 1
v 3 2 1
v 3 4 1
v 3 5 1
v 3 7 1
v 3 8 1
v 4 5 1
v 4 6 1
v 5 4 1
v 5 5 1
v 5 6 1
v 7 4 1
v 7 5 1
v 7 6 1
v 8 9 1
v 8 10 1
v 9 9 1
v 9 10 1
v 11 4 1
v 11 5 1
v 13 4 1
v 13 5 1
v 13 9 1
v 13 10 1
v 3 6 -1
v 3 8 -1
v 3 9 -1
v 4 6 -1
v 4 9 -1
v 4 10 -1
v 5 6 -1
v 5 10 -1
v 6 9 -1
v 6 10 -1
v 7 9 -1
v 7 10 -1
v 8 6 -1
v 8 8 -1
v 11 6 -1
v 11 8 -1
v 12 5 -1
v 12 6 -1
v 12 8 -1
v 12 9 -1
v 13 5 -1
v 13 6 -1
v 13 8 -1
v 13 9 -1
v 12 6 -2
v 12 8 -2
v 13 6 -2
v 13 8 -2
v 12 6 2
v 12 8 2
v 13 6 2
v 13 8 2
v 3 6 1
v 3 8 1
v 3 9 1
v 4 6 1
v 4 9 1
v 4 10 1
v 5 6 1
v 5 10 1
v 6 9 1
v 6 10 1
v 7 9 1
v 7 10 1
v 8 6 1
v 8 8 1
v 11 6 1
v 11 8 1
v 12 5 1
v 12 6 1
v 12 8 1
v 12 9 1
v 13 5 1
v 13 6 1
v 13 8 1
v 13 9 1
v -2 0 -1
v -2 2 -1
v -1 0 -1
v -1 2 -1
v -1 4 -1
v -1 6 -1
v -1 9 -1
v -1 10 -1
v 0 8 -1
v 0 9 -1
v 1 2 -1
v 1 4 -1
v 1 6 -1
v 1 7 -1
v 1 8 -1
v 1 10 -1
v 2 0 -1
v 2 2 -1
v 3 2 -1
v 3 4 -1
v 3 5 -1
v 3 7 -1
v 3 8 -1
v 4 5 -1
v 4 6 -1
v 5 4 -1
v 5 5 -1
v 5 6 -1
v 7 4 -1
v 7 5 -1
v 7 6 -1
v 8 9 -1
v 8 10 -1
v 9 9 -1
v 9 10 -1
v 11 4 -1
v 11 5 -1
v 13 4 -1
v 13 5 -1
v 13 9 -1
v 13 10 -1
v 1 4 -2
v 1 5 -2
v 1 6 -2
v 1 7 -2
v 3 4 -2
v 3 5 -2
v 3 6 -2
v 3 7 -2
v 3 8 -2
v 3 9 -2
v 4 6 -2
v 4 7 -2
v 4 8 -2
v 4 9 -2
v 4 10 -2
v 5 7 -2
v 5 8 -2
v 5 9 -2
v 5 10 -2
v 6 7 -2
v 6 8 -2
v 6 9 -2
v 7 5 -2
v 7 6 -2
v 7 8 -2
v 7 9 -2
v 7 10 -2
v 8 8 -2
v 8 9 -2
v 9 6 -2
v 9 8 -2
v 13 5 -2
v 13 6 -2
v 13 8 -2
v 13 9 -2
v 1 5 -3
v 1 6 -3
v 3 5 -3
v 3 6 -3
v 3 7 -3
v 3 8 -3
v 4 6 -3
v 4 7 -3
v 4 8 -3
v 4 9 -3
v 5 6 -3
v 5 7 -3
v 5 8 -3
v 5 9 -3
v 6 7 -3
v 6 8 -3
v 6 9 -3
v 7 6 -3
v 7 8 -3
v 9 6 -3
v 9 8 -3
v 13 6 -3
v 13 8 -3
v -2 0 1
v -1 0 1
v 2 0 1
v -2 0 -1
v -1 0 -1
v 2 0 -1
v 2 2 1
v 3 2 1
v 2 2 -1
v 3 2 -1
v 1 4 2
v 3 4 2
v 1 4 1
v 3 4 1
v 5 4 1
v 7 4 1
v 11 4 1
v 13 4 1
v 1 4 -1
v 3 4 -1
v 5 4 -1
v 7 4 -1
v 11 4 -1
v 13 4 -1
v 1 4 -2
v 3 4 -2
v 1 5 3
v 3 5 3
v 1 5 2
v 3 5 2
v 7 5 2
v 13 5 2
v 5 5 1
v 7 5 1
v 11 5 1
v 13 5 1
v 5 5 -1
v 7 5 -1
v 11 5 -1
v 13 5 -1
v 1 5 -2
v 3 5 -2
v 7 5 -2
v 13 5 -2
v 1 5 -3
v 3 5 -3
v 4 6 3
v 5 6 3
v 7 6 3
v 9 6 3
v 13 6 3
v 3 6 2
v 4 6 2
v 7 6 2
v 9 6 2
v 13 6 2
v 3 6 1
v 4 6 1
v 5 6 1
v 7 6 1
v 3 6 -1
v 4 6 -1
v 5 6 -1
v 7 6 -1
v 3 6 -2
v 4 6 -2
v 7 6 -2
v 9 6 -2
v 13 6 -2
v 4 6 -3
v 5 6 -3
v 7 6 -3
v 9 6 -3
v 13 6 -3
v 3 7 3
v 4 7 3
v 3 7 2
v 4 7 2
v 3 7 -2
v 4 7 -2
v 3 7 -3
v 4 7 -3
v 4 8 3
v 5 8 3
v 6 8 3
v 4 8 2
v 5 8 2
v 6 8 2
v 12 8 2
v 13 8 2
v 0 8 1
v 1 8 1
v 8 8 1
v 11 8 1
v 12 8 1
v 13 8 1
v 0 8 -1
v 1 8 -1
v 8 8 -1
v 11 8 -1
v 12 8 -1
v 13 8 -1
v 4 8 -2
v 5 8 -2
v 6 8 -2
v 12 8 -2
v 13 8 -2
v 4 8 -3
v 5 8 -3
v 6 8 -3
v -1 9 1
v 0 9 1
v 12 9 1
v 13 9 1
v -1 9 -1
v 0 9 -1
v 12 9 -1
v 13 9 -1
v -2 2 1
v -1 2 1
v -2 2 -1
v -1 2 -1
v 3 5 1
v 4 5 1
v 12 5 1
v 13 5 1
v 3 5 -1
v 4 5 -1
v 12 5 -1
v 13 5 -1
v 1 6 3
v 3 6 3
v 1 6 2
v 3 6 2
v 12 6 2
v 13 6 2
v -1 6 1
v 1 6 1
v 4 6 1
v 5 6 1
v 8 6 1
v 11 6 1
v 12 6 1
v 13 6 1
v -1 6 -1
v 1 6 -1
v 4 6 -1
v 5 6 -1
v 8 6 -1
v 11 6 -1
v 12 6 -1
v 13 6 -1
v 1 6 -2
v 3 6 -2
v 12 6 -2
v 13 6 -2
v 1 6 -3
v 3 6 -3
v 4 7 3
v 5 7 3
v 6 7 3
v 1 7 2
v 3 7 2
v 4 7 2
v 5 7 2
v 6 7 2
v 1 7 1
v 3 7 1
v 1 7 -1
v 3 7 -1
v 1 7 -2
v 3 7 -2
v 4 7 -2
v 5 7 -2
v 6 7 -2
v 4 7 -3
v 5 7 -3
v 6 7 -3
v 3 8 3
v 4 8 3
v 6 8 3
v 7 8 3
v 9 8 3
v 13 8 3
v 3 8 2
v 4 8 2
v 6 8 2
v 7 8 2
v 8 8 2
v 9 8 2
v 13 8 2
v 1 8 1
v 3 8 1
v 1 8 -1
v 3 8 -1
v 3 8 -2
v 4 8 -2
v 6 8 -2
v 7 8 -2
v 8 8 -2
v 9 8 -2
v 13 8 -2
v 3 8 -3
v 4 8 -3
v 6 8 -3
v 7 8 -3
v 9 8 -3
v 13 8 -3
v 4 9 3
v 5 9 3
v 6 9 3
v 3 9 2
v 4 9 2
v 5 9 2
v 6 9 2
v 7 9 2
v 8 9 2
v 13 9 2
v 3 9 1
v 4 9 1
v 6 9 1
v 7 9 1
v 8 9 1
v 9 9 1
v 13 9 1
v 3 9 -1
v 4 9 -1
v 6 9 -1
v 7 9 -1
v 8 9 -1
v 9 9 -1
v 13 9 -1
v 3 9 -2
v 4 9 -2
v 5 9 -2
v 6 9 -2
v 7 9 -2
v 8 9 -2
v 13 9 -2
v 4 9 -3
v 5 9 -3
v 6 9 -3
v 4 10 2
v 5 10 2
v 7 10 2
v -1 10 1
v 1 10 1
v 4 10 1
v 5 10 1
v 6 10 1
v 7 10 1
v 8 10 1
v 9 10 1
v 13 10 1
v -1 10 -1
v 1 10 -1
v 4 10 -1
v 5 10 -1
v 6 10 -1
v 7 10 -1
v 8 10 -1
v 9 10 -1
v 13 10 -1
v 4 10 -2
v 5 10 -2
v 7 10 -2

# faces
f 3/3/1 2/3/1 1/3/1
f 4/3/1 2/3/1 3/3/1
f 7/3/1 6/3/1 5/3/1
f 8/3/1 6/3/1 7/3/1
f 9/2/1 8/2/1 7/2/1
f 10/2/1 8/2/1 9/2/1
f 13/2/1 12/2/1 11/2/1
f 14/2/1 12/2/1 13/2/1
f 17/2/1 16/2/1 15/2/1
f 18/2/1 16/2/1 17/2/1
f 24/2/1 20/2/1 19/2/1
f 25/2/1 22/2/1 21/2/1
f 27/2/1 24/2/1 23/2/1
f 28/2/1 20/2/1 24/2/1
f 28/2/1 24/2/1 27/2/1
f 29/2/1 20/2/1 28/2/1
f 30/2/1 26/2/1 25/2/1
f 30/2/1 25/2/1 21/2/1
f 31/2/1 26/2/1 30/2/1
f 32/2/1 26/2/1 31/2/1
f 33/2/1 29/2/1 28/2/1
f 33/2/1 31/2/1 30/2/1
f 33/2/1 30/2/1 29/2/1
f 34/2/1 31/2/1 33/2/1
f 35/2/1 31/2/1 34/2/1
f 36/2/1 31/2/1 35/2/1
f 37/2/1 35/2/1 34/2/1
f 38/2/1 35/2/1 37/2/1
f 45/3/1 40/3/1 39/3/1
f 45/3/1 41/3/1 40/3/1
f 46/3/1 41/3/1 45/3/1
f 47/3/1 41/3/1 46/3/1
f 48/3/1 44/3/1 43/3/1
f 48/3/1 43/3/1 42/3/1
f 49/3/1 44/3/1 48/3/1
f 50/3/1 44/3/1 49/3/1
f 51/3/1 47/3/1 46/3/1
f 52/3/1 47/3/1 51/3/1
f 53/3/1 49/3/1 48/3/1
f 54/3/1 49/3/1 53/3/1
f 59/3/1 56/3/1 55/3/1
f 60/3/1 56/3/1 59/3/1
f 63/3/1 58/3/1 57/3/1
f 64/3/1 58/3/1 63/3/1
f 65/3/1 62/3/1 61/3/1
f 66/3/1 62/3/1 65/3/1
f 71/3/1 68/3/1 67/3/1
f 72/3/1 68/3/1 71/3/1
f 75/3/1 70/3/1 69/3/1
f 76/3/1 70/3/1 75/3/1
f 77/3/1 73/3/1 72/3/1
f 78/3/1 73/3/1 77/3/1
f 79/3/1 75/3/1 74/3/1
f 80/3/1 75/3/1 79/3/1
f 83/3/1 82/3/1 81/3/1
f 84/3/1 82/3/1 83/3/1
f 89/2/1 86/2/1 85/2/1
f 90/2/1 86/2/1 89/2/1
f 91/2/1 88/2/1 87/2/1
f 92/2/1 88/2/1 91/2/1
f 96/1/1 94/1/1 93/1/1
f 97/1/1 94/1/1 96/1/1
f 99/2/1 96/2/1 95/2/1
f 100/2/1 96/2/1 99/2/1
f 101/2/1 98/2/1 97/2/1
f 102/2/1 98/2/1 101/2/1
f 105/1/1 104/1/1 103/1/1
f 106/1/1 104/1/1 105/1/1
f 107/2/2 108/2/2 109/2/2
f 109/2/2 108/2/2 110/2/2
f 111/4/2 112/4/2 113/4/2
f 113/4/2 112/4/2 114/4/2
f 115/4/2 116/4/2 118/4/2
f 118/4/2 116/4/2 119/4/2
f 117/2/2 118/2/2 122/2/2
f 122/2/2 118/2/2 123/2/2
f 119/2/2 120/2/2 124/2/2
f 124/2/2 120/2/2 125/2/2
f 122/2/2 123/2/2 127/2/2
f 125/2/2 126/2/2 127/2/2
f 124/2/2 125/2/2 127/2/2
f 123/2/2 124/2/2 127/2/2
f 121/2/2 122/2/2 127/2/2
f 127/2/2 126/2/2 128/2/2
f 128/2/2 126/2/2 129/2/2
f 129/2/2 126/2/2 130/2/2
f 130/2/2 126/2/2 131/2/2
f 131/2/2 126/2/2 132/2/2
f 129/2/2 130/2/2 133/2/2
f 133/2/2 130/2/2 134/2/2
f 135/3/2 136/3/2 139/3/2
f 139/3/2 136/3/2 140/3/2
f 137/3/2 138/3/2 141/3/2
f 141/3/2 138/3/2 142/3/2
f 143/3/2 144/3/2 145/3/2
f 145/3/2 144/3/2 146/3/2
f 147/2/2 148/2/2 151/2/2
f 151/2/2 148/2/2 152/2/2
f 149/2/2 150/2/2 155/2/2
f 155/2/2 150/2/2 156/2/2
f 153/3/2 154/3/2 157/3/2
f 157/3/2 154/3/2 158/3/2
f 159/2/2 160/2/2 163/2/2
f 163/2/2 160/2/2 164/2/2
f 161/2/2 162/2/2 165/2/2
f 165/2/2 162/2/2 166/2/2
f 167/5/2 168/5/2 169/5/2
f 169/5/2 168/5/2 170/5/2
f 171/2/2 172/2/2 174/2/2
f 174/2/2 172/2/2 175/2/2
f 173/2/2 174/2/2 177/2/2
f 177/2/2 174/2/2 178/2/2
f 175/2/2 176/2/2 179/2/2
f 179/2/2 176/2/2 180/2/2
f 178/2/2 179/2/2 181/2/2
f 181/2/2 179/2/2 182/2/2
f 183/2/2 184/2/2 186/2/2
f 186/2/2 184/2/2 187/2/2
f 185/2/2 186/2/2 190/2/2
f 190/2/2 186/2/2 191/2/2
f 187/2/2 188/2/2 192/2/2
f 192/2/2 188/2/2 193/2/2
f 189/2/2 190/2/2 195/2/2
f 195/2/2 190/2/2 196/2/2
f 193/2/2 194/2/2 199/2/2
f 199/2/2 194/2/2 200/2/2
f 196/2/2 197/2/2 201/2/2
f 201/2/2 197/2/2 202/2/2
f 198/2/2 199/2/2 203/2/2
f 203/2/2 199/2/2 204/2/2
f 202/2/2 203/2/2 205/2/2
f 205/2/2 203/2/2 206/2/2
f 209/2/3 208/2/3 207/2/3
f 210/2/3 208/2/3 209/2/3
f 214/3/3 212/3/3 211/3/3
f 215/3/3 212/3/3 214/3/3
f 217/3/3 214/3/3 213/3/3
f 218/3/3 214/3/3 217/3/3
f 219/3/3 216/3/3 215/3/3
f 220/3/3 216/3/3 219/3/3
f 221/2/3 218/2/3 217/2/3
f 222/2/3 220/2/3 219/2/3
f 223/2/3 220/2/3 222/2/3
f 224/2/3 221/2/3 217/2/3
f 224/2/3 222/2/3 221/2/3
f 225/2/3 222/2/3 224/2/3
f 226/1/3 225/1/3 224/1/3
f 227/1/3 225/1/3 226/1/3
f 228/2/3 227/2/3 226/2/3
f 229/2/3 227/2/3 228/2/3
f 234/2/3 231/2/3 230/2/3
f 235/2/3 231/2/3 234/2/3
f 236/2/3 233/2/3 232/2/3
f 237/2/3 233/2/3 236/2/3
f 240/3/3 237/3/3 236/3/3
f 241/3/3 237/3/3 240/3/3
f 242/3/3 239/3/3 238/3/3
f 243/3/3 239/3/3 242/3/3
f 245/3/3 242/3/3 241/3/3
f 246/3/3 242/3/3 245/3/3
f 247/3/3 244/3/3 243/3/3
f 248/3/3 244/3/3 247/3/3
f 249/2/3 246/2/3 245/2/3
f 250/2/3 246/2/3 249/2/3
f 251/2/3 248/2/3 247/2/3
f 254/2/3 251/2/3 250/2/3
f 255/2/3 248/2/3 251/2/3
f 255/2/3 251/2/3 254/2/3
f 256/2/3 248/2/3 255/2/3
f 257/3/3 255/3/3 254/3/3
f 258/3/3 255/3/3 257/3/3
f 259/2/3 253/2/3 252/2/3
f 260/2/3 258/2/3 257/2/3
f 261/2/3 259/2/3 252/2/3
f 262/2/3 259/2/3 261/2/3
f 263/2/3 258/2/3 260/2/3
f 264/2/3 258/2/3 263/2/3
f 267/3/3 266/3/3 265/3/3
f 268/3/3 266/3/3 267/3/3
f 274/2/3 272/2/3 271/2/3
f 275/4/3 268/4/3 267/4/3
f 275/3/3 269/3/3 268/3/3
f 276/2/3 270/2/3 269/2/3
f 276/3/3 269/3/3 275/3/3
f 277/2/3 270/2/3 276/2/3
f 279/2/3 274/2/3 273/2/3
f 280/2/3 272/2/3 274/2/3
f 280/2/3 274/2/3 279/2/3
f 281/4/3 275/4/3 267/4/3
f 281/4/3 276/4/3 275/4/3
f 282/4/3 276/4/3 281/4/3
f 283/4/3 276/4/3 282/4/3
f 284/4/3 276/4/3 283/4/3
f 286/2/3 279/2/3 278/2/3
f 287/2/3 279/2/3 286/2/3
f 288/3/3 285/3/3 284/3/3
f 290/3/3 288/3/3 284/3/3
f 290/3/3 289/3/3 288/3/3
f 291/3/3 289/3/3 290/3/3
f 292/3/3 289/3/3 291/3/3
f 294/2/3 292/2/3 291/2/3
f 295/2/3 292/2/3 294/2/3
f 298/1/3 297/1/3 296/1/3
f 299/1/3 297/1/3 298/1/3
f 300/1/3 294/1/3 293/1/3
f 301/1/3 294/1/3 300/1/3
f 302/2/3 301/2/3 300/2/3
f 303/2/3 301/2/3 302/2/3
f 304/2/3 299/2/3 298/2/3
f 305/2/3 299/2/3 304/2/3
f 309/3/3 307/3/3 306/3/3
f 309/3/3 308/3/3 307/3/3
f 310/3/3 308/3/3 309/3/3
f 312/3/3 310/3/3 309/3/3
f 312/3/3 311/3/3 310/3/3
f 313/3/3 311/3/3 312/3/3
f 316/2/3 315/2/3 314/2/3
f 317/2/3 315/2/3 316/2/3
f 320/3/3 319/3/3 318/3/3
f 321/3/3 319/3/3 320/3/3
f 323/2/3 321/2/3 320/2/3
f 324/2/3 321/2/3 323/2/3
f 326/2/3 323/2/3 322/2/3
f 327/2/3 323/2/3 326/2/3
f 328/2/3 325/2/3 324/2/3
f 329/2/3 325/2/3 328/2/3
f 332/2/3 331/2/3 330/2/3
f 333/2/3 331/2/3 332/2/3
f 334/2/4 335/2/4 336/2/4
f 336/2/4 335/2/4 337/2/4
f 338/3/4 339/3/4 341/3/4
f 339/3/4 340/3/4 341/3/4
f 341/3/4 340/3/4 342/3/4
f 341/3/4 342/3/4 344/3/4
f 342/3/4 343/3/4 344/3/4
f 344/3/4 343/3/4 345/3/4
f 346/2/4 347/2/4 348/2/4
f 348/2/4 347/2/4 349/2/4
f 350/3/4 351/3/4 352/3/4
f 352/3/4 351/3/4 353/3/4
f 352/2/4 353/2/4 355/2/4
f 355/2/4 353/2/4 356/2/4
f 354/2/4 355/2/4 358/2/4
f 358/2/4 355/2/4 359/2/4
f 356/2/4 357/2/4 360/2/4
f 360/2/4 357/2/4 361/2/4
f 362/3/4 363/3/4 364/3/4
f 364/3/4 363/3/4 365/3/4
f 368/2/4 369/2/4 371/2/4
f 364/4/4 365/4/4 372/4/4
f 365/3/4 366/3/4 372/3/4
f 366/2/4 367/2/4 373/2/4
f 372/3/4 366/3/4 373/3/4
f 373/2/4 367/2/4 374/2/4
f 370/2/4 371/2/4 376/2/4
f 371/2/4 369/2/4 377/2/4
f 376/2/4 371/2/4 377/2/4
f 364/4/4 372/4/4 378/4/4
f 372/4/4 373/4/4 378/4/4
f 378/4/4 373/4/4 379/4/4
f 379/4/4 373/4/4 380/4/4
f 380/4/4 373/4/4 381/4/4
f 375/2/4 376/2/4 383/2/4
f 383/2/4 376/2/4 384/2/4
f 381/3/4 382/3/4 385/3/4
f 381/3/4 385/3/4 387/3/4
f 385/3/4 386/3/4 387/3/4
f 387/3/4 386/3/4 388/3/4
f 388/3/4 386/3/4 389/3/4
f 388/2/4 389/2/4 391/2/4
f 391/2/4 389/2/4 392/2/4
f 393/1/4 394/1/4 395/1/4
f 395/1/4 394/1/4 396/1/4
f 390/1/4 391/1/4 397/1/4
f 397/1/4 391/1/4 398/1/4
f 397/2/4 398/2/4 399/2/4
f 399/2/4 398/2/4 400/2/4
f 395/2/4 396/2/4 401/2/4
f 401/2/4 396/2/4 402/2/4
f 403/2/4 404/2/4 407/2/4
f 407/2/4 404/2/4 408/2/4
f 405/2/4 406/2/4 409/2/4
f 409/2/4 406/2/4 410/2/4
f 409/3/4 410/3/4 413/3/4
f 413/3/4 410/3/4 414/3/4
f 411/3/4 412/3/4 415/3/4
f 415/3/4 412/3/4 416/3/4
f 414/3/4 415/3/4 418/3/4
f 418/3/4 415/3/4 419/3/4
f 416/3/4 417/3/4 420/3/4
f 420/3/4 417/3/4 421/3/4
f 418/2/4 419/2/4 422/2/4
f 422/2/4 419/2/4 423/2/4
f 420/2/4 421/2/4 424/2/4
f 423/2/4 424/2/4 427/2/4
f 424/2/4 421/2/4 428/2/4
f 427/2/4 424/2/4 428/2/4
f 428/2/4 421/2/4 429/2/4
f 427/3/4 428/3/4 430/3/4
f 430/3/4 428/3/4 431/3/4
f 425/2/4 426/2/4 432/2/4
f 430/2/4 431/2/4 433/2/4
f 425/2/4 432/2/4 434/2/4
f 434/2/4 432/2/4 435/2/4
f 433/2/4 431/2/4 436/2/4
f 436/2/4 431/2/4 437/2/4
f 438/2/4 439/2/4 440/2/4
f 440/2/4 439/2/4 441/2/4
f 442/3/4 443/3/4 445/3/4
f 445/3/4 443/3/4 446/3/4
f 444/3/4 445/3/4 448/3/4
f 448/3/4 445/3/4 449/3/4
f 446/3/4 447/3/4 450/3/4
f 450/3/4 447/3/4 451/3/4
f 448/2/4 449/2/4 452/2/4
f 450/2/4 451/2/4 453/2/4
f 453/2/4 451/2/4 454/2/4
f 448/2/4 452/2/4 455/2/4
f 452/2/4 453/2/4 455/2/4
f 455/2/4 453/2/4 456/2/4
f 455/1/4 456/1/4 457/1/4
f 457/1/4 456/1/4 458/1/4
f 457/2/4 458/2/4 459/2/4
f 459/2/4 458/2/4 460/2/4
f 464/3/5 462/3/5 461/3/5
f 465/4/5 463/4/5 462/4/5
f 465/3/5 462/3/5 464/3/5
f 466/4/5 463/4/5 465/4/5
f 469/4/5 468/4/5 467/4/5
f 470/4/5 468/4/5 469/4/5
f 473/2/5 472/2/5 471/2/5
f 474/2/5 472/2/5 473/2/5
f 480/3/5 475/3/5 474/3/5
f 481/3/5 475/3/5 480/3/5
f 482/1/5 477/1/5 476/1/5
f 483/2/5 478/2/5 477/2/5
f 483/1/5 477/1/5 482/1/5
f 484/2/5 478/2/5 483/2/5
f 485/2/5 480/2/5 479/2/5
f 486/2/5 480/2/5 485/2/5
f 489/2/5 488/2/5 487/2/5
f 490/2/5 488/2/5 489/2/5
f 494/2/5 492/2/5 491/2/5
f 495/2/5 492/2/5 494/2/5
f 496/2/5 492/2/5 495/2/5
f 497/2/5 494/2/5 493/2/5
f 498/2/5 494/2/5 497/2/5
f 503/2/5 500/2/5 499/2/5
f 503/2/5 499/2/5 498/2/5
f 504/2/5 500/2/5 503/2/5
f 505/2/5 502/2/5 501/2/5
f 506/2/5 502/2/5 505/2/5
f 513/3/5 508/3/5 507/3/5
f 514/2/5 509/2/5 508/2/5
f 514/1/5 510/1/5 509/1/5
f 515/2/5 511/2/5 510/2/5
f 515/1/5 510/1/5 514/1/5
f 516/2/5 511/2/5 515/2/5
f 517/3/5 513/3/5 512/3/5
f 518/3/5 508/3/5 513/3/5
f 518/3/5 513/3/5 517/3/5
f 519/2/5 514/2/5 508/2/5
f 519/3/5 508/3/5 518/3/5
f 520/2/5 514/2/5 519/2/5
f 525/3/5 522/3/5 521/3/5
f 525/3/5 523/3/5 522/3/5
f 526/3/5 523/3/5 525/3/5
f 527/2/5 524/2/5 523/2/5
f 530/3/5 523/3/5 526/3/5
f 531/2/5 527/2/5 523/2/5
f 531/3/5 523/3/5 530/3/5
f 532/1/5 528/1/5 527/1/5
f 532/2/5 527/2/5 531/2/5
f 533/2/5 529/2/5 528/2/5
f 533/1/5 528/1/5 532/1/5
f 534/2/5 529/2/5 533/2/5
f 537/3/5 536/3/5 535/3/5
f 538/3/5 536/3/5 537/3/5
f 541/3/5 540/3/5 539/3/5
f 542/3/5 540/3/5 541/3/5
f 546/3/5 544/3/5 543/3/5
f 547/2/5 545/2/5 544/2/5
f 547/3/5 544/3/5 546/3/5
f 548/2/5 545/2/5 547/2/5
f 555/2/5 550/2/5 549/2/5
f 556/2/5 550/2/5 555/2/5
f 557/2/5 552/2/5 551/2/5
f 558/2/5 552/2/5 557/2/5
f 559/3/5 554/3/5 553/3/5
f 560/2/5 555/2/5 554/2/5
f 560/3/5 554/3/5 559/3/5
f 561/2/5 555/2/5 560/2/5
f 566/2/5 562/2/5 561/2/5
f 567/2/5 562/2/5 566/2/5
f 568/3/5 564/3/5 563/3/5
f 569/2/5 565/2/5 564/2/5
f 569/3/5 564/3/5 568/3/5
f 570/2/5 565/2/5 569/2/5
f 575/2/5 572/2/5 571/2/5
f 576/2/5 572/2/5 575/2/5
f 577/2/5 574/2/5 573/2/5
f 578/2/5 574/2/5 577/2/5
f 579/3/6 580/3/6 581/3/6
f 581/3/6 580/3/6 582/3/6
f 583/3/6 584/3/6 587/3/6
f 587/3/6 584/3/6 588/3/6
f 585/2/6 586/2/6 589/2/6
f 589/2/6 586/2/6 590/2/6
f 591/2/6 592/2/6 593/2/6
f 593/2/6 592/2/6 594/2/6
f 595/2/6 596/2/6 603/2/6
f 603/2/6 596/2/6 604/2/6
f 597/2/6 598/2/6 605/2/6
f 605/2/6 598/2/6 606/2/6
f 599/3/6 600/3/6 607/3/6
f 607/3/6 600/3/6 608/3/6
f 601/3/6 602/3/6 609/3/6
f 602/2/6 603/2/6 610/2/6
f 609/3/6 602/3/6 610/3/6
f 610/2/6 603/2/6 611/2/6
f 611/2/6 612/2/6 615/2/6
f 615/2/6 612/2/6 616/2/6
f 613/2/6 614/2/6 617/2/6
f 617/2/6 614/2/6 618/2/6
f 619/3/6 620/3/6 624/3/6
f 620/2/6 621/2/6 625/2/6
f 624/3/6 620/3/6 625/3/6
f 625/2/6 621/2/6 626/2/6
f 622/2/6 623/2/6 627/2/6
f 627/2/6 623/2/6 628/2/6
f 629/2/6 630/2/6 631/2/6
f 631/2/6 630/2/6 632/2/6
f 633/3/6 634/3/6 636/3/6
f 634/2/6 635/2/6 637/2/6
f 636/3/6 634/3/6 637/3/6
f 637/2/6 635/2/6 638/2/6
f 639/3/6 640/3/6 645/3/6
f 645/3/6 640/3/6 646/3/6
f 641/2/6 642/2/6 647/2/6
f 642/1/6 643/1/6 648/1/6
f 647/2/6 642/2/6 648/2/6
f 648/1/6 643/1/6 649/1/6
f 643/2/6 644/2/6 650/2/6
f 649/1/6 643/1/6 650/1/6
f 650/2/6 644/2/6 651/2/6
f 652/2/6 653/2/6 654/2/6
f 654/2/6 653/2/6 655/2/6
f 656/3/6 657/3/6 663/3/6
f 663/3/6 657/3/6 664/3/6
f 658/2/6 659/2/6 665/2/6
f 659/1/6 660/1/6 666/1/6
f 665/2/6 659/2/6 666/2/6
f 660/1/6 661/1/6 666/1/6
f 661/2/6 662/2/6 667/2/6
f 666/1/6 661/1/6 667/1/6
f 667/2/6 662/2/6 668/2/6
f 669/3/6 670/3/6 673/3/6
f 670/2/6 671/2/6 674/2/6
f 673/3/6 670/3/6 674/3/6
f 674/2/6 671/2/6 675/2/6
f 672/3/6 673/3/6 679/3/6
f 679/3/6 673/3/6 680/3/6
f 676/3/6 677/3/6 682/3/6
f 677/2/6 678/2/6 683/2/6
f 682/3/6 677/3/6 683/3/6
f 683/2/6 678/2/6 684/2/6
f 684/2/6 678/2/6 685/2/6
f 681/3/6 682/3/6 688/3/6
f 682/1/6 683/1/6 689/1/6
f 688/3/6 682/3/6 689/3/6
f 689/1/6 683/1/6 690/1/6
f 686/3/6 687/3/6 693/3/6
f 693/3/6 687/3/6 694/3/6
f 689/3/6 690/3/6 697/3/6
f 691/2/6 692/2/6 698/2/6
f 697/3/6 690/3/6 698/3/6
f 690/2/6 691/2/6 698/2/6
f 698/2/6 692/2/6 699/2/6
f 694/3/6 695/3/6 700/3/6
f 695/2/6 696/2/6 701/2/6
f 700/3/6 695/3/6 701/3/6
f 701/2/6 696/2/6 702/2/6
f 703/3/6 704/3/6 708/3/6
f 704/2/6 705/2/6 709/2/6
f 708/3/6 704/3/6 709/3/6
f 709/2/6 705/2/6 710/2/6
f 710/2/6 705/2/6 711/2/6
f 706/2/6 707/2/6 715/2/6
f 715/2/6 707/2/6 716/2/6
f 709/3/6 710/3/6 718/3/6
f 718/3/6 710/3/6 719/3/6
f 712/1/6 713/1/6 721/1/6
f 713/2/6 714/2/6 722/2/6
f 721/1/6 713/1/6 722/1/6
f 722/2/6 714/2/6 723/2/6
f 717/3/6 718/3/6 724/3/6
f 719/2/6 720/2/6 725/2/6
f 724/3/6 718/3/6 725/3/6
f 718/2/6 719/2/6 725/2/6
f 725/2/6 720/2/6 726/2/6
