# MagicaVoxel @ ephtracy

# material
mtllib Shotgun.mtl
usemtl palette

# normals
vn -1 0 0
vn 1 0 0
vn 0 0 1
vn 0 0 -1
vn 0 -1 0
vn 0 1 0

# texcoords
vt 0.306641 0.5
vt 0.978516 0.5
vt 0.982422 0.5
vt 0.986328 0.5
vt 0.990234 0.5

# verts
v -11 4 1
v -11 4 -1
v -11 5 2
v -11 5 1
v -11 5 -1
v -11 5 -2
v -11 6 2
v -11 6 1
v -11 6 -1
v -11 6 -2
v -11 7 1
v -11 7 -1
v -10 4 2
v -10 4 1
v -10 4 -1
v -10 4 -2
v -10 5 2
v -10 5 1
v -10 5 -1
v -10 5 -2
v -10 6 2
v -10 6 1
v -10 6 -1
v -10 6 -2
v -10 7 2
v -10 7 1
v -10 7 -1
v -10 7 -2
v -10 8 1
v -10 8 -1
v -9 7 2
v -9 7 1
v -9 7 -1
v -9 7 -2
v -9 8 2
v -9 8 1
v -9 8 -1
v -9 8 -2
v -9 9 1
v -9 9 -1
v -8 8 2
v -8 8 1
v -8 8 -1
v -8 8 -2
v -8 9 2
v -8 9 1
v -8 9 -1
v -8 9 -2
v -8 10 1
v -8 10 -1
v -7 9 2
v -7 9 1
v -7 9 -1
v -7 9 -2
v -7 10 2
v -7 10 1
v -7 10 -1
v -7 10 -2
v -7 11 1
v -7 11 -1
v -6 10 2
v -6 10 1
v -6 10 -1
v -6 10 -2
v -6 11 2
v -6 11 1
v -6 11 -1
v -6 11 -2
v -6 12 1
v -6 12 -1
v -5 11 2
v -5 11 1
v -5 11 -1
v -5 11 -2
v -5 12 2
v -5 12 1
v -5 12 -1
v -5 12 -2
v -3 12 1
v -3 12 -1
v -3 15 1
v -3 15 -1
v -2 7 1
v -2 7 -1
v -2 9 1
v -2 9 -1
v 1 8 3
v 1 8 1
v 1 8 -1
v 1 8 -3
v 1 9 4
v 1 9 3
v 1 9 2
v 1 9 1
v 1 9 -1
v 1 9 -2
v 1 9 -3
v 1 9 -4
v 1 12 2
v 1 12 1
v 1 12 -1
v 1 12 -2
v 1 13 4
v 1 13 3
v 1 13 1
v 1 13 -1
v 1 13 -3
v 1 13 -4
v 1 14 1
v 1 14 -1
v 1 15 3
v 1 15 1
v 1 15 -1
v 1 15 -3
v 9 8 1
v 9 8 -1
v 9 9 1
v 9 9 -1
v -7 4 2
v -7 4 1
v -7 4 -1
v -7 4 -2
v -7 5 2
v -7 5 1
v -7 5 -1
v -7 5 -2
v -7 6 2
v -7 6 -2
v -5 6 2
v -5 6 1
v -5 6 -1
v -5 6 -2
v -5 7 2
v -5 7 1
v -5 7 -1
v -5 7 -2
v -4 7 2
v -4 7 1
v -4 7 -1
v -4 7 -2
v -4 8 2
v -4 8 1
v -4 8 -1
v -4 8 -2
v -3 7 1
v -3 7 -1
v -3 8 2
v -3 8 1
v -3 8 -1
v -3 8 -2
v -3 9 2
v -3 9 1
v -3 9 -1
v -3 9 -2
v -2 6 1
v -2 6 -1
v -2 7 1
v -2 7 -1
v -2 14 1
v -2 14 -1
v -2 15 1
v -2 15 -1
v -1 7 1
v -1 7 -1
v -1 9 1
v -1 9 -1
v 3 9 3
v 3 9 1
v 3 9 -1
v 3 9 -3
v 3 13 3
v 3 13 1
v 3 13 -1
v 3 13 -3
v 3 14 3
v 3 14 1
v 3 14 -1
v 3 14 -3
v 3 15 3
v 3 15 1
v 3 15 -1
v 3 15 -3
v 11 8 1
v 11 8 -1
v 11 9 1
v 11 9 -1
v 18 8 3
v 18 8 1
v 18 8 -1
v 18 8 -3
v 18 9 4
v 18 9 3
v 18 9 1
v 18 9 -1
v 18 9 -3
v 18 9 -4
v 18 13 4
v 18 13 3
v 18 13 1
v 18 13 -1
v 18 13 -3
v 18 13 -4
v 18 14 3
v 18 14 1
v 18 14 -1
v 18 14 -3
v 1 9 4
v 1 13 4
v 18 9 4
v 18 13 4
v 1 8 3
v 1 9 3
v 1 13 3
v 1 15 3
v 2 8 3
v 2 9 3
v 3 8 3
v 3 9 3
v 3 13 3
v 3 14 3
v 3 15 3
v 18 8 3
v 18 9 3
v 18 13 3
v 18 14 3
v -11 5 2
v -11 6 2
v -10 4 2
v -10 5 2
v -10 6 2
v -10 7 2
v -9 4 2
v -9 5 2
v -9 6 2
v -9 7 2
v -9 8 2
v -8 4 2
v -8 5 2
v -8 6 2
v -8 7 2
v -8 8 2
v -8 9 2
v -7 4 2
v -7 5 2
v -7 6 2
v -7 7 2
v -7 8 2
v -7 9 2
v -7 10 2
v -6 6 2
v -6 7 2
v -6 8 2
v -6 9 2
v -6 10 2
v -6 11 2
v -5 6 2
v -5 7 2
v -5 8 2
v -5 9 2
v -5 10 2
v -5 11 2
v -5 12 2
v -4 7 2
v -4 8 2
v -4 9 2
v -3 8 2
v -3 9 2
v 1 9 2
v 1 12 2
v -11 4 1
v -11 5 1
v -11 6 1
v -11 7 1
v -10 4 1
v -10 5 1
v -10 6 1
v -10 7 1
v -10 8 1
v -9 7 1
v -9 8 1
v -9 9 1
v -8 8 1
v -8 9 1
v -8 10 1
v -7 9 1
v -7 10 1
v -7 11 1
v -6 10 1
v -6 11 1
v -6 12 1
v -5 6 1
v -5 7 1
v -5 11 1
v -5 12 1
v -4 7 1
v -4 8 1
v -3 7 1
v -3 8 1
v -3 12 1
v -3 15 1
v -2 6 1
v -2 7 1
v -2 9 1
v -2 13 1
v -2 14 1
v -2 15 1
v -1 7 1
v -1 9 1
v 1 12 1
v 1 13 1
v 1 14 1
v 3 9 1
v 3 13 1
v 18 9 1
v 18 13 1
v 1 8 -1
v 1 9 -1
v 1 14 -1
v 1 15 -1
v 2 8 -1
v 2 9 -1
v 3 8 -1
v 3 9 -1
v 3 13 -1
v 3 14 -1
v 3 15 -1
v 9 8 -1
v 9 9 -1
v 11 8 -1
v 11 9 -1
v 18 8 -1
v 18 9 -1
v 18 13 -1
v 18 14 -1
v 3 9 -3
v 3 13 -3
v 18 9 -3
v 18 13 -3
v 3 9 3
v 3 13 3
v 18 9 3
v 18 13 3
v 1 8 1
v 1 9 1
v 1 14 1
v 1 15 1
v 2 8 1
v 2 9 1
v 3 8 1
v 3 9 1
v 3 13 1
v 3 14 1
v 3 15 1
v 9 8 1
v 9 9 1
v 11 8 1
v 11 9 1
v 18 8 1
v 18 9 1
v 18 13 1
v 18 14 1
v -11 4 -1
v -11 5 -1
v -11 6 -1
v -11 7 -1
v -10 4 -1
v -10 5 -1
v -10 6 -1
v -10 7 -1
v -10 8 -1
v -9 7 -1
v -9 8 -1
v -9 9 -1
v -8 8 -1
v -8 9 -1
v -8 10 -1
v -7 9 -1
v -7 10 -1
v -7 11 -1
v -6 10 -1
v -6 11 -1
v -6 12 -1
v -5 6 -1
v -5 7 -1
v -5 11 -1
v -5 12 -1
v -4 7 -1
v -4 8 -1
v -3 7 -1
v -3 8 -1
v -3 12 -1
v -3 15 -1
v -2 6 -1
v -2 7 -1
v -2 9 -1
v -2 13 -1
v -2 14 -1
v -2 15 -1
v -1 7 -1
v -1 9 -1
v 1 12 -1
v 1 13 -1
v 1 14 -1
v 3 9 -1
v 3 13 -1
v 18 9 -1
v 18 13 -1
v -11 5 -2
v -11 6 -2
v -10 4 -2
v -10 5 -2
v -10 6 -2
v -10 7 -2
v -9 4 -2
v -9 5 -2
v -9 6 -2
v -9 7 -2
v -9 8 -2
v -8 4 -2
v -8 5 -2
v -8 6 -2
v -8 7 -2
v -8 8 -2
v -8 9 -2
v -7 4 -2
v -7 5 -2
v -7 6 -2
v -7 7 -2
v -7 8 -2
v -7 9 -2
v -7 10 -2
v -6 6 -2
v -6 7 -2
v -6 8 -2
v -6 9 -2
v -6 10 -2
v -6 11 -2
v -5 6 -2
v -5 7 -2
v -5 8 -2
v -5 9 -2
v -5 10 -2
v -5 11 -2
v -5 12 -2
v -4 7 -2
v -4 8 -2
v -4 9 -2
v -3 8 -2
v -3 9 -2
v 1 9 -2
v 1 12 -2
v 1 8 -3
v 1 9 -3
v 1 13 -3
v 1 15 -3
v 2 8 -3
v 2 9 -3
v 3 8 -3
v 3 9 -3
v 3 13 -3
v 3 14 -3
v 3 15 -3
v 18 8 -3
v 18 9 -3
v 18 13 -3
v 18 14 -3
v 1 9 -4
v 1 13 -4
v 18 9 -4
v 18 13 -4
v -10 4 2
v -9 4 2
v -8 4 2
v -7 4 2
v -11 4 1
v -10 4 1
v -8 4 1
v -7 4 1
v -11 4 -1
v -10 4 -1
v -8 4 -1
v -7 4 -1
v -10 4 -2
v -9 4 -2
v -8 4 -2
v -7 4 -2
v -11 5 2
v -10 5 2
v -11 5 1
v -10 5 1
v -11 5 -1
v -10 5 -1
v -11 5 -2
v -10 5 -2
v -7 6 2
v -6 6 2
v -5 6 2
v -5 6 1
v -2 6 1
v -5 6 -1
v -2 6 -1
v -7 6 -2
v -6 6 -2
v -5 6 -2
v -5 7 2
v -4 7 2
v -5 7 1
v -4 7 1
v -2 7 1
v -1 7 1
v -5 7 -1
v -4 7 -1
v -2 7 -1
v -1 7 -1
v -5 7 -2
v -4 7 -2
v 1 8 3
v 2 8 3
v 3 8 3
v 18 8 3
v -4 8 2
v -3 8 2
v -4 8 1
v -3 8 1
v 1 8 1
v 2 8 1
v 3 8 1
v 9 8 1
v 11 8 1
v 18 8 1
v -4 8 -1
v -3 8 -1
v 1 8 -1
v 2 8 -1
v 3 8 -1
v 9 8 -1
v 11 8 -1
v 18 8 -1
v -4 8 -2
v -3 8 -2
v 1 8 -3
v 2 8 -3
v 3 8 -3
v 18 8 -3
v 1 9 4
v 18 9 4
v 1 9 3
v 2 9 3
v 3 9 3
v 18 9 3
v -3 9 2
v 1 9 2
v -3 9 1
v -2 9 1
v -1 9 1
v 1 9 1
v 2 9 1
v 3 9 1
v 9 9 1
v 11 9 1
v 18 9 1
v -3 9 -1
v -2 9 -1
v -1 9 -1
v 1 9 -1
v 2 9 -1
v 3 9 -1
v 9 9 -1
v 11 9 -1
v 18 9 -1
v -3 9 -2
v 1 9 -2
v 1 9 -3
v 2 9 -3
v 3 9 -3
v 18 9 -3
v 1 9 -4
v 18 9 -4
v 3 13 3
v 18 13 3
v 3 13 1
v 18 13 1
v 3 13 -1
v 18 13 -1
v 3 13 -3
v 18 13 -3
v -11 6 2
v -10 6 2
v -11 6 1
v -10 6 1
v -11 6 -1
v -10 6 -1
v -11 6 -2
v -10 6 -2
v -10 7 2
v -9 7 2
v -11 7 1
v -10 7 1
v -9 7 1
v -3 7 1
v -2 7 1
v -11 7 -1
v -10 7 -1
v -9 7 -1
v -3 7 -1
v -2 7 -1
v -10 7 -2
v -9 7 -2
v -9 8 2
v -8 8 2
v -10 8 1
v -9 8 1
v -8 8 1
v -10 8 -1
v -9 8 -1
v -8 8 -1
v -9 8 -2
v -8 8 -2
v 3 9 3
v 18 9 3
v -8 9 2
v -7 9 2
v -9 9 1
v -8 9 1
v -7 9 1
v 3 9 1
v 18 9 1
v -9 9 -1
v -8 9 -1
v -7 9 -1
v 3 9 -1
v 18 9 -1
v -8 9 -2
v -7 9 -2
v 3 9 -3
v 18 9 -3
v -7 10 2
v -6 10 2
v -8 10 1
v -7 10 1
v -6 10 1
v -8 10 -1
v -7 10 -1
v -6 10 -1
v -7 10 -2
v -6 10 -2
v -6 11 2
v -5 11 2
v -7 11 1
v -6 11 1
v -5 11 1
v -7 11 -1
v -6 11 -1
v -5 11 -1
v -6 11 -2
v -5 11 -2
v -5 12 2
v 1 12 2
v -6 12 1
v -5 12 1
v -3 12 1
v 1 12 1
v -6 12 -1
v -5 12 -1
v -3 12 -1
v 1 12 -1
v -5 12 -2
v 1 12 -2
v 1 13 4
v 18 13 4
v 1 13 3
v 3 13 3
v 18 13 3
v 3 13 1
v 18 13 1
v 3 13 -1
v 18 13 -1
v 1 13 -3
v 3 13 -3
v 18 13 -3
v 1 13 -4
v 18 13 -4
v 3 14 3
v 18 14 3
v -2 14 1
v 1 14 1
v 3 14 1
v 18 14 1
v -2 14 -1
v 1 14 -1
v 3 14 -1
v 18 14 -1
v 3 14 -3
v 18 14 -3
v 1 15 3
v 3 15 3
v -3 15 1
v -2 15 1
v 1 15 1
v 3 15 1
v -3 15 -1
v -2 15 -1
v 1 15 -1
v 3 15 -1
v 1 15 -3
v 3 15 -3

# faces
f 4/4/1 2/4/1 1/4/1
f 5/4/1 2/4/1 4/4/1
f 7/5/1 4/5/1 3/5/1
f 8/4/1 5/4/1 4/4/1
f 8/5/1 4/5/1 7/5/1
f 9/5/1 6/5/1 5/5/1
f 9/4/1 5/4/1 8/4/1
f 10/5/1 6/5/1 9/5/1
f 11/4/1 9/4/1 8/4/1
f 12/4/1 9/4/1 11/4/1
f 17/5/1 14/5/1 13/5/1
f 18/5/1 14/5/1 17/5/1
f 19/5/1 16/5/1 15/5/1
f 20/5/1 16/5/1 19/5/1
f 25/5/1 22/5/1 21/5/1
f 26/5/1 22/5/1 25/5/1
f 27/5/1 24/5/1 23/5/1
f 28/5/1 24/5/1 27/5/1
f 29/4/1 27/4/1 26/4/1
f 30/4/1 27/4/1 29/4/1
f 35/5/1 32/5/1 31/5/1
f 36/5/1 32/5/1 35/5/1
f 37/5/1 34/5/1 33/5/1
f 38/5/1 34/5/1 37/5/1
f 39/4/1 37/4/1 36/4/1
f 40/4/1 37/4/1 39/4/1
f 45/5/1 42/5/1 41/5/1
f 46/5/1 42/5/1 45/5/1
f 47/5/1 44/5/1 43/5/1
f 48/5/1 44/5/1 47/5/1
f 49/4/1 47/4/1 46/4/1
f 50/4/1 47/4/1 49/4/1
f 55/5/1 52/5/1 51/5/1
f 56/5/1 52/5/1 55/5/1
f 57/5/1 54/5/1 53/5/1
f 58/5/1 54/5/1 57/5/1
f 59/4/1 57/4/1 56/4/1
f 60/4/1 57/4/1 59/4/1
f 65/5/1 62/5/1 61/5/1
f 66/5/1 62/5/1 65/5/1
f 67/5/1 64/5/1 63/5/1
f 68/5/1 64/5/1 67/5/1
f 69/4/1 67/4/1 66/4/1
f 70/4/1 67/4/1 69/4/1
f 75/5/1 72/5/1 71/5/1
f 76/5/1 72/5/1 75/5/1
f 77/5/1 74/5/1 73/5/1
f 78/5/1 74/5/1 77/5/1
f 81/4/1 80/4/1 79/4/1
f 82/4/1 80/4/1 81/4/1
f 85/4/1 84/4/1 83/4/1
f 86/4/1 84/4/1 85/4/1
f 92/2/1 88/2/1 87/2/1
f 93/2/1 88/2/1 92/2/1
f 94/2/1 88/2/1 93/2/1
f 95/2/1 90/2/1 89/2/1
f 96/2/1 90/2/1 95/2/1
f 97/2/1 90/2/1 96/2/1
f 99/2/1 93/2/1 92/2/1
f 102/2/1 97/2/1 96/2/1
f 103/3/1 92/3/1 91/3/1
f 104/2/1 100/2/1 99/2/1
f 104/3/1 92/3/1 103/3/1
f 104/2/1 99/2/1 92/2/1
f 105/2/1 100/2/1 104/2/1
f 106/2/1 102/2/1 101/2/1
f 107/3/1 98/3/1 97/3/1
f 107/2/1 102/2/1 106/2/1
f 107/2/1 97/2/1 102/2/1
f 108/3/1 98/3/1 107/3/1
f 109/2/1 105/2/1 104/2/1
f 110/2/1 107/2/1 106/2/1
f 111/2/1 109/2/1 104/2/1
f 112/2/1 109/2/1 111/2/1
f 113/2/1 107/2/1 110/2/1
f 114/2/1 107/2/1 113/2/1
f 117/3/1 116/3/1 115/3/1
f 118/3/1 116/3/1 117/3/1
f 119/5/2 120/5/2 123/5/2
f 120/4/2 121/4/2 124/4/2
f 123/5/2 120/5/2 124/5/2
f 121/5/2 122/5/2 125/5/2
f 124/4/2 121/4/2 125/4/2
f 125/5/2 122/5/2 126/5/2
f 123/4/2 124/4/2 127/4/2
f 124/4/2 125/4/2 127/4/2
f 125/4/2 126/4/2 127/4/2
f 127/4/2 126/4/2 128/4/2
f 129/5/2 130/5/2 133/5/2
f 133/5/2 130/5/2 134/5/2
f 131/5/2 132/5/2 135/5/2
f 135/5/2 132/5/2 136/5/2
f 137/5/2 138/5/2 141/5/2
f 141/5/2 138/5/2 142/5/2
f 139/5/2 140/5/2 143/5/2
f 143/5/2 140/5/2 144/5/2
f 145/4/2 146/4/2 148/4/2
f 148/4/2 146/4/2 149/4/2
f 147/5/2 148/5/2 151/5/2
f 148/4/2 149/4/2 152/4/2
f 151/5/2 148/5/2 152/5/2
f 149/5/2 150/5/2 153/5/2
f 152/4/2 149/4/2 153/4/2
f 153/5/2 150/5/2 154/5/2
f 155/4/2 156/4/2 157/4/2
f 157/4/2 156/4/2 158/4/2
f 159/4/2 160/4/2 161/4/2
f 161/4/2 160/4/2 162/4/2
f 163/4/2 164/4/2 165/4/2
f 165/4/2 164/4/2 166/4/2
f 167/1/2 168/1/2 171/1/2
f 171/1/2 168/1/2 172/1/2
f 169/1/2 170/1/2 173/1/2
f 173/1/2 170/1/2 174/1/2
f 172/3/2 173/3/2 176/3/2
f 176/3/2 173/3/2 177/3/2
f 175/2/2 176/2/2 179/2/2
f 179/2/2 176/2/2 180/2/2
f 177/2/2 178/2/2 181/2/2
f 181/2/2 178/2/2 182/2/2
f 183/3/2 184/3/2 185/3/2
f 185/3/2 184/3/2 186/3/2
f 187/3/2 188/3/2 192/3/2
f 192/3/2 188/3/2 193/3/2
f 189/3/2 190/3/2 194/3/2
f 194/3/2 190/3/2 195/3/2
f 191/3/2 192/3/2 197/3/2
f 197/3/2 192/3/2 198/3/2
f 193/3/2 194/3/2 199/3/2
f 199/3/2 194/3/2 200/3/2
f 195/3/2 196/3/2 201/3/2
f 201/3/2 196/3/2 202/3/2
f 198/3/2 199/3/2 203/3/2
f 203/3/2 199/3/2 204/3/2
f 200/3/2 201/3/2 205/3/2
f 205/3/2 201/3/2 206/3/2
f 209/3/3 208/3/3 207/3/3
f 210/3/3 208/3/3 209/3/3
f 215/2/3 212/2/3 211/2/3
f 216/2/3 212/2/3 215/2/3
f 217/5/3 216/5/3 215/5/3
f 218/5/3 216/5/3 217/5/3
f 219/2/3 214/2/3 213/2/3
f 220/2/3 214/2/3 219/2/3
f 221/2/3 214/2/3 220/2/3
f 222/3/3 218/3/3 217/3/3
f 223/3/3 218/3/3 222/3/3
f 224/3/3 220/3/3 219/3/3
f 225/3/3 220/3/3 224/3/3
f 229/5/3 227/5/3 226/5/3
f 230/5/3 227/5/3 229/5/3
f 232/5/3 229/5/3 228/5/3
f 233/4/3 230/4/3 229/4/3
f 233/5/3 229/5/3 232/5/3
f 234/5/3 231/5/3 230/5/3
f 234/4/3 230/4/3 233/4/3
f 235/5/3 231/5/3 234/5/3
f 237/4/3 233/4/3 232/4/3
f 238/5/3 234/5/3 233/5/3
f 238/4/3 233/4/3 237/4/3
f 239/4/3 235/4/3 234/4/3
f 239/5/3 234/5/3 238/5/3
f 240/5/3 236/5/3 235/5/3
f 240/4/3 235/4/3 239/4/3
f 241/5/3 236/5/3 240/5/3
f 243/5/3 238/5/3 237/5/3
f 244/4/3 239/4/3 238/4/3
f 244/5/3 238/5/3 243/5/3
f 245/5/3 240/5/3 239/5/3
f 245/4/3 239/4/3 244/4/3
f 246/4/3 241/4/3 240/4/3
f 246/5/3 240/5/3 245/5/3
f 247/5/3 242/5/3 241/5/3
f 247/4/3 241/4/3 246/4/3
f 248/5/3 242/5/3 247/5/3
f 250/4/3 246/4/3 245/4/3
f 251/5/3 247/5/3 246/5/3
f 251/4/3 246/4/3 250/4/3
f 252/4/3 248/4/3 247/4/3
f 252/5/3 247/5/3 251/5/3
f 253/5/3 249/5/3 248/5/3
f 253/4/3 248/4/3 252/4/3
f 254/5/3 249/5/3 253/5/3
f 256/5/3 251/5/3 250/5/3
f 257/4/3 252/4/3 251/4/3
f 257/5/3 251/5/3 256/5/3
f 258/5/3 253/5/3 252/5/3
f 258/4/3 252/4/3 257/4/3
f 259/4/3 254/4/3 253/4/3
f 259/5/3 253/5/3 258/5/3
f 260/5/3 255/5/3 254/5/3
f 260/4/3 254/4/3 259/4/3
f 261/5/3 255/5/3 260/5/3
f 263/5/3 258/5/3 257/5/3
f 264/4/3 259/4/3 258/4/3
f 264/5/3 258/5/3 263/5/3
f 265/5/3 262/5/3 261/5/3
f 265/4/3 259/4/3 264/4/3
f 265/5/3 261/5/3 260/5/3
f 265/5/3 260/5/3 259/5/3
f 266/5/3 265/5/3 264/5/3
f 267/5/3 262/5/3 265/5/3
f 267/5/3 265/5/3 266/5/3
f 268/5/3 262/5/3 267/5/3
f 269/5/3 262/5/3 268/5/3
f 274/4/3 271/4/3 270/4/3
f 275/4/3 271/4/3 274/4/3
f 276/4/3 273/4/3 272/4/3
f 277/4/3 273/4/3 276/4/3
f 279/4/3 278/4/3 277/4/3
f 280/4/3 278/4/3 279/4/3
f 282/4/3 281/4/3 280/4/3
f 283/4/3 281/4/3 282/4/3
f 285/4/3 284/4/3 283/4/3
f 286/4/3 284/4/3 285/4/3
f 288/4/3 287/4/3 286/4/3
f 289/4/3 287/4/3 288/4/3
f 293/4/3 290/4/3 289/4/3
f 294/4/3 290/4/3 293/4/3
f 295/4/3 292/4/3 291/4/3
f 297/4/3 295/4/3 291/4/3
f 297/4/3 296/4/3 295/4/3
f 298/4/3 296/4/3 297/4/3
f 301/4/3 297/4/3 291/4/3
f 302/4/3 297/4/3 301/4/3
f 304/4/3 300/4/3 299/4/3
f 305/4/3 300/4/3 304/4/3
f 306/4/3 300/4/3 305/4/3
f 307/4/3 303/4/3 302/4/3
f 308/4/3 303/4/3 307/4/3
f 309/4/3 304/4/3 299/4/3
f 310/3/3 305/3/3 304/3/3
f 310/4/3 304/4/3 309/4/3
f 311/3/3 305/3/3 310/3/3
f 314/3/3 313/3/3 312/3/3
f 315/3/3 313/3/3 314/3/3
f 320/2/3 317/2/3 316/2/3
f 321/2/3 317/2/3 320/2/3
f 322/5/3 321/5/3 320/5/3
f 323/5/3 321/5/3 322/5/3
f 325/2/3 319/2/3 318/2/3
f 326/2/3 319/2/3 325/2/3
f 327/3/3 323/3/3 322/3/3
f 328/3/3 323/3/3 327/3/3
f 331/3/3 330/3/3 329/3/3
f 332/3/3 330/3/3 331/3/3
f 333/3/3 325/3/3 324/3/3
f 334/3/3 325/3/3 333/3/3
f 337/3/3 336/3/3 335/3/3
f 338/3/3 336/3/3 337/3/3
f 339/3/4 340/3/4 341/3/4
f 341/3/4 340/3/4 342/3/4
f 343/2/4 344/2/4 347/2/4
f 347/2/4 344/2/4 348/2/4
f 347/5/4 348/5/4 349/5/4
f 349/5/4 348/5/4 350/5/4
f 345/2/4 346/2/4 352/2/4
f 352/2/4 346/2/4 353/2/4
f 349/3/4 350/3/4 354/3/4
f 354/3/4 350/3/4 355/3/4
f 356/3/4 357/3/4 358/3/4
f 358/3/4 357/3/4 359/3/4
f 351/3/4 352/3/4 360/3/4
f 360/3/4 352/3/4 361/3/4
f 362/4/4 363/4/4 366/4/4
f 366/4/4 363/4/4 367/4/4
f 364/4/4 365/4/4 368/4/4
f 368/4/4 365/4/4 369/4/4
f 369/4/4 370/4/4 371/4/4
f 371/4/4 370/4/4 372/4/4
f 372/4/4 373/4/4 374/4/4
f 374/4/4 373/4/4 375/4/4
f 375/4/4 376/4/4 377/4/4
f 377/4/4 376/4/4 378/4/4
f 378/4/4 379/4/4 380/4/4
f 380/4/4 379/4/4 381/4/4
f 381/4/4 382/4/4 385/4/4
f 385/4/4 382/4/4 386/4/4
f 383/4/4 384/4/4 387/4/4
f 383/4/4 387/4/4 389/4/4
f 387/4/4 388/4/4 389/4/4
f 389/4/4 388/4/4 390/4/4
f 383/4/4 389/4/4 393/4/4
f 393/4/4 389/4/4 394/4/4
f 391/4/4 392/4/4 396/4/4
f 396/4/4 392/4/4 397/4/4
f 397/4/4 392/4/4 398/4/4
f 394/4/4 395/4/4 399/4/4
f 399/4/4 395/4/4 400/4/4
f 391/4/4 396/4/4 401/4/4
f 396/3/4 397/3/4 402/3/4
f 401/4/4 396/4/4 402/4/4
f 402/3/4 397/3/4 403/3/4
f 404/3/4 405/3/4 406/3/4
f 406/3/4 405/3/4 407/3/4
f 408/5/4 409/5/4 411/5/4
f 411/5/4 409/5/4 412/5/4
f 410/5/4 411/5/4 414/5/4
f 411/4/4 412/4/4 415/4/4
f 414/5/4 411/5/4 415/5/4
f 412/5/4 413/5/4 416/5/4
f 415/4/4 412/4/4 416/4/4
f 416/5/4 413/5/4 417/5/4
f 414/4/4 415/4/4 419/4/4
f 415/5/4 416/5/4 420/5/4
f 419/4/4 415/4/4 420/4/4
f 416/4/4 417/4/4 421/4/4
f 420/5/4 416/5/4 421/5/4
f 417/5/4 418/5/4 422/5/4
f 421/4/4 417/4/4 422/4/4
f 422/5/4 418/5/4 423/5/4
f 419/5/4 420/5/4 425/5/4
f 420/4/4 421/4/4 426/4/4
f 425/5/4 420/5/4 426/5/4
f 421/5/4 422/5/4 427/5/4
f 426/4/4 421/4/4 427/4/4
f 422/4/4 423/4/4 428/4/4
f 427/5/4 422/5/4 428/5/4
f 423/5/4 424/5/4 429/5/4
f 428/4/4 423/4/4 429/4/4
f 429/5/4 424/5/4 430/5/4
f 427/4/4 428/4/4 432/4/4
f 428/5/4 429/5/4 433/5/4
f 432/4/4 428/4/4 433/4/4
f 429/4/4 430/4/4 434/4/4
f 433/5/4 429/5/4 434/5/4
f 430/5/4 431/5/4 435/5/4
f 434/4/4 430/4/4 435/4/4
f 435/5/4 431/5/4 436/5/4
f 432/5/4 433/5/4 438/5/4
f 433/4/4 434/4/4 439/4/4
f 438/5/4 433/5/4 439/5/4
f 434/5/4 435/5/4 440/5/4
f 439/4/4 434/4/4 440/4/4
f 435/4/4 436/4/4 441/4/4
f 440/5/4 435/5/4 441/5/4
f 436/5/4 437/5/4 442/5/4
f 441/4/4 436/4/4 442/4/4
f 442/5/4 437/5/4 443/5/4
f 439/5/4 440/5/4 445/5/4
f 440/4/4 441/4/4 446/4/4
f 445/5/4 440/5/4 446/5/4
f 443/5/4 444/5/4 447/5/4
f 446/4/4 441/4/4 447/4/4
f 442/5/4 443/5/4 447/5/4
f 441/5/4 442/5/4 447/5/4
f 446/5/4 447/5/4 448/5/4
f 447/5/4 444/5/4 449/5/4
f 448/5/4 447/5/4 449/5/4
f 449/5/4 444/5/4 450/5/4
f 450/5/4 444/5/4 451/5/4
f 452/2/4 453/2/4 456/2/4
f 456/2/4 453/2/4 457/2/4
f 456/5/4 457/5/4 458/5/4
f 458/5/4 457/5/4 459/5/4
f 454/2/4 455/2/4 460/2/4
f 460/2/4 455/2/4 461/2/4
f 461/2/4 455/2/4 462/2/4
f 458/3/4 459/3/4 463/3/4
f 463/3/4 459/3/4 464/3/4
f 460/3/4 461/3/4 465/3/4
f 465/3/4 461/3/4 466/3/4
f 467/3/4 468/3/4 469/3/4
f 469/3/4 468/3/4 470/3/4
f 476/5/5 472/5/5 471/5/5
f 477/5/5 474/5/5 473/5/5
f 477/4/5 473/4/5 472/4/5
f 478/5/5 474/5/5 477/5/5
f 479/4/5 476/4/5 475/4/5
f 480/5/5 472/5/5 476/5/5
f 480/4/5 476/4/5 479/4/5
f 481/4/5 477/4/5 472/4/5
f 481/4/5 478/4/5 477/4/5
f 482/4/5 478/4/5 481/4/5
f 483/5/5 472/5/5 480/5/5
f 484/4/5 481/4/5 472/4/5
f 484/5/5 472/5/5 483/5/5
f 485/5/5 482/5/5 481/5/5
f 485/4/5 481/4/5 484/4/5
f 486/5/5 482/5/5 485/5/5
f 489/5/5 488/5/5 487/5/5
f 490/5/5 488/5/5 489/5/5
f 493/5/5 492/5/5 491/5/5
f 494/5/5 492/5/5 493/5/5
f 498/5/5 497/5/5 496/5/5
f 500/5/5 498/5/5 496/5/5
f 500/4/5 499/4/5 498/4/5
f 501/4/5 499/4/5 500/4/5
f 502/4/5 496/4/5 495/4/5
f 503/5/5 500/5/5 496/5/5
f 503/4/5 496/4/5 502/4/5
f 504/5/5 500/5/5 503/5/5
f 507/5/5 506/5/5 505/5/5
f 508/5/5 506/5/5 507/5/5
f 513/4/5 510/4/5 509/4/5
f 514/4/5 510/4/5 513/4/5
f 515/5/5 512/5/5 511/5/5
f 516/5/5 512/5/5 515/5/5
f 523/5/5 522/5/5 521/5/5
f 524/5/5 522/5/5 523/5/5
f 525/2/5 518/2/5 517/2/5
f 526/5/5 519/5/5 518/5/5
f 526/2/5 518/2/5 525/2/5
f 527/3/5 520/3/5 519/3/5
f 527/5/5 519/5/5 526/5/5
f 528/3/5 520/3/5 527/3/5
f 529/3/5 520/3/5 528/3/5
f 530/3/5 520/3/5 529/3/5
f 536/3/5 529/3/5 528/3/5
f 537/3/5 529/3/5 536/3/5
f 539/5/5 532/5/5 531/5/5
f 540/5/5 532/5/5 539/5/5
f 541/2/5 534/2/5 533/2/5
f 542/5/5 535/5/5 534/5/5
f 542/2/5 534/2/5 541/2/5
f 543/3/5 538/3/5 537/3/5
f 543/5/5 535/5/5 542/5/5
f 543/3/5 536/3/5 535/3/5
f 543/3/5 537/3/5 536/3/5
f 544/3/5 538/3/5 543/3/5
f 547/3/5 546/3/5 545/3/5
f 548/3/5 546/3/5 547/3/5
f 549/3/5 546/3/5 548/3/5
f 550/3/5 546/3/5 549/3/5
f 553/5/5 552/5/5 551/5/5
f 554/5/5 552/5/5 553/5/5
f 555/5/5 552/5/5 554/5/5
f 556/5/5 552/5/5 555/5/5
f 562/4/5 554/4/5 553/4/5
f 563/4/5 554/4/5 562/4/5
f 564/4/5 556/4/5 555/4/5
f 564/4/5 557/4/5 556/4/5
f 564/4/5 558/4/5 557/4/5
f 565/4/5 558/4/5 564/4/5
f 566/4/5 558/4/5 565/4/5
f 567/3/5 559/3/5 558/3/5
f 567/4/5 558/4/5 566/4/5
f 568/3/5 559/3/5 567/3/5
f 569/3/5 561/3/5 560/3/5
f 570/3/5 561/3/5 569/3/5
f 571/5/5 563/5/5 562/5/5
f 571/5/5 565/5/5 564/5/5
f 571/5/5 564/5/5 563/5/5
f 572/5/5 565/5/5 571/5/5
f 577/3/5 574/3/5 573/3/5
f 577/3/5 576/3/5 575/3/5
f 577/3/5 575/3/5 574/3/5
f 578/3/5 576/3/5 577/3/5
f 581/3/5 580/3/5 579/3/5
f 582/3/5 580/3/5 581/3/5
f 585/3/5 584/3/5 583/3/5
f 586/3/5 584/3/5 585/3/5
f 587/5/6 588/5/6 589/5/6
f 589/5/6 588/5/6 590/5/6
f 591/5/6 592/5/6 593/5/6
f 593/5/6 592/5/6 594/5/6
f 595/5/6 596/5/6 598/5/6
f 598/5/6 596/5/6 599/5/6
f 597/4/6 598/4/6 602/4/6
f 602/4/6 598/4/6 603/4/6
f 600/4/6 601/4/6 605/4/6
f 605/4/6 601/4/6 606/4/6
f 603/5/6 604/5/6 607/5/6
f 607/5/6 604/5/6 608/5/6
f 609/5/6 610/5/6 612/5/6
f 612/5/6 610/5/6 613/5/6
f 611/4/6 612/4/6 614/4/6
f 614/4/6 612/4/6 615/4/6
f 615/5/6 616/5/6 617/5/6
f 617/5/6 616/5/6 618/5/6
f 621/5/6 622/5/6 624/5/6
f 624/5/6 622/5/6 625/5/6
f 619/3/6 620/3/6 626/3/6
f 626/3/6 620/3/6 627/3/6
f 623/4/6 624/4/6 628/4/6
f 628/4/6 624/4/6 629/4/6
f 629/5/6 630/5/6 633/5/6
f 633/5/6 630/5/6 634/5/6
f 631/3/6 632/3/6 635/3/6
f 635/3/6 632/3/6 636/3/6
f 637/5/6 638/5/6 640/5/6
f 640/5/6 638/5/6 641/5/6
f 639/4/6 640/4/6 642/4/6
f 642/4/6 640/4/6 643/4/6
f 643/5/6 644/5/6 645/5/6
f 645/5/6 644/5/6 646/5/6
f 647/5/6 648/5/6 650/5/6
f 650/5/6 648/5/6 651/5/6
f 649/4/6 650/4/6 652/4/6
f 652/4/6 650/4/6 653/4/6
f 653/5/6 654/5/6 655/5/6
f 655/5/6 654/5/6 656/5/6
f 657/5/6 658/5/6 660/5/6
f 660/5/6 658/5/6 661/5/6
f 661/5/6 658/5/6 662/5/6
f 659/4/6 660/4/6 663/4/6
f 660/4/6 661/4/6 663/4/6
f 663/4/6 661/4/6 664/4/6
f 664/4/6 661/4/6 665/4/6
f 665/5/6 666/5/6 667/5/6
f 664/5/6 665/5/6 667/5/6
f 667/5/6 666/5/6 668/5/6
f 669/3/6 670/3/6 671/3/6
f 671/3/6 670/3/6 672/3/6
f 672/3/6 670/3/6 673/3/6
f 674/3/6 675/3/6 676/3/6
f 676/3/6 675/3/6 677/3/6
f 678/3/6 679/3/6 681/3/6
f 679/3/6 680/3/6 681/3/6
f 681/3/6 680/3/6 682/3/6
f 683/3/6 684/3/6 687/3/6
f 687/3/6 684/3/6 688/3/6
f 685/3/6 686/3/6 689/3/6
f 686/3/6 687/3/6 689/3/6
f 689/3/6 687/3/6 690/3/6
f 690/3/6 687/3/6 691/3/6
f 691/3/6 692/3/6 693/3/6
f 693/3/6 692/3/6 694/3/6
f 695/2/6 696/2/6 699/2/6
f 699/2/6 696/2/6 700/2/6
f 697/4/6 698/4/6 701/4/6
f 701/4/6 698/4/6 702/4/6
f 703/2/6 704/2/6 705/2/6
f 705/2/6 704/2/6 706/2/6
