# MagicaVoxel @ ephtracy

# material
mtllib Street Lamp.mtl
usemtl palette

# normals
vn -1 0 0
vn 1 0 0
vn 0 0 1
vn 0 0 -1
vn 0 -1 0
vn 0 1 0

# texcoords
vt 0.189453 0.5
vt 0.470703 0.5
vt 0.501953 0.5
vt 0.970703 0.5

# verts
v 0 0 -1
v 0 0 -8
v 0 4 -1
v 0 4 -8
v 1 4 -2
v 1 4 -7
v 1 13 -2
v 1 13 -7
v 1 47 -2
v 1 47 -7
v 1 48 -2
v 1 48 -7
v 1 67 -21
v 1 67 -26
v 1 68 -21
v 1 68 -26
v 2 13 -3
v 2 13 -6
v 2 47 -3
v 2 47 -6
v 2 48 -3
v 2 48 -6
v 2 50 -3
v 2 50 -6
v 2 65 -22
v 2 65 -25
v 2 66 -3
v 2 66 -6
v 2 67 -22
v 2 67 -25
v 2 68 -2
v 2 68 -3
v 2 68 -6
v 2 68 -7
v 2 68 -22
v 2 68 -25
v 2 71 -2
v 2 71 -7
v 2 73 -3
v 2 73 -6
v 2 73 -22
v 2 73 -25
v 2 74 -3
v 2 74 -6
v 3 50 -4
v 3 50 -5
v 3 64 -23
v 3 64 -24
v 3 65 -23
v 3 65 -24
v 3 66 -4
v 3 66 -5
v 3 69 -0
v 3 69 -2
v 3 69 -7
v 3 69 -9
v 3 70 1
v 3 70 -0
v 3 70 -1
v 3 70 -2
v 3 70 -7
v 3 70 -8
v 3 70 -9
v 3 70 -10
v 3 71 2
v 3 71 1
v 3 71 -0
v 3 71 -1
v 3 71 -4
v 3 71 -5
v 3 71 -8
v 3 71 -9
v 3 71 -10
v 3 71 -11
v 3 72 3
v 3 72 2
v 3 72 1
v 3 72 -0
v 3 72 -9
v 3 72 -10
v 3 72 -11
v 3 72 -12
v 3 73 4
v 3 73 3
v 3 73 2
v 3 73 1
v 3 73 -4
v 3 73 -5
v 3 73 -10
v 3 73 -11
v 3 73 -12
v 3 73 -13
v 3 73 -23
v 3 73 -24
v 3 74 4
v 3 74 3
v 3 74 -4
v 3 74 -5
v 3 74 -11
v 3 74 -12
v 3 74 -13
v 3 74 -14
v 3 75 3
v 3 75 2
v 3 75 -12
v 3 75 -13
v 3 75 -14
v 3 75 -16
v 3 76 -4
v 3 76 -5
v 3 76 -13
v 3 76 -15
v 3 76 -16
v 3 76 -18
v 3 77 -15
v 3 77 -17
v 3 77 -18
v 3 77 -23
v 3 78 -17
v 3 78 -23
v 3 81 -23
v 3 81 -24
v 4 50 -4
v 4 50 -5
v 4 64 -23
v 4 64 -24
v 4 65 -23
v 4 65 -24
v 4 66 -4
v 4 66 -5
v 4 69 -0
v 4 69 -2
v 4 69 -7
v 4 69 -9
v 4 70 1
v 4 70 -0
v 4 70 -1
v 4 70 -2
v 4 70 -7
v 4 70 -8
v 4 70 -9
v 4 70 -10
v 4 71 2
v 4 71 1
v 4 71 -0
v 4 71 -1
v 4 71 -4
v 4 71 -5
v 4 71 -8
v 4 71 -9
v 4 71 -10
v 4 71 -11
v 4 72 3
v 4 72 2
v 4 72 1
v 4 72 -0
v 4 72 -9
v 4 72 -10
v 4 72 -11
v 4 72 -12
v 4 73 4
v 4 73 3
v 4 73 2
v 4 73 1
v 4 73 -4
v 4 73 -5
v 4 73 -10
v 4 73 -11
v 4 73 -12
v 4 73 -13
v 4 73 -23
v 4 73 -24
v 4 74 4
v 4 74 3
v 4 74 -4
v 4 74 -5
v 4 74 -11
v 4 74 -12
v 4 74 -13
v 4 74 -14
v 4 75 3
v 4 75 2
v 4 75 -12
v 4 75 -13
v 4 75 -14
v 4 75 -16
v 4 76 -4
v 4 76 -5
v 4 76 -13
v 4 76 -15
v 4 76 -16
v 4 76 -18
v 4 77 -15
v 4 77 -17
v 4 77 -18
v 4 77 -23
v 4 78 -17
v 4 78 -23
v 4 81 -23
v 4 81 -24
v 5 13 -3
v 5 13 -6
v 5 47 -3
v 5 47 -6
v 5 48 -3
v 5 48 -6
v 5 50 -3
v 5 50 -6
v 5 65 -22
v 5 65 -25
v 5 66 -3
v 5 66 -6
v 5 67 -22
v 5 67 -25
v 5 68 -2
v 5 68 -3
v 5 68 -6
v 5 68 -7
v 5 68 -22
v 5 68 -25
v 5 71 -2
v 5 71 -7
v 5 73 -3
v 5 73 -6
v 5 73 -22
v 5 73 -25
v 5 74 -3
v 5 74 -6
v 6 4 -2
v 6 4 -7
v 6 13 -2
v 6 13 -7
v 6 47 -2
v 6 47 -7
v 6 48 -2
v 6 48 -7
v 6 67 -21
v 6 67 -26
v 6 68 -21
v 6 68 -26
v 7 0 -1
v 7 0 -8
v 7 4 -1
v 7 4 -8
v 3 73 4
v 3 74 4
v 4 73 4
v 4 74 4
v 3 72 3
v 3 73 3
v 3 74 3
v 3 75 3
v 4 72 3
v 4 73 3
v 4 74 3
v 4 75 3
v 3 71 2
v 3 72 2
v 4 71 2
v 4 72 2
v 3 70 1
v 3 71 1
v 4 70 1
v 4 71 1
v 3 69 -0
v 3 70 -0
v 4 69 -0
v 4 70 -0
v 0 0 -1
v 0 4 -1
v 7 0 -1
v 7 4 -1
v 1 4 -2
v 1 13 -2
v 1 47 -2
v 1 48 -2
v 2 68 -2
v 2 71 -2
v 3 69 -2
v 3 70 -2
v 4 69 -2
v 4 70 -2
v 5 68 -2
v 5 71 -2
v 6 4 -2
v 6 13 -2
v 6 47 -2
v 6 48 -2
v 2 13 -3
v 2 47 -3
v 2 48 -3
v 2 50 -3
v 2 66 -3
v 2 68 -3
v 2 73 -3
v 2 74 -3
v 5 13 -3
v 5 47 -3
v 5 48 -3
v 5 50 -3
v 5 66 -3
v 5 68 -3
v 5 73 -3
v 5 74 -3
v 3 50 -4
v 3 66 -4
v 3 71 -4
v 3 73 -4
v 3 74 -4
v 3 76 -4
v 4 50 -4
v 4 66 -4
v 4 71 -4
v 4 73 -4
v 4 74 -4
v 4 76 -4
v 3 70 -8
v 3 71 -8
v 4 70 -8
v 4 71 -8
v 3 71 -9
v 3 72 -9
v 4 71 -9
v 4 72 -9
v 3 72 -10
v 3 73 -10
v 4 72 -10
v 4 73 -10
v 3 73 -11
v 3 74 -11
v 4 73 -11
v 4 74 -11
v 3 74 -12
v 3 75 -12
v 4 74 -12
v 4 75 -12
v 3 75 -13
v 3 76 -13
v 4 75 -13
v 4 76 -13
v 3 76 -15
v 3 77 -15
v 4 76 -15
v 4 77 -15
v 3 77 -17
v 3 78 -17
v 4 77 -17
v 4 78 -17
v 1 67 -21
v 1 68 -21
v 6 67 -21
v 6 68 -21
v 2 65 -22
v 2 67 -22
v 2 68 -22
v 2 73 -22
v 5 65 -22
v 5 67 -22
v 5 68 -22
v 5 73 -22
v 3 64 -23
v 3 65 -23
v 3 73 -23
v 3 77 -23
v 3 78 -23
v 3 81 -23
v 4 64 -23
v 4 65 -23
v 4 73 -23
v 4 77 -23
v 4 78 -23
v 4 81 -23
v 3 73 2
v 3 75 2
v 4 73 2
v 4 75 2
v 3 72 1
v 3 73 1
v 4 72 1
v 4 73 1
v 3 71 -0
v 3 72 -0
v 4 71 -0
v 4 72 -0
v 3 70 -1
v 3 71 -1
v 4 70 -1
v 4 71 -1
v 3 50 -5
v 3 66 -5
v 3 71 -5
v 3 73 -5
v 3 74 -5
v 3 76 -5
v 4 50 -5
v 4 66 -5
v 4 71 -5
v 4 73 -5
v 4 74 -5
v 4 76 -5
v 2 13 -6
v 2 47 -6
v 2 48 -6
v 2 50 -6
v 2 66 -6
v 2 68 -6
v 2 73 -6
v 2 74 -6
v 5 13 -6
v 5 47 -6
v 5 48 -6
v 5 50 -6
v 5 66 -6
v 5 68 -6
v 5 73 -6
v 5 74 -6
v 1 4 -7
v 1 13 -7
v 1 47 -7
v 1 48 -7
v 2 68 -7
v 2 71 -7
v 3 69 -7
v 3 70 -7
v 4 69 -7
v 4 70 -7
v 5 68 -7
v 5 71 -7
v 6 4 -7
v 6 13 -7
v 6 47 -7
v 6 48 -7
v 0 0 -8
v 0 4 -8
v 7 0 -8
v 7 4 -8
v 3 69 -9
v 3 70 -9
v 4 69 -9
v 4 70 -9
v 3 70 -10
v 3 71 -10
v 4 70 -10
v 4 71 -10
v 3 71 -11
v 3 72 -11
v 4 71 -11
v 4 72 -11
v 3 72 -12
v 3 73 -12
v 4 72 -12
v 4 73 -12
v 3 73 -13
v 3 74 -13
v 4 73 -13
v 4 74 -13
v 3 74 -14
v 3 75 -14
v 4 74 -14
v 4 75 -14
v 3 75 -16
v 3 76 -16
v 4 75 -16
v 4 76 -16
v 3 76 -18
v 3 77 -18
v 4 76 -18
v 4 77 -18
v 3 64 -24
v 3 65 -24
v 3 73 -24
v 3 81 -24
v 4 64 -24
v 4 65 -24
v 4 73 -24
v 4 81 -24
v 2 65 -25
v 2 67 -25
v 2 68 -25
v 2 73 -25
v 5 65 -25
v 5 67 -25
v 5 68 -25
v 5 73 -25
v 1 67 -26
v 1 68 -26
v 6 67 -26
v 6 68 -26
v 0 0 -1
v 7 0 -1
v 1 0 -2
v 6 0 -2
v 1 0 -7
v 6 0 -7
v 0 0 -8
v 7 0 -8
v 1 47 -2
v 6 47 -2
v 2 47 -3
v 5 47 -3
v 2 47 -6
v 5 47 -6
v 1 47 -7
v 6 47 -7
v 3 64 -23
v 4 64 -23
v 3 64 -24
v 4 64 -24
v 2 65 -22
v 5 65 -22
v 3 65 -23
v 4 65 -23
v 3 65 -24
v 4 65 -24
v 2 65 -25
v 5 65 -25
v 2 66 -3
v 5 66 -3
v 3 66 -4
v 4 66 -4
v 3 66 -5
v 4 66 -5
v 2 66 -6
v 5 66 -6
v 1 67 -21
v 6 67 -21
v 2 67 -22
v 5 67 -22
v 2 67 -25
v 5 67 -25
v 1 67 -26
v 6 67 -26
v 2 68 -2
v 5 68 -2
v 2 68 -3
v 5 68 -3
v 2 68 -6
v 5 68 -6
v 2 68 -7
v 5 68 -7
v 3 69 -0
v 4 69 -0
v 3 69 -2
v 4 69 -2
v 3 69 -7
v 4 69 -7
v 3 69 -9
v 4 69 -9
v 3 70 1
v 4 70 1
v 3 70 -0
v 4 70 -0
v 3 70 -9
v 4 70 -9
v 3 70 -10
v 4 70 -10
v 3 71 2
v 4 71 2
v 3 71 1
v 4 71 1
v 3 71 -10
v 4 71 -10
v 3 71 -11
v 4 71 -11
v 3 72 3
v 4 72 3
v 3 72 2
v 4 72 2
v 3 72 -11
v 4 72 -11
v 3 72 -12
v 4 72 -12
v 3 73 4
v 4 73 4
v 3 73 3
v 4 73 3
v 2 73 -3
v 5 73 -3
v 3 73 -4
v 4 73 -4
v 3 73 -5
v 4 73 -5
v 2 73 -6
v 5 73 -6
v 3 73 -12
v 4 73 -12
v 3 73 -13
v 4 73 -13
v 3 74 -13
v 4 74 -13
v 3 74 -14
v 4 74 -14
v 3 75 -14
v 4 75 -14
v 3 75 -16
v 4 75 -16
v 3 76 -16
v 4 76 -16
v 3 76 -18
v 4 76 -18
v 3 77 -18
v 4 77 -18
v 3 77 -23
v 4 77 -23
v 0 4 -1
v 7 4 -1
v 1 4 -2
v 6 4 -2
v 1 4 -7
v 6 4 -7
v 0 4 -8
v 7 4 -8
v 1 13 -2
v 6 13 -2
v 2 13 -3
v 5 13 -3
v 2 13 -6
v 5 13 -6
v 1 13 -7
v 6 13 -7
v 1 48 -2
v 6 48 -2
v 2 48 -3
v 5 48 -3
v 2 48 -6
v 5 48 -6
v 1 48 -7
v 6 48 -7
v 2 50 -3
v 5 50 -3
v 3 50 -4
v 4 50 -4
v 3 50 -5
v 4 50 -5
v 2 50 -6
v 5 50 -6
v 1 68 -21
v 6 68 -21
v 2 68 -22
v 5 68 -22
v 2 68 -25
v 5 68 -25
v 1 68 -26
v 6 68 -26
v 3 70 -1
v 4 70 -1
v 3 70 -2
v 4 70 -2
v 3 70 -7
v 4 70 -7
v 3 70 -8
v 4 70 -8
v 3 71 -0
v 4 71 -0
v 3 71 -1
v 4 71 -1
v 2 71 -2
v 5 71 -2
v 3 71 -4
v 4 71 -4
v 3 71 -5
v 4 71 -5
v 2 71 -7
v 5 71 -7
v 3 71 -8
v 4 71 -8
v 3 71 -9
v 4 71 -9
v 3 72 1
v 4 72 1
v 3 72 -0
v 4 72 -0
v 3 72 -9
v 4 72 -9
v 3 72 -10
v 4 72 -10
v 3 73 2
v 4 73 2
v 3 73 1
v 4 73 1
v 3 73 -10
v 4 73 -10
v 3 73 -11
v 4 73 -11
v 2 73 -22
v 5 73 -22
v 3 73 -23
v 4 73 -23
v 3 73 -24
v 4 73 -24
v 2 73 -25
v 5 73 -25
v 3 74 4
v 4 74 4
v 3 74 3
v 4 74 3
v 2 74 -3
v 5 74 -3
v 3 74 -4
v 4 74 -4
v 3 74 -5
v 4 74 -5
v 2 74 -6
v 5 74 -6
v 3 74 -11
v 4 74 -11
v 3 74 -12
v 4 74 -12
v 3 75 3
v 4 75 3
v 3 75 2
v 4 75 2
v 3 75 -12
v 4 75 -12
v 3 75 -13
v 4 75 -13
v 3 76 -4
v 4 76 -4
v 3 76 -5
v 4 76 -5
v 3 76 -13
v 4 76 -13
v 3 76 -15
v 4 76 -15
v 3 77 -15
v 4 77 -15
v 3 77 -17
v 4 77 -17
v 3 78 -17
v 4 78 -17
v 3 78 -23
v 4 78 -23
v 3 81 -23
v 4 81 -23
v 3 81 -24
v 4 81 -24

# faces
f 3/2/1 2/2/1 1/2/1
f 4/2/1 2/2/1 3/2/1
f 7/2/1 6/2/1 5/2/1
f 8/2/1 6/2/1 7/2/1
f 11/2/1 10/2/1 9/2/1
f 12/2/1 10/2/1 11/2/1
f 15/3/1 14/3/1 13/3/1
f 16/3/1 14/3/1 15/3/1
f 19/3/1 18/3/1 17/3/1
f 20/3/1 18/3/1 19/3/1
f 23/3/1 22/3/1 21/3/1
f 24/3/1 22/3/1 23/3/1
f 29/1/1 26/1/1 25/1/1
f 30/1/1 26/1/1 29/1/1
f 32/3/1 28/3/1 27/3/1
f 33/3/1 28/3/1 32/3/1
f 37/3/1 32/3/1 31/3/1
f 37/3/1 33/3/1 32/3/1
f 37/3/1 34/3/1 33/3/1
f 38/3/1 34/3/1 37/3/1
f 41/2/1 36/2/1 35/2/1
f 42/2/1 36/2/1 41/2/1
f 43/2/1 40/2/1 39/2/1
f 44/2/1 40/2/1 43/2/1
f 49/1/1 48/1/1 47/1/1
f 50/1/1 48/1/1 49/1/1
f 51/3/1 46/3/1 45/3/1
f 52/3/1 46/3/1 51/3/1
f 58/3/1 54/3/1 53/3/1
f 59/3/1 54/3/1 58/3/1
f 60/3/1 54/3/1 59/3/1
f 61/3/1 56/3/1 55/3/1
f 62/3/1 56/3/1 61/3/1
f 63/3/1 56/3/1 62/3/1
f 66/3/1 58/3/1 57/3/1
f 66/3/1 59/3/1 58/3/1
f 67/3/1 59/3/1 66/3/1
f 68/3/1 59/3/1 67/3/1
f 71/3/1 64/3/1 63/3/1
f 71/3/1 63/3/1 62/3/1
f 72/3/1 64/3/1 71/3/1
f 73/3/1 64/3/1 72/3/1
f 76/3/1 66/3/1 65/3/1
f 76/3/1 67/3/1 66/3/1
f 77/3/1 67/3/1 76/3/1
f 78/3/1 67/3/1 77/3/1
f 79/3/1 74/3/1 73/3/1
f 79/3/1 73/3/1 72/3/1
f 80/3/1 74/3/1 79/3/1
f 81/3/1 74/3/1 80/3/1
f 84/3/1 77/3/1 76/3/1
f 84/3/1 76/3/1 75/3/1
f 85/3/1 77/3/1 84/3/1
f 86/3/1 77/3/1 85/3/1
f 87/3/1 70/3/1 69/3/1
f 88/3/1 70/3/1 87/3/1
f 89/3/1 82/3/1 81/3/1
f 89/3/1 81/3/1 80/3/1
f 90/3/1 82/3/1 89/3/1
f 91/3/1 82/3/1 90/3/1
f 95/3/1 84/3/1 83/3/1
f 95/3/1 85/3/1 84/3/1
f 96/3/1 85/3/1 95/3/1
f 99/3/1 92/3/1 91/3/1
f 99/3/1 91/3/1 90/3/1
f 100/3/1 92/3/1 99/3/1
f 101/3/1 92/3/1 100/3/1
f 103/3/1 85/3/1 96/3/1
f 104/3/1 85/3/1 103/3/1
f 105/3/1 102/3/1 101/3/1
f 105/3/1 101/3/1 100/3/1
f 106/3/1 102/3/1 105/3/1
f 107/3/1 102/3/1 106/3/1
f 109/3/1 98/3/1 97/3/1
f 110/3/1 98/3/1 109/3/1
f 111/3/1 108/3/1 107/3/1
f 111/3/1 107/3/1 106/3/1
f 112/3/1 108/3/1 111/3/1
f 113/3/1 108/3/1 112/3/1
f 115/3/1 114/3/1 113/3/1
f 115/3/1 113/3/1 112/3/1
f 116/3/1 114/3/1 115/3/1
f 117/3/1 114/3/1 116/3/1
f 118/3/1 94/3/1 93/3/1
f 119/3/1 117/3/1 116/3/1
f 119/3/1 118/3/1 117/3/1
f 120/3/1 94/3/1 118/3/1
f 120/3/1 118/3/1 119/3/1
f 121/3/1 94/3/1 120/3/1
f 122/3/1 94/3/1 121/3/1
f 125/1/2 126/1/2 127/1/2
f 127/1/2 126/1/2 128/1/2
f 123/3/2 124/3/2 129/3/2
f 129/3/2 124/3/2 130/3/2
f 131/3/2 132/3/2 136/3/2
f 136/3/2 132/3/2 137/3/2
f 137/3/2 132/3/2 138/3/2
f 133/3/2 134/3/2 139/3/2
f 139/3/2 134/3/2 140/3/2
f 140/3/2 134/3/2 141/3/2
f 135/3/2 136/3/2 144/3/2
f 136/3/2 137/3/2 144/3/2
f 144/3/2 137/3/2 145/3/2
f 145/3/2 137/3/2 146/3/2
f 141/3/2 142/3/2 149/3/2
f 140/3/2 141/3/2 149/3/2
f 149/3/2 142/3/2 150/3/2
f 150/3/2 142/3/2 151/3/2
f 143/3/2 144/3/2 154/3/2
f 144/3/2 145/3/2 154/3/2
f 154/3/2 145/3/2 155/3/2
f 155/3/2 145/3/2 156/3/2
f 151/3/2 152/3/2 157/3/2
f 150/3/2 151/3/2 157/3/2
f 157/3/2 152/3/2 158/3/2
f 158/3/2 152/3/2 159/3/2
f 154/3/2 155/3/2 162/3/2
f 153/3/2 154/3/2 162/3/2
f 162/3/2 155/3/2 163/3/2
f 163/3/2 155/3/2 164/3/2
f 147/3/2 148/3/2 165/3/2
f 165/3/2 148/3/2 166/3/2
f 159/3/2 160/3/2 167/3/2
f 158/3/2 159/3/2 167/3/2
f 167/3/2 160/3/2 168/3/2
f 168/3/2 160/3/2 169/3/2
f 161/3/2 162/3/2 173/3/2
f 162/3/2 163/3/2 173/3/2
f 173/3/2 163/3/2 174/3/2
f 169/3/2 170/3/2 177/3/2
f 168/3/2 169/3/2 177/3/2
f 177/3/2 170/3/2 178/3/2
f 178/3/2 170/3/2 179/3/2
f 174/3/2 163/3/2 181/3/2
f 181/3/2 163/3/2 182/3/2
f 179/3/2 180/3/2 183/3/2
f 178/3/2 179/3/2 183/3/2
f 183/3/2 180/3/2 184/3/2
f 184/3/2 180/3/2 185/3/2
f 175/3/2 176/3/2 187/3/2
f 187/3/2 176/3/2 188/3/2
f 185/3/2 186/3/2 189/3/2
f 184/3/2 185/3/2 189/3/2
f 189/3/2 186/3/2 190/3/2
f 190/3/2 186/3/2 191/3/2
f 191/3/2 192/3/2 193/3/2
f 190/3/2 191/3/2 193/3/2
f 193/3/2 192/3/2 194/3/2
f 194/3/2 192/3/2 195/3/2
f 171/3/2 172/3/2 196/3/2
f 194/3/2 195/3/2 197/3/2
f 195/3/2 196/3/2 197/3/2
f 196/3/2 172/3/2 198/3/2
f 197/3/2 196/3/2 198/3/2
f 198/3/2 172/3/2 199/3/2
f 199/3/2 172/3/2 200/3/2
f 201/3/2 202/3/2 203/3/2
f 203/3/2 202/3/2 204/3/2
f 205/3/2 206/3/2 207/3/2
f 207/3/2 206/3/2 208/3/2
f 209/1/2 210/1/2 213/1/2
f 213/1/2 210/1/2 214/1/2
f 211/3/2 212/3/2 216/3/2
f 216/3/2 212/3/2 217/3/2
f 215/3/2 216/3/2 221/3/2
f 216/3/2 217/3/2 221/3/2
f 217/3/2 218/3/2 221/3/2
f 221/3/2 218/3/2 222/3/2
f 219/2/2 220/2/2 225/2/2
f 225/2/2 220/2/2 226/2/2
f 223/2/2 224/2/2 227/2/2
f 227/2/2 224/2/2 228/2/2
f 229/2/2 230/2/2 231/2/2
f 231/2/2 230/2/2 232/2/2
f 233/2/2 234/2/2 235/2/2
f 235/2/2 234/2/2 236/2/2
f 237/3/2 238/3/2 239/3/2
f 239/3/2 238/3/2 240/3/2
f 241/2/2 242/2/2 243/2/2
f 243/2/2 242/2/2 244/2/2
f 247/3/3 246/3/3 245/3/3
f 248/3/3 246/3/3 247/3/3
f 253/3/3 250/3/3 249/3/3
f 254/3/3 250/3/3 253/3/3
f 255/3/3 252/3/3 251/3/3
f 256/3/3 252/3/3 255/3/3
f 259/3/3 258/3/3 257/3/3
f 260/3/3 258/3/3 259/3/3
f 263/3/3 262/3/3 261/3/3
f 264/3/3 262/3/3 263/3/3
f 267/3/3 266/3/3 265/3/3
f 268/3/3 266/3/3 267/3/3
f 271/2/3 270/2/3 269/2/3
f 272/2/3 270/2/3 271/2/3
f 279/3/3 278/3/3 277/3/3
f 280/3/3 278/3/3 279/3/3
f 281/3/3 279/3/3 277/3/3
f 282/3/3 278/3/3 280/3/3
f 283/3/3 281/3/3 277/3/3
f 283/3/3 282/3/3 281/3/3
f 284/3/3 278/3/3 282/3/3
f 284/3/3 282/3/3 283/3/3
f 285/2/3 274/2/3 273/2/3
f 286/2/3 274/2/3 285/2/3
f 287/2/3 276/2/3 275/2/3
f 288/2/3 276/2/3 287/2/3
f 297/3/3 290/3/3 289/3/3
f 298/3/3 290/3/3 297/3/3
f 299/3/3 292/3/3 291/3/3
f 300/3/3 292/3/3 299/3/3
f 301/3/3 294/3/3 293/3/3
f 302/3/3 294/3/3 301/3/3
f 303/2/3 296/2/3 295/2/3
f 304/2/3 296/2/3 303/2/3
f 311/3/3 306/3/3 305/3/3
f 312/3/3 306/3/3 311/3/3
f 313/3/3 308/3/3 307/3/3
f 314/3/3 308/3/3 313/3/3
f 315/3/3 310/3/3 309/3/3
f 316/3/3 310/3/3 315/3/3
f 319/3/3 318/3/3 317/3/3
f 320/3/3 318/3/3 319/3/3
f 323/3/3 322/3/3 321/3/3
f 324/3/3 322/3/3 323/3/3
f 327/3/3 326/3/3 325/3/3
f 328/3/3 326/3/3 327/3/3
f 331/3/3 330/3/3 329/3/3
f 332/3/3 330/3/3 331/3/3
f 335/3/3 334/3/3 333/3/3
f 336/3/3 334/3/3 335/3/3
f 339/3/3 338/3/3 337/3/3
f 340/3/3 338/3/3 339/3/3
f 343/3/3 342/3/3 341/3/3
f 344/3/3 342/3/3 343/3/3
f 347/3/3 346/3/3 345/3/3
f 348/3/3 346/3/3 347/3/3
f 351/3/3 350/3/3 349/3/3
f 352/3/3 350/3/3 351/3/3
f 357/1/3 354/1/3 353/1/3
f 358/1/3 354/1/3 357/1/3
f 359/2/3 356/2/3 355/2/3
f 360/2/3 356/2/3 359/2/3
f 367/1/3 362/1/3 361/1/3
f 368/1/3 362/1/3 367/1/3
f 369/3/3 364/3/3 363/3/3
f 370/3/3 364/3/3 369/3/3
f 371/3/3 366/3/3 365/3/3
f 372/3/3 366/3/3 371/3/3
f 373/3/4 374/3/4 375/3/4
f 375/3/4 374/3/4 376/3/4
f 377/3/4 378/3/4 379/3/4
f 379/3/4 378/3/4 380/3/4
f 381/3/4 382/3/4 383/3/4
f 383/3/4 382/3/4 384/3/4
f 385/3/4 386/3/4 387/3/4
f 387/3/4 386/3/4 388/3/4
f 389/3/4 390/3/4 395/3/4
f 395/3/4 390/3/4 396/3/4
f 391/3/4 392/3/4 397/3/4
f 397/3/4 392/3/4 398/3/4
f 393/3/4 394/3/4 399/3/4
f 399/3/4 394/3/4 400/3/4
f 401/3/4 402/3/4 409/3/4
f 409/3/4 402/3/4 410/3/4
f 403/3/4 404/3/4 411/3/4
f 411/3/4 404/3/4 412/3/4
f 405/3/4 406/3/4 413/3/4
f 413/3/4 406/3/4 414/3/4
f 407/2/4 408/2/4 415/2/4
f 415/2/4 408/2/4 416/2/4
f 421/3/4 422/3/4 423/3/4
f 423/3/4 422/3/4 424/3/4
f 421/3/4 423/3/4 425/3/4
f 424/3/4 422/3/4 426/3/4
f 421/3/4 425/3/4 427/3/4
f 425/3/4 426/3/4 427/3/4
f 426/3/4 422/3/4 428/3/4
f 427/3/4 426/3/4 428/3/4
f 417/2/4 418/2/4 429/2/4
f 429/2/4 418/2/4 430/2/4
f 419/2/4 420/2/4 431/2/4
f 431/2/4 420/2/4 432/2/4
f 433/2/4 434/2/4 435/2/4
f 435/2/4 434/2/4 436/2/4
f 437/3/4 438/3/4 439/3/4
f 439/3/4 438/3/4 440/3/4
f 441/3/4 442/3/4 443/3/4
f 443/3/4 442/3/4 444/3/4
f 445/3/4 446/3/4 447/3/4
f 447/3/4 446/3/4 448/3/4
f 449/3/4 450/3/4 451/3/4
f 451/3/4 450/3/4 452/3/4
f 453/3/4 454/3/4 455/3/4
f 455/3/4 454/3/4 456/3/4
f 457/3/4 458/3/4 459/3/4
f 459/3/4 458/3/4 460/3/4
f 461/3/4 462/3/4 463/3/4
f 463/3/4 462/3/4 464/3/4
f 465/3/4 466/3/4 467/3/4
f 467/3/4 466/3/4 468/3/4
f 469/1/4 470/1/4 473/1/4
f 473/1/4 470/1/4 474/1/4
f 471/3/4 472/3/4 475/3/4
f 475/3/4 472/3/4 476/3/4
f 477/1/4 478/1/4 481/1/4
f 481/1/4 478/1/4 482/1/4
f 479/2/4 480/2/4 483/2/4
f 483/2/4 480/2/4 484/2/4
f 485/3/4 486/3/4 487/3/4
f 487/3/4 486/3/4 488/3/4
f 491/2/5 490/2/5 489/2/5
f 492/2/5 490/2/5 491/2/5
f 493/2/5 491/2/5 489/2/5
f 493/4/5 492/4/5 491/4/5
f 494/2/5 490/2/5 492/2/5
f 494/4/5 492/4/5 493/4/5
f 495/2/5 493/2/5 489/2/5
f 495/2/5 494/2/5 493/2/5
f 496/2/5 490/2/5 494/2/5
f 496/2/5 494/2/5 495/2/5
f 499/2/5 498/2/5 497/2/5
f 500/2/5 498/2/5 499/2/5
f 501/2/5 499/2/5 497/2/5
f 502/2/5 498/2/5 500/2/5
f 503/2/5 501/2/5 497/2/5
f 503/2/5 502/2/5 501/2/5
f 504/2/5 498/2/5 502/2/5
f 504/2/5 502/2/5 503/2/5
f 507/1/5 506/1/5 505/1/5
f 508/1/5 506/1/5 507/1/5
f 511/1/5 510/1/5 509/1/5
f 512/1/5 510/1/5 511/1/5
f 513/1/5 511/1/5 509/1/5
f 514/1/5 510/1/5 512/1/5
f 515/1/5 513/1/5 509/1/5
f 515/1/5 514/1/5 513/1/5
f 516/1/5 510/1/5 514/1/5
f 516/1/5 514/1/5 515/1/5
f 519/3/5 518/3/5 517/3/5
f 520/3/5 518/3/5 519/3/5
f 521/3/5 519/3/5 517/3/5
f 522/3/5 518/3/5 520/3/5
f 523/3/5 521/3/5 517/3/5
f 523/3/5 522/3/5 521/3/5
f 524/3/5 518/3/5 522/3/5
f 524/3/5 522/3/5 523/3/5
f 527/3/5 526/3/5 525/3/5
f 528/3/5 526/3/5 527/3/5
f 529/3/5 527/3/5 525/3/5
f 530/3/5 526/3/5 528/3/5
f 531/3/5 529/3/5 525/3/5
f 531/3/5 530/3/5 529/3/5
f 532/3/5 526/3/5 530/3/5
f 532/3/5 530/3/5 531/3/5
f 535/3/5 534/3/5 533/3/5
f 536/3/5 534/3/5 535/3/5
f 539/3/5 538/3/5 537/3/5
f 540/3/5 538/3/5 539/3/5
f 543/3/5 542/3/5 541/3/5
f 544/3/5 542/3/5 543/3/5
f 547/3/5 546/3/5 545/3/5
f 548/3/5 546/3/5 547/3/5
f 551/3/5 550/3/5 549/3/5
f 552/3/5 550/3/5 551/3/5
f 555/3/5 554/3/5 553/3/5
f 556/3/5 554/3/5 555/3/5
f 559/3/5 558/3/5 557/3/5
f 560/3/5 558/3/5 559/3/5
f 563/3/5 562/3/5 561/3/5
f 564/3/5 562/3/5 563/3/5
f 567/3/5 566/3/5 565/3/5
f 568/3/5 566/3/5 567/3/5
f 571/3/5 570/3/5 569/3/5
f 572/3/5 570/3/5 571/3/5
f 575/3/5 574/3/5 573/3/5
f 576/3/5 574/3/5 575/3/5
f 579/2/5 578/2/5 577/2/5
f 580/2/5 578/2/5 579/2/5
f 581/2/5 579/2/5 577/2/5
f 582/2/5 578/2/5 580/2/5
f 583/2/5 581/2/5 577/2/5
f 583/2/5 582/2/5 581/2/5
f 584/2/5 578/2/5 582/2/5
f 584/2/5 582/2/5 583/2/5
f 587/3/5 586/3/5 585/3/5
f 588/3/5 586/3/5 587/3/5
f 591/3/5 590/3/5 589/3/5
f 592/3/5 590/3/5 591/3/5
f 595/3/5 594/3/5 593/3/5
f 596/3/5 594/3/5 595/3/5
f 599/3/5 598/3/5 597/3/5
f 600/3/5 598/3/5 599/3/5
f 603/3/5 602/3/5 601/3/5
f 604/3/5 602/3/5 603/3/5
f 605/2/6 606/2/6 607/2/6
f 607/2/6 606/2/6 608/2/6
f 605/2/6 607/2/6 609/2/6
f 608/2/6 606/2/6 610/2/6
f 605/2/6 609/2/6 611/2/6
f 609/2/6 610/2/6 611/2/6
f 610/2/6 606/2/6 612/2/6
f 611/2/6 610/2/6 612/2/6
f 613/2/6 614/2/6 615/2/6
f 615/2/6 614/2/6 616/2/6
f 613/2/6 615/2/6 617/2/6
f 616/2/6 614/2/6 618/2/6
f 613/2/6 617/2/6 619/2/6
f 617/2/6 618/2/6 619/2/6
f 618/2/6 614/2/6 620/2/6
f 619/2/6 618/2/6 620/2/6
f 621/2/6 622/2/6 623/2/6
f 623/2/6 622/2/6 624/2/6
f 621/2/6 623/2/6 625/2/6
f 624/2/6 622/2/6 626/2/6
f 621/2/6 625/2/6 627/2/6
f 625/2/6 626/2/6 627/2/6
f 626/2/6 622/2/6 628/2/6
f 627/2/6 626/2/6 628/2/6
f 629/3/6 630/3/6 631/3/6
f 631/3/6 630/3/6 632/3/6
f 629/3/6 631/3/6 633/3/6
f 632/3/6 630/3/6 634/3/6
f 629/3/6 633/3/6 635/3/6
f 633/3/6 634/3/6 635/3/6
f 634/3/6 630/3/6 636/3/6
f 635/3/6 634/3/6 636/3/6
f 637/3/6 638/3/6 639/3/6
f 639/3/6 638/3/6 640/3/6
f 637/3/6 639/3/6 641/3/6
f 640/3/6 638/3/6 642/3/6
f 637/3/6 641/3/6 643/3/6
f 641/3/6 642/3/6 643/3/6
f 642/3/6 638/3/6 644/3/6
f 643/3/6 642/3/6 644/3/6
f 645/3/6 646/3/6 647/3/6
f 647/3/6 646/3/6 648/3/6
f 649/3/6 650/3/6 651/3/6
f 651/3/6 650/3/6 652/3/6
f 653/3/6 654/3/6 655/3/6
f 655/3/6 654/3/6 656/3/6
f 657/3/6 658/3/6 659/3/6
f 659/3/6 658/3/6 660/3/6
f 657/3/6 659/3/6 661/3/6
f 660/3/6 658/3/6 662/3/6
f 657/3/6 661/3/6 663/3/6
f 661/3/6 662/3/6 663/3/6
f 662/3/6 658/3/6 664/3/6
f 663/3/6 662/3/6 664/3/6
f 665/3/6 666/3/6 667/3/6
f 667/3/6 666/3/6 668/3/6
f 669/3/6 670/3/6 671/3/6
f 671/3/6 670/3/6 672/3/6
f 673/3/6 674/3/6 675/3/6
f 675/3/6 674/3/6 676/3/6
f 677/3/6 678/3/6 679/3/6
f 679/3/6 678/3/6 680/3/6
f 681/3/6 682/3/6 683/3/6
f 683/3/6 682/3/6 684/3/6
f 685/2/6 686/2/6 687/2/6
f 687/2/6 686/2/6 688/2/6
f 685/2/6 687/2/6 689/2/6
f 688/2/6 686/2/6 690/2/6
f 685/2/6 689/2/6 691/2/6
f 689/2/6 690/2/6 691/2/6
f 690/2/6 686/2/6 692/2/6
f 691/2/6 690/2/6 692/2/6
f 693/3/6 694/3/6 695/3/6
f 695/3/6 694/3/6 696/3/6
f 697/2/6 698/2/6 699/2/6
f 699/2/6 698/2/6 700/2/6
f 697/2/6 699/2/6 701/2/6
f 700/2/6 698/2/6 702/2/6
f 697/2/6 701/2/6 703/2/6
f 701/2/6 702/2/6 703/2/6
f 702/2/6 698/2/6 704/2/6
f 703/2/6 702/2/6 704/2/6
f 705/3/6 706/3/6 707/3/6
f 707/3/6 706/3/6 708/3/6
f 709/3/6 710/3/6 711/3/6
f 711/3/6 710/3/6 712/3/6
f 713/3/6 714/3/6 715/3/6
f 715/3/6 714/3/6 716/3/6
f 717/3/6 718/3/6 719/3/6
f 719/3/6 718/3/6 720/3/6
f 721/3/6 722/3/6 723/3/6
f 723/3/6 722/3/6 724/3/6
f 725/3/6 726/3/6 727/3/6
f 727/3/6 726/3/6 728/3/6
f 729/3/6 730/3/6 731/3/6
f 731/3/6 730/3/6 732/3/6
f 733/3/6 734/3/6 735/3/6
f 735/3/6 734/3/6 736/3/6
